<?xml version="1.0" encoding="utf-8"?>
<!-- Generator: Adobe Illustrator 26.3.1, SVG Export Plug-In . SVG Version: 6.00 Build 0)  -->
<svg version="1.1" id="Layer_1" xmlns="http://www.w3.org/2000/svg" xmlns:xlink="http://www.w3.org/1999/xlink" x="0px" y="0px"
	 viewBox="0 0 774 824" style="enable-background:new 0 0 774 824;" xml:space="preserve">
<style type="text/css">
	.st0{fill:#FFFFFF;}
	.st1{fill:none;}
</style>
<g>
	<path class="st0" d="M36,674.9c0,1.1,0,2.2-0.1,3.3c0,1.2-0.1,2.3-0.2,3.5c-0.1,1.2-0.2,2.3-0.3,3.3s-0.3,2-0.4,2.8l-2.6,0.4
		c-0.1-0.7-0.1-1.5-0.2-2.5s-0.1-1.9-0.1-2.9c0-1-0.1-2-0.1-3.1c0-1,0-2,0-2.8v-12.6c-1.6,0-3.3,0.1-4.9,0.1
		c-1.6,0.1-3.1,0.1-4.5,0.1c-1.4,0-2.6,0.1-3.8,0.1s-2,0.1-2.6,0.1c-1.5,0.1-3,0.2-4.5,0.3c-1.5,0.1-3,0.3-4.5,0.5l-1.5-4.1
		c1.8,0.2,3.5,0.3,5.2,0.4c1.6,0.1,3.4,0.2,5.2,0.3c1,0,2.2,0.1,3.8,0.1c1.5,0,3.2,0,5.1,0c1.9,0,3.8-0.1,5.7-0.1
		c2-0.1,3.9-0.1,5.7-0.1c1.8,0,3.5-0.1,5-0.1s2.8-0.1,3.8-0.1c2.7-0.1,5.3-0.3,7.7-0.5c2.4-0.2,4.7-0.4,6.8-0.8l-0.6,3.8
		c-1.6-0.1-3.5-0.1-5.8-0.2c-2.3,0-4.8-0.1-7.4-0.1c-1.1,0-2.6,0-4.4,0c-1.8,0-3.7,0.1-5.8,0.2V674.9z M35.5,646.5
		c2.8,1,6,1.9,9.4,2.6c3.5,0.7,6.9,1.3,10.3,1.8l-2.8,3.3c-1.2-0.4-2.6-0.9-4.3-1.5c-1.6-0.6-3.3-1.1-5.1-1.7s-3.5-1.2-5.2-1.7
		c-1.7-0.5-3.3-1.1-4.7-1.5c-3.4,1.9-7,3.5-10.8,4.9c-3.7,1.4-7.4,2.6-11.1,3.5l-1.1-1.3c6.1-1.8,11.8-4.1,17.1-7.1
		c5.3-2.9,9.9-6.3,13.8-10.2c-1.2,0-2.5,0-3.9,0.1s-2.8,0.1-4.2,0.2c-1.4,0.1-2.8,0.1-4.1,0.2c-1.3,0.1-2.5,0.1-3.5,0.1
		c-0.4,0-1,0-1.7,0.1c-0.7,0-1.4,0.1-2.2,0.2c-0.8,0.1-1.5,0.2-2.3,0.3c-0.8,0.1-1.5,0.2-2.2,0.3l-2.3-3.6c0.5,0.1,1.1,0.2,1.8,0.2
		c0.7,0.1,1.4,0.1,2.1,0.2c0.7,0.1,1.5,0.1,2.2,0.1c0.7,0,1.4,0,2.1,0c1.4,0,3.2,0,5.3,0c2.1,0,4.3-0.1,6.5-0.2
		c2.2-0.1,4.5-0.3,6.7-0.5c2.2-0.2,4.1-0.4,5.8-0.8l1.4,1.4c-1.8,2-3.7,3.9-5.9,5.7S38,645,35.5,646.5z"/>
	<path class="st0" d="M113.4,638.5c0-1.3-0.6-2.4-1.8-3.2c-1.2-0.8-3-1.5-5.5-2.1l0.7-1.6c2,0.2,3.9,0.5,5.9,0.9
		c2,0.4,3.8,0.7,5.3,1c-0.2,0.7-0.3,1.5-0.4,2.4c-0.1,0.9-0.2,1.7-0.2,2.5v15.4c0,0.7,0,1.5-0.1,2.4c-0.1,0.9-0.1,1.8-0.2,2.8
		c-0.1,0.9-0.2,1.8-0.3,2.6c-0.1,0.8-0.2,1.5-0.4,2l-2.6,0.4c-0.1-0.9-0.2-2-0.3-3.3c-0.1-1.3-0.1-2.5-0.1-3.6v-3.3
		c-1.7,0.7-3.8,1.4-6.1,2.1c-2.4,0.7-4.8,1.4-7.4,2.1c-2.6,0.7-5.1,1.3-7.6,1.8s-4.8,0.9-6.8,1.2c-1.8,0.2-3,0-3.8-0.6
		c-0.7-0.7-1.1-1.9-1.1-3.8v-11.7c0-0.7-0.1-1.2-0.2-1.7c-0.2-0.4-0.4-0.8-0.9-1.2c-0.4-0.3-1-0.6-1.8-0.8c-0.8-0.2-1.8-0.5-3-0.7
		l0.6-1.6c2,0.1,3.8,0.2,5.3,0.4c1.6,0.2,3.1,0.4,4.6,0.6c-0.2,0.7-0.3,1.6-0.4,2.5c-0.1,0.9-0.2,1.7-0.2,2.5v10.5
		c0,0.8,0.2,1.3,0.6,1.6c0.4,0.3,1,0.4,1.6,0.4c1.7-0.1,3.7-0.3,6-0.7c2.3-0.3,4.6-0.7,7.1-1.2c2.4-0.5,4.8-1,7.1-1.6
		c2.3-0.6,4.5-1.2,6.3-1.8V638.5z M115.8,682.1c0.4-0.1,0.8-0.1,1.1-0.1c0.3,0,0.7,0,1-0.1l-0.8,3.3c-1.6-0.1-3.4-0.2-5.3-0.3
		s-3.9-0.1-6-0.1s-4.1,0-6.1,0.1c-2,0-3.9,0.1-5.5,0.2c-0.1,1-0.2,1.8-0.4,2.4l-2.2,0.4c-0.2-0.8-0.4-1.7-0.5-2.7s-0.2-2-0.3-3
		l-0.7-10.1c-0.1-0.7-0.2-1.3-0.3-1.8c-0.1-0.5-0.3-0.8-0.6-1.1c-0.3-0.3-0.7-0.5-1.2-0.7c-0.5-0.2-1.2-0.4-2.1-0.6l0.7-1.5
		c5.1,0.6,10.1,0.8,15.1,0.7c5-0.1,10.1-0.4,15.5-0.8c-0.2,1.1-0.3,2.3-0.5,3.8c-0.2,1.4-0.3,2.8-0.4,4.3c-0.1,1.5-0.3,2.9-0.4,4.3
		C115.9,679.7,115.8,681,115.8,682.1z M112.7,669c-1.3,0-2.7-0.1-4.4-0.1c-1.7,0-3.4,0-5.1,0c-1.7,0-3.4,0.1-5,0.1
		c-1.6,0.1-2.9,0.1-4,0.2l0.2,11.8v1.8c2.9,0,6,0,9.3-0.1c3.2-0.1,6.2-0.2,8.9-0.4L112.7,669z"/>
	<path class="st0" d="M181.5,668.1c-2.5,0.6-5.1,1.1-7.8,1.6c-2.7,0.5-5.3,1-8,1.4s-5.2,0.8-7.6,1.1c-2.5,0.3-4.7,0.5-6.7,0.7
		c-0.4,0-1,0.1-1.7,0.1c-0.7,0.1-1.5,0.1-2.3,0.2c-0.8,0.1-1.6,0.2-2.5,0.2c-0.8,0.1-1.6,0.2-2.2,0.3l-2.3-3.8
		c1.3,0.2,2.7,0.4,4.2,0.5s2.9,0.1,4.2,0.1c2.9-0.1,5.8-0.3,8.8-0.5c2.9-0.2,5.8-0.5,8.6-0.9c2.8-0.4,5.5-0.8,8.1-1.2
		c2.6-0.4,5-0.9,7.4-1.4v-27.9c0-1.3-0.6-2.4-1.8-3.2c-1.2-0.8-3-1.5-5.5-2.1l0.6-1.6c2,0.2,4,0.5,6,0.9c2,0.4,3.8,0.7,5.3,1
		c-0.2,0.7-0.3,1.5-0.4,2.4c-0.1,0.9-0.2,1.7-0.2,2.5v32.8c0,1.2,0,2.6-0.1,4.2c-0.1,1.6-0.1,3.1-0.2,4.7c-0.1,1.6-0.2,3-0.3,4.5
		c-0.1,1.4-0.3,2.6-0.4,3.5l-2.5,0.3c-0.1-0.7-0.1-1.5-0.2-2.5s-0.1-2.1-0.1-3.2c0-1.2-0.1-2.3-0.1-3.5c0-1.2,0-2.4,0-3.5V668.1z
		 M161,639.9c1.7,0.2,3.2,0.6,4.6,1.2c1.4,0.6,2.6,1.4,3.6,2.3c1,0.9,1.8,2,2.4,3.2c0.6,1.2,0.8,2.5,0.8,3.9c0,1.5-0.3,2.9-1,4.2
		c-0.7,1.3-1.6,2.4-2.8,3.4c-1.2,1-2.6,1.7-4.2,2.3c-1.6,0.5-3.4,0.8-5.2,0.8s-3.6-0.3-5.2-0.8c-1.6-0.5-3-1.3-4.2-2.3
		c-1.2-1-2.1-2.1-2.8-3.4c-0.7-1.3-1-2.7-1-4.2c0-1.5,0.3-2.9,0.9-4.1c0.6-1.3,1.5-2.4,2.6-3.3c1.1-1,2.4-1.7,3.9-2.3
		c1.5-0.6,3.1-0.9,4.9-1c-0.1-0.5-0.3-0.9-0.6-1.2c-0.4-0.3-1-0.6-1.9-0.9l0.6-1.2c0.9,0.2,1.8,0.4,2.7,0.5c0.9,0.1,1.8,0.3,2.8,0.6
		c-0.2,0.4-0.3,0.8-0.4,1.1C161.3,639.1,161.1,639.5,161,639.9z M168.2,650.4c0-1.2-0.2-2.3-0.7-3.3s-1.1-2-1.9-2.8
		c-0.8-0.8-1.7-1.4-2.8-1.8c-1.1-0.4-2.3-0.7-3.5-0.7c-1.3,0-2.5,0.2-3.6,0.7c-1.1,0.4-2,1.1-2.8,1.8c-0.8,0.8-1.4,1.7-1.9,2.8
		c-0.4,1.1-0.7,2.2-0.7,3.3c0,1.2,0.2,2.3,0.7,3.4c0.4,1,1.1,1.9,1.9,2.7c0.8,0.7,1.7,1.3,2.8,1.8c1.1,0.4,2.3,0.6,3.6,0.6
		s2.5-0.2,3.6-0.6c1.1-0.4,2-1,2.8-1.8c0.8-0.7,1.4-1.6,1.9-2.7C168,652.7,168.2,651.6,168.2,650.4z"/>
	<path class="st0" d="M239.3,644.8c0-0.7-0.1-1.2-0.2-1.7c-0.2-0.4-0.4-0.8-0.9-1.2c-0.4-0.3-1-0.6-1.8-0.8c-0.8-0.2-1.8-0.5-3-0.7
		l0.6-1.6c2,0.1,3.7,0.2,5.3,0.4c1.6,0.2,3.1,0.4,4.7,0.6c-0.2,0.7-0.3,1.6-0.4,2.5c-0.1,0.9-0.2,1.7-0.2,2.5v11.4
		c0,0.8,0.2,1.3,0.6,1.7c0.4,0.3,1,0.5,1.7,0.4c3.6-0.2,7.1-0.5,10.6-1.1c3.5-0.6,7.1-1.5,10.8-2.6v1.8c-3.5,1.3-7.1,2.4-10.9,3.3
		c-3.8,0.9-7.8,1.6-12,2.2c-1.8,0.2-3,0-3.8-0.6c-0.7-0.7-1.1-1.9-1.1-3.8V644.8z M274.8,682.1c0.4-0.1,0.8-0.1,1.1-0.1
		c0.3,0,0.7,0,1-0.1l-0.8,3.3c-1.6-0.1-3.4-0.2-5.3-0.3s-3.9-0.1-5.9-0.1c-2,0-4,0-6,0.1c-2,0-3.9,0.1-5.5,0.2
		c-0.1,0.9-0.2,1.7-0.4,2.4l-2.3,0.4c-0.2-0.8-0.4-1.7-0.5-2.7s-0.2-2-0.3-3l-0.7-9.8c-0.1-0.7-0.2-1.3-0.3-1.8
		c-0.1-0.5-0.3-0.8-0.6-1.1c-0.3-0.3-0.7-0.5-1.2-0.7c-0.5-0.2-1.2-0.4-2.1-0.6l0.7-1.5c5,0.6,10,0.9,15,0.7
		c5-0.2,10.1-0.4,15.5-0.9c-0.2,1.1-0.3,2.3-0.5,3.7c-0.2,1.4-0.3,2.8-0.4,4.2c-0.1,1.4-0.3,2.9-0.4,4.2
		C275,679.8,274.9,681,274.8,682.1z M271.8,669.2c-1.3,0-2.7-0.1-4.4-0.1c-1.7,0-3.4,0-5.1,0c-1.7,0-3.4,0.1-5,0.1s-2.9,0.1-4,0.2
		l0.2,11.6v1.8c2.9,0,6,0,9.2-0.1c3.2-0.1,6.2-0.2,8.8-0.4L271.8,669.2z M272.5,647.7c-1.3,0-2.7,0.1-4.2,0.2
		c-1.5,0.1-3,0.2-4.5,0.3c-1.5,0.1-2.9,0.2-4.2,0.4c-1.3,0.1-2.4,0.3-3.3,0.4l-1.6-3.5c0.8,0.2,1.8,0.3,3.1,0.4
		c1.3,0.1,2.5,0.1,3.7,0.1c0.8,0,1.7,0,2.8,0c1.1,0,2.2,0,3.3-0.1c1.1,0,2.1-0.1,3-0.1c0.9,0,1.5-0.1,1.9-0.1v-7.1
		c0-1.3-0.6-2.4-1.8-3.2c-1.2-0.8-3-1.5-5.5-2.1l0.7-1.6c2,0.2,3.9,0.5,5.9,0.9c2,0.4,3.8,0.7,5.3,1c-0.2,0.7-0.3,1.5-0.4,2.4
		c-0.1,0.9-0.2,1.7-0.2,2.5v15.8c0,0.7,0,1.5-0.1,2.4c-0.1,0.9-0.1,1.8-0.2,2.8c-0.1,0.9-0.2,1.8-0.3,2.6c-0.1,0.8-0.2,1.5-0.3,2
		l-2.6,0.4c-0.1-0.8-0.2-1.9-0.3-3.3c-0.1-1.3-0.1-2.6-0.1-3.7V647.7z"/>
	<path class="st0" d="M319.9,658.8c1,0.9,2,1.7,3,2.5c1,0.8,2,1.6,3.1,2.4c1.1,0.8,2.2,1.6,3.5,2.4c1.2,0.8,2.6,1.7,4.1,2.6l-3.4,3
		c-1.1-1.1-2.1-2.1-3-3s-1.9-1.8-2.8-2.7c-0.9-0.9-1.9-1.8-2.8-2.7c-1-0.9-2-1.9-3.1-3c-2.8,3-5.8,5.7-8.9,8.1
		c-3.1,2.3-6.1,4.3-9,5.8l-1.1-1.2c2.5-1.5,4.8-3.2,7.1-5.1s4.4-3.9,6.4-6.1c2-2.2,3.8-4.5,5.4-6.9c1.6-2.4,3.1-4.9,4.3-7.5
		c-0.6,0-1.3,0-2.2,0.1c-0.9,0-1.8,0.1-2.8,0.1c-1,0.1-1.9,0.1-2.8,0.1c-0.9,0-1.7,0.1-2.2,0.1c-0.4,0-1,0-1.6,0.1
		c-0.7,0.1-1.4,0.1-2.1,0.2c-0.8,0.1-1.5,0.2-2.3,0.2c-0.8,0.1-1.5,0.2-2.2,0.3l-2.3-3.6c1,0.2,2.3,0.4,3.8,0.5s2.9,0.2,4.2,0.2
		c1.4,0,2.9,0,4.5-0.1c1.5,0,3.1-0.1,4.6-0.2c1.5-0.1,2.9-0.3,4.3-0.4s2.6-0.4,3.7-0.7l1.3,1.3c-1.1,2.4-2.4,4.7-3.8,6.9
		C323.2,654.6,321.6,656.7,319.9,658.8z M323.7,639.2c-1.4,0-2.7,0-4.1,0c-1.4,0.1-2.6,0.1-3.7,0.1c-0.3,0-0.6,0-1.1,0
		c-0.4,0-0.9,0-1.5,0.1c-0.5,0-1.1,0.1-1.7,0.1s-1.1,0.1-1.6,0.2l-1.8-3.5c0.9,0.2,2,0.4,3.3,0.6c1.2,0.2,2.5,0.3,3.7,0.3
		c1,0,2.3-0.1,4-0.2c1.7-0.1,3.5-0.3,5.3-0.6L323.7,639.2z M332.7,631.6c2,0.2,4,0.5,5.9,0.9c2,0.4,3.7,0.7,5.2,1
		c-0.2,0.7-0.3,1.5-0.4,2.4c-0.1,0.9-0.2,1.7-0.2,2.5v32.8c0,1.2,0,2.6-0.1,4.2c-0.1,1.6-0.1,3.1-0.2,4.7c-0.1,1.6-0.2,3-0.3,4.5
		s-0.3,2.6-0.4,3.5l-2.5,0.3c-0.1-0.7-0.1-1.5-0.2-2.5s-0.1-2.1-0.1-3.2c0-1.2-0.1-2.3-0.1-3.5c0-1.2,0-2.4,0-3.5v-37.1
		c0-1.3-0.6-2.4-1.8-3.2c-1.2-0.8-3-1.5-5.5-2.1L332.7,631.6z"/>
	<path class="st0" d="M416.7,664.3c-1.6-0.1-3.5-0.1-5.8-0.2c-2.3,0-4.8-0.1-7.4-0.1c-1.1,0-2.5,0-4.2,0c-1.7,0-3.6,0-5.6,0.1
		c-2,0-4.1,0.1-6.2,0.1s-4.1,0.1-6,0.2c-1.9,0.1-3.6,0.1-5.2,0.2s-2.7,0.1-3.5,0.1c-1.5,0.1-3,0.2-4.5,0.3c-1.5,0.1-3,0.3-4.4,0.5
		l-1.5-4.2c1.8,0.2,3.6,0.3,5.2,0.4c1.6,0.1,3.4,0.2,5.2,0.3c1,0,2.3,0.1,3.9,0.1c1.6,0,3.3,0,5.2,0c1.9,0,3.9-0.1,5.9-0.1
		c2.1-0.1,4-0.1,5.9-0.1c1.9,0,3.6-0.1,5.2-0.1s2.9-0.1,3.8-0.1c2.7-0.1,5.3-0.3,7.7-0.5c2.4-0.2,4.7-0.4,6.8-0.8L416.7,664.3z
		 M407.8,653.3c-2.5-0.1-5.1-0.1-7.8-0.1s-5.5,0-8.1,0.1c-2.7,0.1-5.2,0.1-7.6,0.2c-2.4,0.1-4.5,0.2-6.3,0.3
		c-1.1,0.1-1.8-0.3-2.3-1.1c-0.5-0.8-0.8-1.7-0.8-2.8v-8.5c0-0.9-0.1-1.6-0.2-2.2c-0.2-0.6-0.4-1.1-0.9-1.4c-0.4-0.4-1-0.7-1.8-0.9
		c-0.7-0.3-1.7-0.5-2.8-0.7l0.6-1.6c0.6,0.1,1.3,0.2,2.1,0.2c0.8,0.1,1.7,0.2,2.5,0.3c0.9,0.1,1.7,0.2,2.5,0.3
		c0.8,0.1,1.5,0.2,2.2,0.3c-0.1,0.5-0.1,1.1-0.2,2c-0.1,0.8-0.1,1.6-0.1,2.3v8.8c0,0.9,0.2,1.6,0.6,2c0.4,0.4,1.1,0.7,2.3,0.7
		c1.5,0,3.4,0,5.7-0.1c2.3-0.1,4.7-0.2,7.2-0.4c2.5-0.2,5-0.4,7.4-0.6c2.4-0.2,4.6-0.5,6.5-0.8L407.8,653.3z M409.4,685.8
		c-2.5-0.1-5.1-0.2-7.9-0.2c-2.8,0-5.5,0-8.3,0c-2.7,0-5.3,0.1-7.8,0.1c-2.5,0.1-4.6,0.2-6.3,0.3c-1.1,0.1-1.9-0.1-2.3-0.7
		s-0.7-1.2-0.7-2v-6.5c0-0.9,0-1.6-0.1-2.2c-0.1-0.6-0.3-1-0.7-1.4c-0.4-0.4-0.9-0.7-1.5-0.9c-0.7-0.3-1.6-0.5-2.8-0.8l0.6-1.5
		c0.6,0.1,1.3,0.2,2,0.3c0.8,0.1,1.5,0.2,2.3,0.3c0.8,0.1,1.6,0.2,2.3,0.3c0.8,0.1,1.5,0.2,2.1,0.3c-0.1,0.5-0.1,1.1-0.2,2
		c-0.1,0.8-0.1,1.6-0.1,2.4v6.1c0,0.9,0.2,1.4,0.6,1.7c0.4,0.3,1.2,0.4,2.3,0.4c1.5,0,3.4,0,5.8,0c2.4,0,4.9-0.1,7.4-0.2
		s5.1-0.3,7.6-0.5c2.5-0.2,4.6-0.4,6.3-0.7L409.4,685.8z"/>
	<path class="st0" d="M509.7,665c-1.6-0.1-3.5-0.1-5.8-0.2c-2.3,0-4.8-0.1-7.4-0.1c-1.1,0-2.5,0-4.2,0c-1.7,0-3.6,0.1-5.6,0.1
		c-2,0.1-4.1,0.1-6.2,0.2s-4.1,0.1-6,0.2c-1.9,0.1-3.6,0.1-5.2,0.2c-1.5,0.1-2.7,0.1-3.5,0.2c-1.5,0.1-3,0.2-4.5,0.3
		c-1.5,0.1-3,0.3-4.4,0.5l-1.5-4.2c1.8,0.2,3.6,0.4,5.2,0.5c1.6,0.1,3.4,0.2,5.2,0.3c1,0,2.3,0.1,3.9,0.1c1.6,0,3.3,0,5.2,0
		c1.9,0,3.9-0.1,5.9-0.1c2.1-0.1,4-0.1,5.9-0.2c1.9-0.1,3.6-0.1,5.2-0.2s2.9-0.1,3.8-0.1c2.7-0.1,5.3-0.3,7.7-0.5
		c2.4-0.2,4.7-0.4,6.8-0.8L509.7,665z M502.5,685.9c-2.5-0.1-5.1-0.2-7.9-0.2c-2.8,0-5.5,0-8.2,0c-2.7,0-5.3,0.1-7.7,0.1
		c-2.4,0.1-4.5,0.2-6.3,0.3c-1.1,0.1-1.9-0.1-2.3-0.7s-0.7-1.2-0.7-2v-5.9c0-0.9,0-1.7-0.1-2.3c-0.1-0.6-0.3-1-0.7-1.4
		c-0.4-0.4-0.9-0.7-1.5-0.9c-0.7-0.3-1.6-0.5-2.8-0.8l0.6-1.5c0.6,0.1,1.3,0.2,2,0.2c0.8,0.1,1.5,0.2,2.3,0.3
		c0.8,0.1,1.6,0.2,2.3,0.3c0.8,0.1,1.5,0.2,2.1,0.3c-0.1,0.5-0.1,1.2-0.2,2s-0.1,1.6-0.1,2.3v5.5c0,0.9,0.2,1.4,0.6,1.7
		c0.4,0.3,1.2,0.4,2.3,0.4c1.5,0,3.4,0,5.8,0c2.4,0,4.8-0.1,7.4-0.2s5.1-0.3,7.6-0.5c2.5-0.2,4.6-0.4,6.3-0.7L502.5,685.9z
		 M485.1,636c1.8,0.1,3.4,0.5,4.9,1.1c1.5,0.6,2.8,1.3,3.8,2.2c1.1,0.9,1.9,1.9,2.5,3.1c0.6,1.2,0.9,2.4,0.9,3.7
		c0,1.5-0.4,2.9-1.1,4.1c-0.7,1.3-1.7,2.3-2.9,3.3c-1.2,0.9-2.7,1.6-4.4,2.1c-1.7,0.5-3.5,0.8-5.5,0.8c-2,0-3.8-0.3-5.4-0.8
		c-1.7-0.5-3.1-1.2-4.3-2.1c-1.2-0.9-2.2-2-2.9-3.3c-0.7-1.2-1-2.6-1-4.1c0-1.4,0.3-2.7,0.9-3.9c0.6-1.2,1.5-2.3,2.6-3.2
		c1.1-0.9,2.5-1.6,4-2.2c1.5-0.6,3.2-0.9,5-1c-0.1-0.4-0.3-0.8-0.7-1.1c-0.4-0.3-1-0.6-1.9-0.9l0.5-1.1c1,0.2,1.9,0.4,2.8,0.5
		c0.9,0.1,1.9,0.3,2.9,0.5c-0.2,0.4-0.3,0.8-0.5,1.1C485.4,635.2,485.3,635.6,485.1,636z M492.9,645.8c0-1.1-0.2-2.1-0.7-3.1
		c-0.5-1-1.2-1.9-2-2.6c-0.8-0.7-1.8-1.3-3-1.8c-1.1-0.4-2.3-0.7-3.6-0.7c-1.3,0-2.6,0.2-3.7,0.7c-1.2,0.4-2.2,1-3,1.8
		c-0.9,0.7-1.5,1.6-2,2.6c-0.5,1-0.7,2-0.7,3.1c0,1.2,0.2,2.2,0.7,3.2c0.5,1,1.2,1.8,2,2.5c0.9,0.7,1.9,1.3,3,1.7
		c1.2,0.4,2.4,0.6,3.7,0.6c1.3,0,2.6-0.2,3.7-0.6c1.1-0.4,2.1-0.9,3-1.7c0.8-0.7,1.5-1.6,2-2.5C492.7,648.1,492.9,647,492.9,645.8z"
		/>
	<path class="st0" d="M552.6,649.2c-1.3,0-2.8,0-4.6,0c-1.8,0-3.6,0.1-5.4,0.1c-1.8,0.1-3.6,0.1-5.4,0.2c-1.7,0.1-3.2,0.1-4.4,0.2
		c-0.5,0-1,0.1-1.7,0.1c-0.7,0.1-1.3,0.1-2.1,0.2s-1.4,0.1-2.1,0.2c-0.7,0.1-1.3,0.2-1.7,0.2l-1.8-3.7c1.1,0.2,2.3,0.4,3.8,0.5
		s2.7,0.2,3.8,0.2c1.3,0,2.8,0,4.7-0.1s3.7-0.1,5.7-0.3c2-0.1,4-0.3,6.1-0.5c2-0.2,3.9-0.4,5.6-0.8L552.6,649.2z M550,667.2
		c-0.9,1.6-2.3,2.9-4.1,3.9c-1.8,1-3.9,1.4-6.2,1.4c-1.6,0-3.1-0.3-4.5-0.8c-1.4-0.5-2.6-1.2-3.7-2.1c-1-0.9-1.9-1.9-2.5-3
		c-0.6-1.2-0.9-2.4-0.9-3.7c0-1.4,0.3-2.8,0.9-3.9c0.6-1.2,1.4-2.2,2.5-3c1-0.9,2.3-1.5,3.7-2s2.9-0.7,4.5-0.7
		c1.7,0,3.2,0.3,4.7,0.8c1.4,0.5,2.6,1.2,3.7,2.1c1,0.9,1.8,1.9,2.4,3.1c0.6,1.2,0.8,2.4,0.8,3.7c0,1.2-0.3,2.3-0.8,3.5
		c0.5,0.1,1.2,0.1,1.9,0.2c0.7,0.1,1.4,0.1,2.1,0c0.5,0,1.1-0.1,1.6-0.1c0.5,0,1,0,1.5-0.1v-11c-1.2,0.1-2.4,0.2-3.7,0.4
		c-1.3,0.2-2.5,0.4-3.6,0.7l-1.5-3.3c0.4,0.1,1.1,0.2,2.1,0.3c1,0.1,1.9,0.1,2.8,0.1c0.8,0,1.5-0.1,2.2-0.1c0.7,0,1.2,0,1.8-0.1V641
		c0-1.3-0.4-2.3-1.3-3.1c-0.8-0.8-2.4-1.4-4.7-2l0.6-1.6c1.9,0.2,3.6,0.5,5.1,0.8c1.5,0.3,3,0.6,4.6,1c-0.2,0.7-0.3,1.5-0.4,2.4
		c-0.1,0.9-0.2,1.8-0.2,2.5v28.2c0,1.2,0,2.6-0.1,4.1s-0.1,3.1-0.2,4.6c-0.1,1.5-0.2,3-0.3,4.5s-0.3,2.6-0.4,3.6l-2.3,0.3
		c-0.1-0.7-0.1-1.6-0.2-2.6c0-1-0.1-2.1-0.1-3.2c0-1.1-0.1-2.3-0.1-3.5c0-1.2,0-2.4,0-3.5v-4.9c-1.1,0.1-2.2,0.2-3.4,0.4
		c-1.2,0.2-2.2,0.4-3.2,0.6L550,667.2z M545.9,641.8c-1.3,0-2.6,0-4,0c-1.3,0.1-2.5,0.1-3.5,0.1c-0.5,0-1.4,0-2.5,0.1
		c-1.1,0.1-2.2,0.2-3.2,0.3l-1.8-3.5c0.9,0.2,2,0.4,3.2,0.6c1.2,0.2,2.4,0.3,3.5,0.3c1,0,2.3-0.1,3.9-0.2c1.6-0.1,3.3-0.3,5.1-0.6
		L545.9,641.8z M532.4,662.8c0,1.1,0.2,2,0.6,3c0.4,0.9,0.9,1.7,1.5,2.4s1.4,1.3,2.3,1.7c0.9,0.4,1.9,0.6,2.9,0.6c1,0,2-0.2,2.9-0.6
		c0.9-0.4,1.7-0.9,2.3-1.6c0.7-0.7,1.2-1.5,1.6-2.5c0.4-0.9,0.6-1.9,0.6-3c0-1-0.2-1.9-0.5-2.8c-0.4-0.9-0.8-1.7-1.5-2.4
		s-1.4-1.3-2.3-1.7c-0.9-0.4-1.9-0.6-3-0.6c-2.1,0-3.9,0.7-5.2,2.1C533.1,658.8,532.4,660.6,532.4,662.8z M561.6,631.6
		c1.9,0.3,3.7,0.6,5.4,0.9c1.7,0.4,3.4,0.7,4.9,1c-0.2,0.7-0.3,1.5-0.4,2.4c-0.1,0.9-0.2,1.7-0.2,2.5v32.8c0,1.2,0,2.6-0.1,4.1
		s-0.1,3.1-0.2,4.6c-0.1,1.5-0.2,3-0.3,4.5c-0.1,1.4-0.3,2.6-0.4,3.6l-2.4,0.3c-0.1-0.7-0.1-1.6-0.2-2.6c0-1-0.1-2.1-0.1-3.2
		c-0.1-1.1-0.1-2.3-0.1-3.5c0-1.2,0-2.3,0-3.5v-37.1c0-1.3-0.5-2.3-1.4-3.1c-1-0.8-2.7-1.5-5.1-2.1L561.6,631.6z"/>
	<path class="st0" d="M605.3,641.1c1.6,0.2,3.1,0.5,4.5,1.1c1.4,0.6,2.5,1.4,3.5,2.3s1.8,2,2.3,3.2c0.5,1.2,0.8,2.5,0.8,3.9
		c0,1.5-0.3,2.9-1,4.2c-0.7,1.3-1.6,2.4-2.8,3.4c-1.2,1-2.5,1.7-4.1,2.2s-3.3,0.8-5.2,0.8s-3.6-0.3-5.2-0.8s-2.9-1.3-4.1-2.2
		c-1.2-1-2.1-2.1-2.7-3.4c-0.6-1.3-1-2.7-1-4.2c0-1.4,0.3-2.8,0.9-4.1c0.6-1.3,1.5-2.4,2.5-3.4c1.1-1,2.4-1.7,3.8-2.3
		c1.5-0.6,3.1-0.9,4.8-1c-0.1-0.5-0.3-0.9-0.7-1.2c-0.4-0.3-1-0.6-1.9-0.9l0.6-1.1c0.9,0.2,1.8,0.4,2.6,0.5c0.9,0.1,1.8,0.3,2.8,0.5
		c-0.2,0.4-0.3,0.7-0.4,1.1C605.5,640.2,605.3,640.6,605.3,641.1z M612.2,651.4c0-1.2-0.2-2.3-0.7-3.3c-0.4-1.1-1.1-2-1.8-2.7
		c-0.8-0.8-1.7-1.4-2.8-1.8c-1.1-0.4-2.2-0.7-3.5-0.7c-1.3,0-2.4,0.2-3.5,0.7c-1.1,0.4-2,1.1-2.8,1.8c-0.8,0.8-1.4,1.7-1.9,2.7
		c-0.4,1.1-0.7,2.2-0.7,3.3c0,1.3,0.2,2.4,0.7,3.4c0.4,1,1.1,1.9,1.9,2.7c0.8,0.8,1.7,1.3,2.8,1.8c1.1,0.4,2.2,0.6,3.5,0.6
		c1.2,0,2.4-0.2,3.5-0.6c1.1-0.4,2-1,2.8-1.8c0.8-0.8,1.4-1.6,1.8-2.7C612,653.8,612.2,652.6,612.2,651.4z M634.6,685.7
		c-2.5,0-4.9-0.1-7.4-0.1c-2.4,0-4.8,0-7.1,0.1c-2.3,0-4.5,0.1-6.6,0.2c-2.1,0.1-4,0.2-5.8,0.3c-1.1,0.1-1.9-0.1-2.4-0.7
		c-0.5-0.5-0.7-1.2-0.7-2v-7.2c0-0.9,0-1.6-0.1-2.2c-0.1-0.6-0.3-1-0.7-1.4c-0.4-0.4-0.9-0.7-1.5-0.9c-0.7-0.3-1.6-0.5-2.8-0.8
		l0.7-1.5c0.6,0.1,1.2,0.2,2,0.3c0.7,0.1,1.5,0.2,2.3,0.3c0.8,0.1,1.6,0.2,2.3,0.3c0.8,0.1,1.5,0.2,2.1,0.3c-0.1,0.5-0.1,1.1-0.2,2
		c-0.1,0.8-0.1,1.6-0.1,2.3v6.9c0,0.9,0.2,1.4,0.6,1.7c0.4,0.3,1.2,0.4,2.3,0.4c1.5,0,3.2,0,5.3-0.1c2-0.1,4.1-0.2,6.3-0.4
		c2.2-0.2,4.3-0.3,6.5-0.6c2.1-0.2,4.1-0.5,5.8-0.7L634.6,685.7z M630.9,662.8c0,0.9,0,1.8-0.1,2.8s-0.1,2-0.2,3
		c-0.1,1-0.2,1.9-0.3,2.8c-0.1,0.9-0.3,1.7-0.4,2.3l-2.6,0.4c-0.1-0.5-0.1-1.2-0.2-1.9c0-0.8-0.1-1.6-0.1-2.5c0-0.9-0.1-1.8-0.1-2.7
		c0-0.9,0-1.7,0-2.4v-26.2c0-1.3-0.6-2.4-1.8-3.2c-1.2-0.8-3-1.5-5.5-2.1l0.7-1.6c2,0.2,3.9,0.5,5.9,0.9c2,0.4,3.8,0.7,5.3,1
		c-0.2,0.7-0.3,1.5-0.4,2.4c-0.1,0.9-0.2,1.7-0.2,2.5v12.8c1.6-0.1,3.4-0.2,5.4-0.4c2-0.2,4.1-0.5,6.2-0.8l-0.5,3.6
		c-0.8,0-1.7-0.1-2.7-0.1c-1,0-1.9,0-2.9,0s-2,0-2.9,0c-0.9,0-1.8,0-2.6,0V662.8z"/>
	<path class="st0" d="M671.2,645.5c1.3,0.2,2.6,0.5,3.7,0.9c1.2,0.5,2.2,1.1,3.1,1.8c0.9,0.8,1.7,1.6,2.3,2.6c0.6,1,1,2,1.2,3.2
		c0.5,0,1,0.1,1.5,0.1c0.5,0,1,0,1.6,0c1,0,1.8-0.1,2.4-0.1c0.6,0,1.1,0,1.6-0.1V641c0-1.3-0.4-2.3-1.2-3.1s-2.4-1.4-4.7-2l0.6-1.6
		c2,0.2,3.7,0.5,5.2,0.8c1.5,0.3,3,0.6,4.5,1c-0.2,0.7-0.3,1.5-0.4,2.4c-0.1,0.9-0.2,1.8-0.2,2.5v28.2c0,1.2,0,2.6-0.1,4.1
		s-0.1,3.1-0.2,4.6c-0.1,1.5-0.2,3-0.3,4.5s-0.3,2.6-0.4,3.6l-2.3,0.3c-0.1-0.7-0.1-1.6-0.2-2.6c0-1-0.1-2.1-0.1-3.2
		s-0.1-2.3-0.1-3.5c0-1.2,0-2.4,0-3.5V656c-2.4,0.1-4.7,0.4-6.9,0.9c-0.1,1.4-0.5,2.7-1.2,3.9c-0.7,1.2-1.6,2.2-2.6,3.1
		c-1.1,0.9-2.3,1.5-3.8,2c-1.4,0.5-3,0.7-4.6,0.7c-1.8,0-3.4-0.3-4.9-0.8c-1.5-0.5-2.8-1.3-3.9-2.2c-1.1-0.9-2-2.1-2.6-3.4
		c-0.6-1.3-0.9-2.7-0.9-4.2c0-1.4,0.3-2.8,0.9-4.1c0.6-1.3,1.4-2.4,2.4-3.3c1-0.9,2.2-1.7,3.7-2.3c1.4-0.6,3-0.9,4.6-1
		c-0.1-0.5-0.3-1-0.6-1.3c-0.3-0.3-0.9-0.7-1.8-1l0.6-1.2c0.9,0.2,1.7,0.4,2.6,0.5c0.9,0.1,1.8,0.3,2.7,0.6
		c-0.2,0.4-0.3,0.8-0.4,1.2C671.4,644.6,671.3,645,671.2,645.5z M678,655.8c0-1.2-0.2-2.3-0.6-3.4c-0.4-1-1-1.9-1.8-2.7
		c-0.7-0.8-1.6-1.4-2.7-1.8c-1.1-0.4-2.2-0.7-3.4-0.7c-1.2,0-2.3,0.2-3.4,0.7c-1.1,0.4-2,1.1-2.7,1.8s-1.4,1.7-1.8,2.7
		c-0.4,1-0.6,2.2-0.6,3.4c0,1.2,0.2,2.3,0.6,3.3c0.4,1,1,1.9,1.8,2.6c0.8,0.7,1.7,1.3,2.7,1.8c1.1,0.4,2.2,0.6,3.4,0.6
		c1.2,0,2.3-0.2,3.4-0.6c1.1-0.4,2-1,2.7-1.8c0.7-0.7,1.3-1.6,1.8-2.6C677.7,658.2,678,657,678,655.8z M692.8,631.6
		c2,0.3,3.8,0.6,5.5,0.9c1.7,0.4,3.3,0.7,4.9,1c-0.2,0.7-0.3,1.5-0.4,2.4c-0.1,0.9-0.2,1.7-0.2,2.5v32.8c0,1.2,0,2.6-0.1,4.1
		s-0.1,3.1-0.2,4.6c-0.1,1.5-0.2,3-0.3,4.5c-0.1,1.4-0.3,2.6-0.4,3.6l-2.4,0.3c-0.1-0.7-0.1-1.6-0.2-2.6c0-1-0.1-2.1-0.1-3.2
		c-0.1-1.1-0.1-2.3-0.1-3.5c0-1.2,0-2.3,0-3.5v-37.1c0-1.3-0.5-2.3-1.4-3.1c-1-0.8-2.7-1.5-5.1-2.1L692.8,631.6z"/>
	<path class="st0" d="M739.5,653.8c2.1,2.2,4.4,4.4,6.8,6.6c2.4,2.2,5.1,4.4,8,6.5l-3.4,3.3c-2.1-2.5-4.2-4.9-6.2-7.3
		c-2-2.4-4.1-4.9-6.4-7.4c-2.1,3.1-4.5,6-7.1,8.7c-2.7,2.7-5.6,5.2-8.9,7.4l-1.2-1.2c2.3-1.8,4.5-3.8,6.4-5.9c2-2.1,3.7-4.3,5.2-6.6
		c1.5-2.3,2.8-4.6,3.9-7c1.1-2.4,1.9-4.7,2.5-7.1c0.2-0.5,0.3-1,0.3-1.3s-0.2-0.6-0.7-0.9c-0.4-0.2-0.8-0.5-1.4-0.9
		s-1.3-0.7-2.2-1.2l0.9-1.2c1.6,0.4,3.1,0.8,4.6,1.2c1.5,0.4,3,0.9,4.5,1.5c-0.7,2.2-1.6,4.4-2.6,6.5
		C741.8,649.7,740.7,651.8,739.5,653.8z M762.5,654.2c-1.3,0-2.6,0.1-3.9,0.2c-1.3,0.1-2.6,0.2-3.8,0.2c-1.2,0.1-2.3,0.2-3.4,0.3
		c-1.1,0.1-2,0.3-2.8,0.4l-1.5-3.4c0.8,0.2,1.8,0.3,3.1,0.4c1.3,0.1,2.5,0.1,3.7,0.1c0.5,0,1.2,0,1.9,0c0.7,0,1.5,0,2.3,0
		c0.8,0,1.6,0,2.3,0c0.8,0,1.5,0,2.1-0.1v-13.8c0-1.3-0.6-2.4-1.8-3.2c-1.2-0.8-3-1.5-5.5-2.1l0.6-1.6c2,0.2,4,0.5,5.9,0.9
		c2,0.4,3.7,0.7,5.3,1c-0.2,0.7-0.4,1.5-0.5,2.4c-0.1,0.9-0.2,1.7-0.2,2.5v32.8c0,1.2,0,2.6-0.1,4.2c-0.1,1.6-0.1,3.1-0.2,4.7
		c-0.1,1.6-0.2,3-0.3,4.5s-0.3,2.6-0.4,3.5l-2.5,0.3c-0.1-0.7-0.1-1.5-0.2-2.5s-0.1-2.1-0.1-3.2c0-1.2-0.1-2.3-0.1-3.5
		c0-1.2,0-2.4,0-3.5V654.2z"/>
</g>
<g>
	<path class="st0" d="M38.7,775.4c3.2,2.9,6.4,5.8,9.7,8.6c3.3,2.8,7.4,5.6,12.1,8.5l-5.5,4.9c-1.7-1.8-3.3-3.5-4.8-5.1
		c-1.5-1.6-3-3.2-4.4-4.7c-1.5-1.5-3-3.1-4.5-4.7s-3.1-3.3-4.8-5c-4.2,4.8-8.7,9.1-13.5,12.9c-4.8,3.8-9.8,7-14.9,9.6l-1.9-1.8
		c4.4-2.7,8.6-5.8,12.7-9.3c4-3.5,7.7-7.2,11.1-11.2c3.3-4,6.2-8.1,8.7-12.5s4.4-8.7,5.7-13.1c-0.9,0-2.2,0-3.7,0.1
		c-1.5,0.1-3.1,0.1-4.8,0.2c-1.6,0.1-3.2,0.1-4.8,0.2c-1.5,0.1-2.8,0.1-3.6,0.1c-0.7,0-1.6,0-2.7,0.1c-1.1,0.1-2.3,0.2-3.5,0.3
		c-1.2,0.1-2.5,0.3-3.7,0.4c-1.3,0.2-2.4,0.3-3.5,0.5l-3.6-5.9c0.8,0.1,1.7,0.3,2.7,0.4c1.1,0.1,2.2,0.2,3.4,0.3
		c1.2,0.1,2.3,0.2,3.5,0.2c1.2,0,2.3,0,3.4,0c2.3,0,4.8,0,7.3-0.1c2.6-0.1,5.1-0.2,7.6-0.4c2.5-0.2,4.9-0.4,7.1-0.7
		c2.2-0.3,4.2-0.6,6-1l2.2,2c-1.6,4.7-3.7,9.3-6.2,13.6C44.8,767.4,42,771.5,38.7,775.4z M72,773.7c-7.6,0.3-13.9,0.9-19.1,1.9
		l-2.6-5.7c1.3,0.3,2.9,0.5,5,0.7c2.1,0.1,4.1,0.2,6,0.1c1.6-0.1,3.4-0.1,5.3-0.1c1.9,0,3.7,0,5.3-0.1v-27.1c0-2.1-1-3.8-2.9-5.1
		c-1.9-1.3-4.9-2.4-8.9-3.4l1-2.6c3.2,0.4,6.4,0.9,9.6,1.5c3.2,0.6,6,1.2,8.6,1.7c-0.3,1.1-0.5,2.4-0.7,3.9
		c-0.2,1.5-0.3,2.8-0.3,4.1v53c0,2,0,4.2-0.1,6.7c-0.1,2.5-0.2,5-0.3,7.6c-0.1,2.5-0.3,4.9-0.5,7.2s-0.4,4.1-0.7,5.6l-4,0.5
		c-0.1-1.1-0.2-2.4-0.3-4s-0.2-3.3-0.2-5.2c-0.1-1.9-0.1-3.8-0.1-5.7c0-2,0-3.8,0-5.7V773.7z"/>
	<path class="st0" d="M179.8,794.8c-4.1,0.9-8.3,1.7-12.6,2.5c-4.3,0.8-8.6,1.5-12.8,2.2c-4.2,0.7-8.3,1.2-12.2,1.7
		c-3.9,0.5-7.6,0.8-10.8,1.1c-0.7,0.1-1.6,0.1-2.8,0.2c-1.2,0.1-2.4,0.2-3.7,0.4c-1.3,0.2-2.6,0.3-4,0.4c-1.3,0.1-2.5,0.3-3.6,0.5
		l-3.7-6.1c2.1,0.3,4.4,0.6,6.8,0.8c2.5,0.2,4.7,0.3,6.8,0.1c4.7-0.2,9.4-0.5,14.1-0.8c4.7-0.4,9.2-0.9,13.7-1.4
		c4.5-0.6,8.8-1.2,13-1.9c4.2-0.7,8.1-1.5,11.9-2.4v-48.6c0-2.1-1-3.8-2.9-5.1c-1.9-1.3-4.9-2.4-8.9-3.4l1-2.6
		c3.2,0.4,6.4,0.9,9.6,1.5c3.2,0.6,6.1,1.2,8.5,1.7c-0.3,1.1-0.5,2.4-0.7,3.9c-0.2,1.5-0.3,2.8-0.3,4.1v53c0,2,0,4.2-0.1,6.7
		c-0.1,2.5-0.2,5-0.3,7.6c-0.1,2.5-0.3,4.9-0.5,7.2c-0.2,2.3-0.5,4.1-0.7,5.6l-4,0.5c-0.1-1.1-0.2-2.4-0.3-4s-0.2-3.3-0.2-5.2
		c-0.1-1.9-0.1-3.8-0.1-5.7c0-2,0-3.8,0-5.7V794.8z M170.9,754c-1.5,0-3.2,0-5.3,0s-4.3,0-6.7,0.1c-2.4,0.1-4.9,0.1-7.4,0.2
		c-2.6,0.1-5,0.1-7.3,0.2c-2.3,0.1-4.5,0.2-6.6,0.2c-2,0.1-3.7,0.1-5.1,0.2c-0.8,0.1-1.7,0.1-2.8,0.2c-1.1,0.1-2.3,0.1-3.5,0.2
		c-1.2,0.1-2.4,0.2-3.5,0.3c-1.1,0.1-2.1,0.3-2.8,0.4l-2.8-5.9c1.8,0.3,3.9,0.6,6.3,0.8c2.4,0.2,4.6,0.3,6.4,0.3
		c1.5,0,3.2,0,5.3-0.1c2.1-0.1,4.4-0.1,6.9-0.2c2.5-0.1,5.1-0.2,7.8-0.3c2.7-0.1,5.4-0.3,8-0.5c2.6-0.2,5.1-0.4,7.6-0.7
		c2.4-0.3,4.6-0.6,6.6-0.9L170.9,754z M164.6,774.4c0,2.1-0.5,4-1.5,5.8c-1,1.8-2.4,3.3-4.1,4.6c-1.7,1.3-3.8,2.4-6.1,3.1
		c-2.3,0.8-4.8,1.1-7.5,1.1s-5.1-0.4-7.5-1.2c-2.3-0.8-4.4-1.8-6.1-3.2c-1.7-1.3-3.1-2.9-4.1-4.6c-1-1.8-1.5-3.7-1.5-5.7
		c0-2.1,0.5-4.1,1.5-5.9c1-1.8,2.4-3.3,4.1-4.6c1.7-1.3,3.8-2.3,6.1-3c2.3-0.7,4.8-1.1,7.5-1.1c2.8,0,5.4,0.4,7.8,1.2
		c2.3,0.8,4.4,1.9,6.1,3.2c1.7,1.4,3,2.9,4,4.7C164.2,770.6,164.6,772.5,164.6,774.4z M156.7,743.9c-2.2-0.1-4.5,0-7,0
		c-2.4,0.1-4.5,0.1-6.2,0.1c-0.4,0-1,0-1.8,0c-0.7,0-1.5,0.1-2.4,0.1c-0.9,0-1.8,0.1-2.7,0.2c-0.9,0.1-1.8,0.2-2.6,0.3l-2.8-5.6
		c1.5,0.3,3.3,0.6,5.2,0.9c2,0.3,4,0.5,5.9,0.5c1.6,0,3.8-0.1,6.7-0.3c2.9-0.2,5.9-0.5,8.9-0.9L156.7,743.9z M133.1,774
		c0,1.5,0.3,2.9,0.9,4.2c0.6,1.4,1.5,2.6,2.6,3.6c1.1,1,2.4,1.9,3.9,2.5c1.5,0.6,3.2,0.9,4.9,0.9c1.7,0,3.3-0.3,4.8-0.9
		c1.5-0.6,2.8-1.4,3.9-2.4c1.1-1,2-2.2,2.6-3.5c0.6-1.4,0.9-2.8,0.9-4.3c0-1.5-0.3-2.8-0.9-4.2c-0.6-1.3-1.5-2.5-2.6-3.5
		c-1.1-1-2.4-1.9-3.9-2.5c-1.5-0.6-3.1-0.9-4.9-0.9c-1.8,0-3.4,0.3-4.9,0.9c-1.5,0.6-2.8,1.4-3.9,2.4c-1.1,1-2,2.2-2.6,3.5
		C133.5,771,133.1,772.5,133.1,774z"/>
	<path class="st0" d="M303.7,755.5c-2.3,3.5-5,6.9-8,10.2c-3,3.3-6.2,6.3-9.6,9.1c-3.4,2.8-6.9,5.3-10.6,7.6
		c-3.7,2.2-7.3,4.1-10.9,5.5l-1.8-2c4-1.9,7.9-4.2,11.7-6.9c3.8-2.7,7.4-5.7,10.7-9c3.3-3.3,6.3-6.9,9-10.7
		c2.6-3.8,4.8-7.7,6.3-11.7c-1.4,0-2.9,0-4.6,0c-1.7,0-3.3,0.1-4.9,0.1c-1.6,0.1-3.1,0.1-4.4,0.2c-1.3,0.1-2.3,0.1-2.9,0.2
		c-0.6,0.1-1.5,0.1-2.6,0.2c-1.1,0.1-2.3,0.2-3.5,0.3c-1.2,0.1-2.5,0.3-3.7,0.4c-1.3,0.2-2.4,0.3-3.3,0.5l-3.7-6
		c0.7,0.1,1.6,0.2,2.7,0.3c1.1,0.1,2.3,0.2,3.5,0.3c1.2,0.1,2.5,0.2,3.7,0.2c1.2,0.1,2.4,0.1,3.5,0.1c2.6,0,5.4-0.1,8.1-0.2
		c2.8-0.1,5.4-0.3,7.9-0.5c2.5-0.2,4.7-0.4,6.6-0.7c2-0.3,3.5-0.6,4.5-0.9l2.4,1.5c-0.6,1.6-1.3,3.2-2.1,4.8
		c-0.8,1.6-1.7,3.1-2.7,4.6c1.3,0.1,2.6,0.2,4.1,0.3c1.5,0.1,2.9,0.1,4.3,0c2.3-0.1,4.8-0.1,7.3-0.2c2.5-0.1,4.9-0.2,7.1-0.4v-9.6
		c0-2.1-1-3.8-2.9-5.1c-1.9-1.3-4.9-2.4-8.9-3.4l1-2.6c3.2,0.4,6.4,0.9,9.6,1.5c3.2,0.6,6,1.2,8.5,1.7c-0.3,1.1-0.5,2.4-0.7,3.9
		c-0.2,1.5-0.3,2.8-0.3,4.1v21.8c0,1.1,0,2.4-0.1,3.9c-0.1,1.5-0.2,3-0.4,4.4c-0.2,1.5-0.3,2.9-0.5,4.2c-0.2,1.3-0.3,2.4-0.5,3.2
		l-4.2,0.6c-0.1-1.1-0.3-2.5-0.4-4.2c-0.1-1.7-0.2-3.3-0.3-4.9c-4.1,0.1-8.4,0.3-13,0.6c-4.5,0.3-8.7,0.7-12.4,1.2l-2.5-5.5
		c0.6,0.1,1.4,0.2,2.2,0.3c0.9,0.1,1.8,0.2,2.7,0.2c1,0.1,2,0.1,3,0.1c1,0,2,0,2.9,0c1.2,0,2.5,0,4,0c1.5,0,3-0.1,4.5-0.1
		c1.5-0.1,3-0.1,4.5-0.1c1.5,0,2.8-0.1,3.9-0.2v-12.2c-4,0.1-8,0.3-11.8,0.5c-3.8,0.2-7.5,0.6-11,1.3L303.7,755.5z M326.3,788.5
		c-1.6-0.1-3.5-0.1-5.8-0.1c-2.3,0-4.7,0-7.1,0.1c-2.5,0.1-4.9,0.1-7.2,0.2c-2.3,0.1-4.3,0.2-6,0.3c-0.7,0.1-1.6,0.1-2.6,0.2
		c-1,0.1-2.2,0.1-3.4,0.2c-1.2,0.1-2.4,0.2-3.7,0.4c-1.3,0.2-2.5,0.4-3.7,0.6l-3.2-5.9c1.4,0.3,3.4,0.6,5.9,0.8
		c2.5,0.2,4.7,0.3,6.7,0.3c2.5,0,5.2,0,8.3,0s6.3,0,9.6-0.1c3.3-0.1,6.7-0.2,10.2-0.4c3.4-0.2,6.7-0.4,9.8-0.6
		c-0.2,0.6-0.4,1.5-0.6,2.6c-0.2,1.2-0.4,2.4-0.6,3.6l-1.4,9.1c0.5-0.1,1-0.1,1.4-0.1c0.4,0,0.8-0.1,1.2-0.1l-0.5,4.5
		c-3.7-0.2-7.4-0.3-11.2-0.3c-3.8,0-7.5,0-10.9,0.1c-3.5,0.1-6.6,0.2-9.5,0.3c-2.8,0.1-5,0.2-6.6,0.3c-0.1,0.5-0.1,1.1-0.1,1.8
		c0,0.7,0,1.3,0,1.8v6.4c0,1.1,0.2,1.8,0.7,2.1c0.5,0.3,1.5,0.6,3.2,0.6c2.3,0.1,5.2,0.1,8.6,0c3.4-0.1,6.9-0.2,10.6-0.4
		c3.7-0.2,7.3-0.5,10.8-0.8c3.5-0.3,6.7-0.7,9.4-1.1L337,821c-3.5-0.1-7.2-0.2-11.1-0.2c-3.9,0-7.7,0-11.6,0
		c-3.8,0.1-7.6,0.2-11.2,0.3c-3.6,0.1-6.8,0.3-9.7,0.4c-1.6,0.1-2.8-0.3-3.5-1.2c-0.7-0.9-1.1-2.1-1.1-3.5V810c0-1.2-0.1-2.2-0.2-3
		c-0.2-0.8-0.5-1.4-0.9-2c-0.5-0.5-1.2-1-2-1.4c-0.9-0.4-2.1-0.8-3.6-1.3l1-2.1c3.4,0.4,7,0.6,10.7,0.8c3.8,0.1,7.5,0.2,11.3,0.1
		c3.8,0,7.4-0.1,11-0.3c3.6-0.2,6.9-0.3,10-0.5L326.3,788.5z"/>
	<path class="st0" d="M413,789.2c3.7-0.1,7-0.2,10.1-0.3c3.1-0.1,5.5-0.2,7.3-0.3c4.4-0.2,8.5-0.4,12.4-0.8c3.9-0.3,7.6-0.7,11-1.2
		l-0.9,6.1c-2.5-0.1-5.6-0.2-9.3-0.3c-3.7-0.1-7.7-0.1-12-0.2c-1.8,0-4,0-6.8,0c-2.8,0-5.8,0.1-9,0.1c-3.2,0.1-6.6,0.1-10,0.2
		c-3.4,0.1-6.7,0.2-9.7,0.3c-3.1,0.1-5.9,0.2-8.3,0.3c-2.5,0.1-4.3,0.2-5.6,0.2c-2.5,0.1-4.9,0.3-7.3,0.5c-2.4,0.2-4.8,0.5-7.1,0.8
		l-2.5-6.6c3,0.3,5.8,0.6,8.4,0.7c2.6,0.2,5.5,0.3,8.4,0.4c1.2,0.1,2.7,0.1,4.5,0.1c1.8,0,3.8,0,6,0c2.2,0,4.5,0,7,0
		c2.5,0,4.9-0.1,7.4-0.1v-7.8c-2.4-0.3-4.6-0.8-6.7-1.6c-2.1-0.8-3.9-1.9-5.4-3.1c-1.5-1.3-2.7-2.7-3.5-4.3
		c-0.9-1.6-1.3-3.3-1.3-5.1c0-2.1,0.5-4.1,1.6-5.8c1-1.7,2.4-3.2,4.2-4.5c1.8-1.3,3.8-2.2,6.2-2.9c2.4-0.7,4.9-1,7.7-1
		c2.9,0,5.6,0.4,8,1.2c2.4,0.8,4.5,1.8,6.3,3.2c1.8,1.3,3.1,2.8,4.1,4.5c0.9,1.7,1.4,3.5,1.4,5.4c0,1.8-0.4,3.4-1.2,5
		c-0.8,1.6-2,3-3.4,4.3c-1.5,1.3-3.2,2.3-5.2,3.2c-2,0.9-4.2,1.4-6.6,1.7V789.2z M440.8,748.7c-1.7-0.1-3.9-0.1-6.7-0.1
		c-2.7,0-5.7,0-8.9,0c-3.2,0.1-6.5,0.1-9.9,0.2s-6.6,0.2-9.6,0.3c-3,0.1-5.7,0.2-8.1,0.3c-2.4,0.1-4.2,0.2-5.3,0.2
		c-0.8,0-1.8,0-3,0.1c-1.2,0.1-2.4,0.2-3.6,0.3c-1.3,0.1-2.5,0.2-3.7,0.3c-1.2,0.1-2.2,0.3-3,0.4l-2.6-5.8c0.9,0.2,2,0.3,3.3,0.5
		c1.2,0.1,2.5,0.2,3.7,0.3c1.3,0.1,2.5,0.2,3.8,0.2c1.3,0.1,2.4,0.1,3.3,0.1c1.5,0,3.5,0,6-0.1c2.5-0.1,5.2-0.1,8.2-0.2
		c3-0.1,6.2-0.2,9.6-0.4c3.4-0.2,6.7-0.3,10.1-0.6c3.3-0.2,6.6-0.5,9.7-0.7c3.1-0.3,6-0.5,8.6-0.9L440.8,748.7z M441.1,820.1
		c-4-0.2-8.2-0.3-12.7-0.4c-4.5-0.1-8.9-0.1-13.3,0c-4.4,0-8.5,0.1-12.5,0.2c-3.9,0.1-7.3,0.3-10.2,0.5c-1.8,0.1-3-0.2-3.8-1.1
		s-1.1-1.9-1.1-3.2v-6.2c0-1.4-0.1-2.6-0.2-3.5c-0.2-0.9-0.5-1.7-1.1-2.3c-0.6-0.6-1.4-1.1-2.5-1.5c-1.1-0.4-2.6-0.9-4.4-1.4l1-2.4
		c0.9,0.1,2,0.3,3.3,0.4c1.2,0.1,2.5,0.3,3.7,0.4c1.3,0.2,2.5,0.3,3.8,0.5c1.3,0.2,2.4,0.3,3.3,0.4c-0.1,0.8-0.2,1.8-0.3,3.2
		c-0.1,1.4-0.1,2.6-0.1,3.8v5.6c0,1.4,0.3,2.3,0.9,2.7c0.6,0.4,1.9,0.6,3.7,0.7c2.4,0.1,5.5,0.1,9.3,0c3.8-0.1,7.8-0.2,12-0.4
		c4.2-0.2,8.2-0.4,12.2-0.8c4-0.3,7.3-0.7,10.1-1.1L441.1,820.1z M422.4,739.5c-1.1,0-2.3,0-3.8,0c-1.5,0-2.9,0-4.4,0.1
		c-1.5,0.1-2.9,0.1-4.2,0.1c-1.3,0-2.4,0-3.2,0c-0.4,0-1.1,0-1.9,0c-0.8,0-1.7,0-2.6,0.1c-0.9,0.1-1.9,0.1-2.9,0.2
		c-1,0.1-1.9,0.2-2.7,0.3l-2.7-5.5c1.5,0.3,3.3,0.6,5.5,0.9s4.3,0.4,6.1,0.4c0.8,0,1.8,0,3.3-0.1c1.4-0.1,3-0.1,4.7-0.2
		c1.7-0.1,3.4-0.2,5.2-0.4c1.8-0.2,3.4-0.3,4.9-0.5L422.4,739.5z M397.1,767.3c0,1.4,0.3,2.7,1,4c0.7,1.3,1.6,2.4,2.7,3.4
		c1.1,1,2.5,1.7,4,2.3c1.5,0.6,3.2,0.9,5,0.9c1.8,0,3.4-0.3,4.9-0.8c1.5-0.5,2.8-1.3,4-2.2s2-2.1,2.7-3.4c0.7-1.3,1-2.7,1-4.1
		c0-1.5-0.3-2.8-0.9-4.2c-0.6-1.3-1.5-2.5-2.6-3.5c-1.1-1-2.4-1.8-4-2.4c-1.5-0.6-3.3-0.9-5.2-0.9c-1.8,0-3.4,0.3-5,0.8
		c-1.5,0.5-2.9,1.2-4,2.2c-1.1,0.9-2,2.1-2.7,3.5C397.5,764.2,397.1,765.7,397.1,767.3z"/>
	<path class="st0" d="M527.2,752.6c-1.5,0-3.2,0-5.3,0s-4.3,0-6.7,0.1c-2.4,0.1-4.9,0.1-7.4,0.2c-2.5,0.1-5,0.1-7.3,0.2
		c-2.4,0.1-4.6,0.1-6.6,0.2c-2,0.1-3.7,0.1-5,0.2c-0.8,0.1-1.7,0.1-2.8,0.2c-1.1,0.1-2.3,0.2-3.5,0.3c-1.2,0.1-2.4,0.2-3.5,0.3
		c-1.1,0.1-2.1,0.3-2.8,0.4l-2.9-5.9c1.8,0.3,3.9,0.6,6.3,0.8c2.4,0.2,4.5,0.3,6.3,0.3c1.4,0,3.2,0,5.3-0.1c2.1-0.1,4.4-0.1,6.9-0.2
		c2.5-0.1,5.1-0.2,7.8-0.3c2.7-0.1,5.4-0.3,8-0.5c2.6-0.2,5.2-0.4,7.6-0.7c2.4-0.3,4.6-0.5,6.5-0.9L527.2,752.6z M520.3,771.8
		c0,2-0.5,3.9-1.5,5.7c-1,1.8-2.3,3.3-4,4.6c-1.7,1.3-3.7,2.3-6,3.1c-2.3,0.8-4.8,1.1-7.4,1.1c-2.6,0-5-0.4-7.3-1.1
		c-2.3-0.8-4.3-1.8-6-3.1c-1.7-1.3-3-2.9-4-4.6c-1-1.8-1.5-3.6-1.5-5.6c0-2.1,0.5-4.1,1.5-5.9c1-1.8,2.3-3.3,4-4.6
		c1.7-1.3,3.7-2.3,6-3c2.3-0.7,4.7-1.1,7.3-1.1c2.8,0,5.3,0.4,7.7,1.2c2.3,0.8,4.3,1.9,6,3.2c1.7,1.4,3,2.9,3.9,4.7
		C519.9,767.9,520.3,769.8,520.3,771.8z M513.1,742.5c-2.2-0.1-4.5,0-7,0c-2.5,0.1-4.5,0.1-6.2,0.1c-0.4,0-1,0-1.8,0
		c-0.7,0-1.5,0.1-2.4,0.1c-0.9,0-1.8,0.1-2.7,0.2c-0.9,0.1-1.8,0.2-2.6,0.3l-2.8-5.7c1.5,0.4,3.3,0.7,5.2,1c2,0.3,4,0.5,5.9,0.5
		c1.6,0,3.8-0.1,6.8-0.3c2.9-0.2,5.9-0.6,8.8-1L513.1,742.5z M489.6,771.3c0,1.5,0.3,3,0.9,4.4c0.6,1.4,1.4,2.6,2.5,3.6
		s2.3,1.9,3.8,2.5c1.4,0.6,3,0.9,4.7,0.9c1.7,0,3.3-0.3,4.7-0.9c1.5-0.6,2.7-1.4,3.8-2.5c1.1-1,1.9-2.3,2.5-3.6
		c0.6-1.4,0.9-2.9,0.9-4.4c0-1.5-0.3-2.9-0.9-4.3c-0.6-1.4-1.4-2.6-2.4-3.6c-1-1-2.3-1.9-3.8-2.5c-1.5-0.6-3.1-0.9-4.9-0.9
		c-1.7,0-3.3,0.3-4.7,0.9c-1.5,0.6-2.7,1.3-3.8,2.3c-1.1,1-1.9,2.2-2.5,3.5C489.9,768.1,489.6,769.6,489.6,771.3z M536.3,818.2
		c-4.8-0.2-9.7-0.2-14.8,0c-5.1,0.2-10.6,0.4-16.5,0.8c-0.1,0.6-0.2,1.2-0.3,1.8c-0.1,0.6-0.2,1.1-0.3,1.6l-3.9,0.7
		c-0.3-1.3-0.4-2.7-0.6-4.3c-0.1-1.6-0.2-3.3-0.2-5.1v-14.1c0-1.1-0.1-2-0.3-2.8c-0.2-0.8-0.6-1.5-1.1-2c-0.6-0.6-1.3-1-2.3-1.4
		c-1-0.4-2.3-0.8-3.8-1.1l0.9-2.4c2.1,0.2,4.4,0.4,6.6,0.8c2.3,0.3,4.6,0.7,7.1,1.2c-0.3,1.1-0.5,2.4-0.7,3.6
		c-0.2,1.3-0.3,2.6-0.3,3.8v0.7c5-0.1,10-0.2,14.9-0.3c4.9-0.2,10-0.5,15.3-1v-2.1c0-1.1-0.1-2-0.4-2.7c-0.3-0.8-0.7-1.4-1.4-2
		c-0.7-0.6-1.5-1.1-2.6-1.5c-1.1-0.4-2.5-0.8-4.2-1.3l1-2.4c2.6,0.3,5.2,0.6,7.5,0.9c2.4,0.3,4.8,0.7,7.2,1.2
		c-0.3,1.2-0.5,2.4-0.7,3.7c-0.2,1.3-0.3,2.5-0.3,3.8v12c0,2.3-0.2,4.6-0.5,7.1c-0.3,2.5-0.7,4.4-1,6l-4,0.6
		c-0.1-0.5-0.2-1.1-0.2-1.7C536.5,819.6,536.4,818.9,536.3,818.2z M536,812.4V803c-5-0.2-9.9-0.2-14.8-0.1c-4.9,0.1-10,0.3-15.4,0.7
		v6c0,0.9,0,1.9-0.1,2.9c-0.1,1-0.2,2-0.4,3c5.1-0.1,10.2-0.2,15.3-0.4c5.1-0.2,10.2-0.5,15.3-0.9V812.4z M542.7,765.5
		c2.6-0.1,5.5-0.4,8.8-0.7c3.3-0.3,6.6-0.8,10-1.3l-0.9,5.8c-1.3-0.1-2.8-0.1-4.4-0.1s-3.2,0-4.8,0s-3.2,0-4.7,0c-1.5,0-2.9,0-4.1,0
		c0,1.1-0.1,2.4-0.2,3.8c-0.1,1.4-0.3,2.8-0.4,4.3c-0.1,1.4-0.3,2.8-0.4,4c-0.2,1.3-0.3,2.3-0.5,3l-4.2,0.6
		c-0.2-1.4-0.4-3.2-0.5-5.3c-0.2-2.1-0.2-4.1-0.2-5.9v-30.4c0-2.1-0.9-3.8-2.8-5.1c-1.9-1.3-4.9-2.4-8.9-3.4l1-2.6
		c3.2,0.4,6.3,0.9,9.6,1.5c3.2,0.6,6.1,1.2,8.5,1.7c-0.3,1.1-0.5,2.4-0.7,3.9c-0.2,1.5-0.3,2.8-0.3,4.1V765.5z"/>
	<path class="st0" d="M646,743.5c0-2.1-1-3.8-2.9-5.1c-1.9-1.3-4.9-2.4-8.9-3.4l1.1-2.6c3.2,0.4,6.3,0.9,9.6,1.5
		c3.2,0.6,6.1,1.2,8.5,1.7c-0.3,1.1-0.5,2.4-0.7,3.9c-0.2,1.5-0.3,2.8-0.3,4.1v53c0,2,0,4.2-0.1,6.7c-0.1,2.5-0.2,5-0.3,7.6
		c-0.1,2.5-0.3,4.9-0.5,7.2c-0.2,2.3-0.5,4.1-0.7,5.6l-4,0.5c-0.1-1.1-0.2-2.4-0.3-4c-0.1-1.6-0.2-3.3-0.2-5.2
		c-0.1-1.9-0.1-3.8-0.1-5.7c0-2,0-3.8,0-5.7v-20.9c-2.8,1.2-6.1,2.4-9.9,3.6c-3.8,1.2-7.8,2.4-11.9,3.5c-4.1,1.1-8.2,2.1-12.2,3
		c-4,0.9-7.6,1.5-10.6,2c-2.8,0.4-4.9,0-6.1-1.1c-1.2-1.1-1.8-3.1-1.8-6v-28.9c0-1.1-0.1-2-0.4-2.7c-0.3-0.8-0.7-1.4-1.4-1.9
		c-0.7-0.5-1.7-1-2.9-1.4c-1.3-0.4-2.9-0.8-4.9-1.1l0.9-2.6c3.2,0.1,6.1,0.3,8.6,0.7c2.5,0.3,5,0.7,7.5,1.1
		c-0.3,1.1-0.5,2.4-0.7,3.9c-0.2,1.5-0.3,2.8-0.3,4.1v27c0,1.3,0.3,2.1,1,2.6c0.7,0.5,1.6,0.7,2.6,0.6c2.5-0.2,5.6-0.6,9.3-1.1
		c3.7-0.6,7.5-1.3,11.4-2.1c3.9-0.9,7.8-1.8,11.6-2.8c3.8-1,7.1-2.1,10-3.1V743.5z"/>
	<path class="st0" d="M748.3,743.5c0-2.1-1-3.8-2.9-5.1c-1.9-1.3-4.9-2.4-8.9-3.4l1.1-2.6c3.2,0.4,6.3,0.9,9.6,1.5
		c3.2,0.6,6.1,1.2,8.5,1.7c-0.3,1.1-0.5,2.4-0.7,3.9c-0.2,1.5-0.3,2.8-0.3,4.1v27.3c2.6-0.1,5.6-0.3,9-0.7c3.4-0.3,6.8-0.8,10.2-1.4
		l-0.9,6.1c-1.3-0.1-2.8-0.1-4.4-0.1c-1.6,0-3.2,0-4.9,0c-1.6,0-3.2,0-4.8,0c-1.6,0-3,0-4.2,0v21.7c0,2,0,4.2-0.1,6.7
		c-0.1,2.5-0.2,5-0.3,7.6c-0.1,2.5-0.3,4.9-0.5,7.2c-0.2,2.3-0.5,4.1-0.7,5.6l-4,0.5c-0.1-1.1-0.2-2.4-0.3-4s-0.2-3.3-0.2-5.2
		c-0.1-1.9-0.1-3.8-0.1-5.7c0-2,0-3.8,0-5.7v-19.2c-2.8,1.1-6.1,2.3-9.9,3.5c-3.8,1.2-7.7,2.4-11.7,3.5c-4,1.1-8,2.1-11.9,3
		c-3.9,0.9-7.5,1.5-10.5,2c-2.8,0.4-4.9,0-6.1-1c-1.2-1.1-1.8-3.1-1.8-6.1v-27.6c0-1.3-0.1-2.3-0.3-3.2c-0.2-0.9-0.6-1.6-1.2-2.3
		c-0.6-0.6-1.5-1.2-2.6-1.7c-1.1-0.5-2.5-1-4.3-1.5l1.1-2.4c3.4,0.5,7,0.8,10.9,1c3.8,0.2,7.7,0.2,11.6,0c3.9-0.2,7.7-0.4,11.5-0.8
		c3.8-0.4,7.3-0.9,10.5-1.4l-1.2,5.8c-6-0.3-11.5-0.3-16.5-0.1c-5,0.2-9.4,0.4-13.2,0.8v31.6c0,1.3,0.3,2.1,1,2.6
		c0.7,0.5,1.6,0.6,2.6,0.5c2.5-0.2,5.6-0.6,9.2-1.1c3.6-0.6,7.4-1.3,11.3-2.1c3.9-0.9,7.7-1.8,11.4-2.8c3.8-1,7-2,9.9-3.1V743.5z"/>
</g>
<g>
	<path class="st0" d="M252.6,30.7c-1.8,0-4,0-6.6,0s-5.4,0-8.3,0.1c-3,0.1-6,0.2-9.1,0.2c-3.1,0.1-6.2,0.2-9.1,0.2
		c-2.9,0.1-5.6,0.2-8.1,0.2c-2.5,0.1-4.6,0.2-6.2,0.2c-0.9,0.1-2.1,0.2-3.5,0.2c-1.4,0.1-2.9,0.2-4.3,0.3c-1.5,0.1-2.9,0.3-4.3,0.4
		c-1.4,0.2-2.6,0.3-3.5,0.5l-3.6-7.1c2.3,0.4,4.9,0.7,7.9,0.9c3,0.2,5.6,0.3,7.9,0.3c1.8,0,4,0,6.6-0.1c2.6-0.1,5.5-0.1,8.6-0.2
		c3.1-0.1,6.3-0.2,9.7-0.3c3.4-0.2,6.7-0.4,10-0.6s6.4-0.5,9.4-0.8c3-0.3,5.7-0.7,8-1.2L252.6,30.7z M244.1,56.6
		c0,2.6-0.6,5-1.8,7.2c-1.2,2.2-2.9,4.2-5,5.8s-4.6,2.9-7.4,3.9c-2.9,0.9-5.9,1.4-9.2,1.4c-3.2,0-6.2-0.5-9.1-1.5
		c-2.9-1-5.3-2.3-7.4-3.9s-3.8-3.6-5-5.8c-1.2-2.2-1.8-4.6-1.8-7.1c0-2.7,0.6-5.2,1.8-7.5c1.2-2.3,2.9-4.2,5-5.9s4.6-2.9,7.4-3.8
		c2.9-0.9,5.9-1.3,9.1-1.3c3.4,0,6.6,0.5,9.5,1.5c2.9,1,5.4,2.4,7.4,4c2.1,1.7,3.7,3.7,4.8,5.9C243.5,51.8,244.1,54.1,244.1,56.6z
		 M235.2,17.3c-2.7-0.1-5.6-0.1-8.7,0.1s-5.6,0.2-7.7,0.2c-0.5,0-1.3,0-2.2,0.1c-0.9,0-1.9,0.1-3,0.1c-1.1,0-2.2,0.1-3.4,0.2
		s-2.3,0.3-3.3,0.4l-3.5-6.9c1.9,0.4,4,0.8,6.5,1.2c2.5,0.4,4.9,0.6,7.3,0.6c2,0,4.7-0.1,8.4-0.4c3.6-0.3,7.3-0.6,11-1.1L235.2,17.3
		z M206,56c0,1.9,0.4,3.8,1.1,5.5c0.7,1.8,1.8,3.3,3,4.6c1.3,1.3,2.9,2.4,4.7,3.2c1.8,0.8,3.8,1.2,5.9,1.2s4.1-0.4,5.9-1.2
		c1.8-0.8,3.4-1.8,4.7-3.1c1.3-1.3,2.4-2.8,3.1-4.6c0.7-1.8,1.1-3.6,1.1-5.7c0-1.9-0.4-3.7-1.1-5.4c-0.7-1.7-1.7-3.2-3-4.6
		c-1.3-1.3-2.9-2.4-4.7-3.2c-1.8-0.8-3.8-1.2-6-1.2c-2.1,0-4.1,0.4-5.9,1.1c-1.8,0.7-3.4,1.7-4.7,3c-1.3,1.3-2.4,2.8-3.1,4.5
		C206.4,52,206,53.9,206,56z M279.2,111.3c-4.9-0.1-9.8-0.1-14.7-0.1c-4.9,0-9.6,0-14.3,0.1c-4.6,0.1-9.1,0.2-13.3,0.4
		c-4.2,0.2-8.1,0.4-11.6,0.6c-2.2,0.2-3.8-0.3-4.7-1.3s-1.4-2.4-1.4-3.9V94.9c0-1.8-0.1-3.3-0.3-4.4c-0.2-1.1-0.6-2.1-1.3-2.8
		c-0.7-0.7-1.7-1.4-3.1-1.9c-1.4-0.5-3.2-1.1-5.6-1.7l1.4-2.9c1.2,0.2,2.5,0.3,4,0.5c1.5,0.2,3,0.3,4.6,0.5c1.6,0.2,3.2,0.4,4.7,0.6
		c1.5,0.2,2.9,0.4,4,0.5c-0.2,1-0.3,2.3-0.4,4s-0.2,3.2-0.2,4.7v11.2c0,1.7,0.4,2.8,1.2,3.3c0.8,0.5,2.3,0.8,4.6,0.9
		c3,0.1,6.6,0,10.7-0.1c4.1-0.2,8.3-0.4,12.6-0.7c4.3-0.3,8.6-0.7,12.9-1.1c4.3-0.4,8.1-0.9,11.5-1.5L279.2,111.3z M271.7,65.6
		c0,1.8,0,3.7-0.1,5.7c-0.1,2-0.2,4-0.4,6c-0.2,2-0.4,3.9-0.6,5.7c-0.2,1.8-0.5,3.4-0.7,4.7l-5.2,0.8c-0.2-1-0.3-2.3-0.4-3.9
		c-0.1-1.6-0.2-3.2-0.3-5s-0.2-3.5-0.2-5.3c0-1.8-0.1-3.4-0.1-4.8V16.9c0-2.7-1.2-4.8-3.5-6.3c-2.3-1.6-6-2.9-11-4.2l1.3-3.2
		c3.9,0.5,7.9,1.1,11.8,1.8c4,0.7,7.5,1.4,10.5,2.1c-0.3,1.4-0.6,3-0.8,4.8c-0.2,1.8-0.4,3.5-0.4,5v30.9c3.2-0.2,6.8-0.4,10.9-0.9
		c4.1-0.4,8.2-1,12.4-1.6l-1.2,7.1c-1.6-0.1-3.4-0.1-5.3-0.1c-1.9,0-3.9,0-5.9,0s-3.9,0-5.8,0.1c-1.9,0-3.6,0.1-5.2,0.1V65.6z"/>
	<path class="st0" d="M380.6,43.4c3.7,3,7.6,5.8,11.7,8.5s8.8,5.5,14,8.5l-6.7,6c-3.9-3.4-7.5-6.8-10.8-10.1c-3.3-3.3-7-6.6-11-10.1
		c-5.5,5.7-11.5,10.7-17.8,14.9c-6.3,4.3-12.4,7.6-18.3,10.1l-2.3-2.6c10.3-5.2,19.4-11.7,27.4-19.6c7.9-7.9,14.1-16.9,18.6-26.8
		c-1.2,0-2.6,0-4.2,0.1c-1.6,0.1-3.3,0.2-5.1,0.2c-1.8,0.1-3.5,0.2-5.2,0.2c-1.7,0.1-3.1,0.1-4.2,0.1c-0.9,0-2,0.1-3.3,0.2
		c-1.3,0.1-2.8,0.2-4.3,0.4s-3.1,0.3-4.6,0.5c-1.6,0.2-3,0.4-4.3,0.5l-4.6-7.1c2,0.4,4.6,0.7,7.6,0.9c3,0.2,5.9,0.3,8.4,0.3
		c5.9,0.1,11.6-0.1,17.3-0.5c5.7-0.4,10.7-1.2,15.1-2.2l2.7,2.6c-1.9,4.6-4.2,9-7,13.1C387,35.7,384,39.7,380.6,43.4z M407.1,76.5
		c3.1,0.2,6,0.9,8.6,2c2.6,1.1,4.9,2.5,6.7,4.2c1.9,1.7,3.3,3.7,4.4,6c1.1,2.3,1.6,4.7,1.6,7.3c0,2.8-0.6,5.4-1.9,7.9
		c-1.3,2.4-3,4.5-5.2,6.3s-4.8,3.1-7.8,4.1c-3,1-6.2,1.5-9.7,1.5s-6.8-0.5-9.7-1.5c-3-1-5.5-2.3-7.7-4.1c-2.1-1.8-3.8-3.8-5.1-6.3
		c-1.3-2.4-1.9-5-1.9-7.9c0-2.7,0.5-5.1,1.6-7.4c1.1-2.3,2.6-4.3,4.6-6c2-1.7,4.4-3.1,7.1-4.2c2.7-1.1,5.7-1.7,8.9-1.9
		c-0.2-0.9-0.6-1.7-1.3-2.3s-2-1.2-3.8-1.7l1.2-2.3c1.8,0.4,3.6,0.7,5.3,1.1c1.8,0.3,3.6,0.7,5.4,1.1c-0.3,0.6-0.6,1.3-0.9,2
		C407.5,74.8,407.2,75.6,407.1,76.5z M420,95.3c0-2.1-0.4-4.1-1.3-6c-0.9-1.9-2-3.5-3.5-4.9c-1.4-1.4-3.2-2.5-5.2-3.3
		s-4.1-1.2-6.4-1.2c-2.3,0-4.4,0.4-6.3,1.2c-2,0.8-3.7,1.9-5.2,3.3c-1.5,1.4-2.6,3-3.5,4.9s-1.2,3.9-1.2,6s0.4,4.1,1.2,6
		s2,3.5,3.5,4.9c1.5,1.4,3.2,2.4,5.2,3.2c2,0.8,4.1,1.2,6.3,1.2c2.3,0,4.5-0.4,6.4-1.2c2-0.8,3.7-1.9,5.2-3.2c1.5-1.4,2.6-3,3.5-4.9
		S420,97.5,420,95.3z M420.6,42c-4.7,0.2-9,0.4-13,0.8s-7.5,0.8-10.5,1.5l-3.2-6.8c1.6,0.3,3.6,0.5,6.2,0.7c2.6,0.2,5,0.2,7.4,0.1
		c2-0.1,4.2-0.1,6.6-0.1c2.4,0,4.6,0,6.5-0.1V16.9c0-2.7-1.2-4.8-3.6-6.3c-2.4-1.6-6.1-2.9-11.1-4.2l1.3-3.2c4,0.5,7.9,1.1,11.9,1.8
		c3.9,0.7,7.5,1.4,10.6,2.1c-0.3,1.4-0.6,3-0.9,4.8c-0.3,1.8-0.4,3.5-0.4,5v37.4c0,1.4-0.1,3-0.2,4.9c-0.1,1.8-0.3,3.7-0.5,5.5
		c-0.2,1.8-0.4,3.6-0.6,5.2c-0.2,1.6-0.4,2.9-0.6,3.9l-5.2,0.7c-0.2-1.6-0.4-3.8-0.6-6.5c-0.2-2.7-0.2-5.1-0.2-7.2V42z"/>
	<path class="st0" d="M546,79.8c0,2.9-0.2,5.7-0.5,8.6c-0.3,2.8-0.7,5.6-1.2,8.4l-5.5,0.7c-0.3-2.8-0.5-5.6-0.7-8.4
		c-0.2-2.8-0.2-5.3-0.2-7.5v-5.2c-3.4,0.1-6.8,0.2-10.2,0.3c-3.4,0.1-6.5,0.2-9.5,0.3c-3,0.1-5.6,0.2-7.9,0.3
		c-2.3,0.1-4.1,0.2-5.4,0.3c-3,0.2-6.1,0.4-9.1,0.6c-3,0.2-6,0.5-8.8,0.9l-3-8.1c3.7,0.4,7.1,0.7,10.4,0.9c3.3,0.2,6.8,0.4,10.4,0.5
		c2,0.1,4.5,0.1,7.7,0.1c3.2,0,6.7,0,10.5-0.1c3.8,0,7.7-0.1,11.8-0.2s8-0.2,11.8-0.3c3.8-0.1,7.3-0.2,10.4-0.3s5.7-0.2,7.7-0.3
		c5.4-0.2,10.5-0.6,15.4-1c4.8-0.4,9.4-1,13.6-1.6l-1.2,7.9c-3.1-0.2-7-0.3-11.5-0.4c-4.6-0.1-9.5-0.2-14.8-0.2
		c-2.3,0-5.1,0-8.6,0.1c-3.5,0-7.3,0.1-11.5,0.3V79.8z M577.6,23.4c-2.1-0.1-4.9-0.1-8.3-0.2c-3.4,0-7.1,0-11.1,0.1
		c-4,0.1-8.1,0.2-12.3,0.3s-8.2,0.3-12,0.4c-3.8,0.2-7.1,0.3-10.1,0.4c-3,0.1-5.2,0.2-6.6,0.3c-1,0-2.2,0.1-3.7,0.2
		c-1.4,0.1-2.9,0.2-4.5,0.4c-1.6,0.1-3.1,0.3-4.6,0.4c-1.5,0.2-2.7,0.3-3.8,0.5l-3.3-7.1c1.2,0.2,2.5,0.4,4,0.6
		c1.5,0.2,3.1,0.3,4.6,0.4c1.6,0.1,3.1,0.2,4.7,0.3c1.6,0.1,2.9,0.1,4.1,0.1c1.9,0,4.3,0,7.4-0.1c3-0.1,6.4-0.2,10.1-0.3
		c3.7-0.1,7.7-0.3,11.8-0.5c4.2-0.2,8.3-0.4,12.5-0.7c4.1-0.3,8.1-0.6,12-0.9c3.9-0.3,7.4-0.7,10.6-1.1L577.6,23.4z M577.9,111.9
		c-4.9-0.2-10.2-0.4-15.7-0.5c-5.5-0.1-11-0.1-16.5-0.1c-5.4,0-10.6,0.1-15.5,0.3c-4.9,0.2-9.1,0.4-12.6,0.6
		c-2.2,0.2-3.8-0.3-4.7-1.3s-1.4-2.4-1.4-3.9v-7.7c0-1.8-0.1-3.3-0.3-4.4c-0.2-1.1-0.6-2.1-1.3-2.8c-0.7-0.7-1.7-1.4-3-1.9
		c-1.3-0.5-3.2-1.1-5.5-1.7l1.3-2.9c1.2,0.2,2.5,0.3,4,0.5c1.5,0.2,3.1,0.3,4.6,0.5c1.6,0.2,3.1,0.4,4.7,0.6
		c1.6,0.2,2.9,0.4,4.1,0.5c-0.2,0.9-0.3,2.2-0.4,3.9c-0.1,1.7-0.2,3.3-0.2,4.7v6.9c0,1.7,0.4,2.8,1.2,3.3c0.8,0.5,2.3,0.8,4.6,0.9
		c3,0.1,6.8,0.1,11.5,0c4.7-0.1,9.7-0.2,14.8-0.5s10.2-0.5,15.1-0.9c4.9-0.4,9.1-0.9,12.5-1.4L577.9,111.9z M563.4,46.7
		c0,2.5-0.6,4.8-1.9,7c-1.3,2.1-3,4-5.2,5.6c-2.2,1.6-4.8,2.8-7.8,3.8c-3,0.9-6.2,1.4-9.7,1.4c-3.4,0-6.5-0.5-9.5-1.4
		c-3-0.9-5.5-2.2-7.7-3.8c-2.2-1.6-3.9-3.5-5.2-5.6c-1.3-2.1-1.9-4.4-1.9-6.9c0-2.7,0.6-5.1,1.9-7.2c1.3-2.1,3-4,5.2-5.6
		c2.2-1.6,4.8-2.8,7.7-3.6c3-0.9,6.1-1.3,9.5-1.3c3.6,0,6.9,0.5,9.9,1.5c3,1,5.6,2.3,7.8,3.9c2.2,1.6,3.9,3.5,5,5.6
		S563.4,44.4,563.4,46.7z M554.7,12c-1.3,0-2.9,0-4.7,0c-1.8,0-3.6,0-5.4,0.1c-1.8,0.1-3.6,0.1-5.2,0.2c-1.6,0-3,0.1-4,0.1
		c-0.5,0-1.3,0-2.3,0c-1,0-2.1,0-3.3,0.1c-1.2,0.1-2.4,0.2-3.6,0.2c-1.3,0.1-2.4,0.2-3.4,0.4l-3.4-6.8c1.8,0.4,4.1,0.8,6.9,1.1
		c2.8,0.4,5.3,0.5,7.6,0.5c0.9,0,2.3,0,4-0.1c1.8-0.1,3.7-0.2,5.8-0.3s4.3-0.3,6.4-0.5c2.2-0.2,4.2-0.4,6.1-0.6L554.7,12z
		 M523.5,46.5c0,1.7,0.4,3.4,1.2,4.9c0.8,1.6,1.9,2.9,3.3,4.2c1.4,1.2,3.1,2.2,5,2.9c1.9,0.7,4,1.1,6.2,1.1c2.2,0,4.2-0.3,6.1-1
		c1.9-0.7,3.5-1.6,4.9-2.8s2.5-2.6,3.3-4.2c0.8-1.6,1.2-3.3,1.2-5.1c0-1.8-0.4-3.5-1.1-5.2c-0.7-1.6-1.8-3.1-3.2-4.3
		c-1.4-1.2-3-2.2-4.9-2.9c-1.9-0.7-4-1.1-6.4-1.1c-2.2,0-4.2,0.3-6.2,0.9c-1.9,0.6-3.6,1.5-5,2.7s-2.5,2.6-3.3,4.3
		C523.9,42.6,523.5,44.4,523.5,46.5z"/>
</g>
<rect x="308.5" y="485" class="st0" width="162" height="3"/>
<g>
	<path class="st0" d="M248,239.1c-1.9,5.8-4.8,11.5-8.8,17.3s-8.6,11.2-13.8,16.3c-5.2,5.1-10.7,9.7-16.6,13.8
		c-5.9,4.1-11.7,7.3-17.3,9.6l-2.2-2.5c5-2.7,9.9-5.8,14.7-9.4s9.3-7.6,13.5-12c4.2-4.3,7.9-8.9,11.2-13.7s5.9-9.7,7.9-14.7
		c-1.7,0-3.6,0-5.7,0.1c-2.1,0-4.2,0.1-6.3,0.2c-2.1,0.1-3.9,0.2-5.6,0.2c-1.6,0.1-2.9,0.2-3.6,0.2c-0.8,0.1-1.9,0.2-3.2,0.2
		c-1.4,0.1-2.8,0.2-4.3,0.4c-1.5,0.2-3,0.3-4.6,0.5c-1.5,0.2-2.9,0.5-4,0.8l-4.7-7.5c0.8,0.2,1.8,0.3,3.2,0.4
		c1.3,0.1,2.8,0.2,4.3,0.4c1.6,0.1,3.1,0.2,4.7,0.3c1.6,0.1,3,0.1,4.3,0.1c3.3,0,6.7-0.1,10.1-0.2c3.5-0.2,6.8-0.4,9.9-0.6
		c3.1-0.2,5.9-0.5,8.4-0.9s4.4-0.7,5.7-1.1L248,239.1z M273.9,324.9c0.8-0.2,1.5-0.3,2.2-0.3c0.7,0,1.3-0.1,1.9-0.2l-1.5,6.6
		c-3.1-0.2-6.7-0.4-10.6-0.5c-3.9-0.1-8-0.2-12.1-0.2c-4.1,0-8.2,0-12.3,0.1c-4.1,0.1-7.8,0.2-11.2,0.4c-0.2,1.8-0.4,3.4-0.7,4.8
		l-4.6,0.8c-0.4-1.6-0.7-3.3-0.9-5.3c-0.2-2-0.4-4-0.6-6l-1.4-21.5c-0.1-1.5-0.2-2.7-0.5-3.6c-0.2-0.9-0.6-1.7-1.2-2.3
		c-0.5-0.6-1.3-1.1-2.3-1.5c-1-0.4-2.3-0.9-4-1.4l1.3-2.9c10.2,1.2,20.3,1.6,30.4,1.3c10.1-0.3,20.5-0.8,31.2-1.7
		c-0.3,2.2-0.6,4.8-0.9,7.7c-0.3,2.9-0.6,6-0.9,9.1c-0.3,3.1-0.5,6.1-0.7,9.1C274.2,320.2,274.1,322.7,273.9,324.9z M267.7,297.3
		c-2.5-0.1-5.4-0.1-8.8-0.2c-3.4,0-6.9,0-10.4,0.1c-3.6,0.1-7,0.2-10.2,0.3c-3.2,0.1-6,0.3-8.1,0.4l0.5,24.9v3.6
		c2.9,0,5.9,0,9.1-0.1c3.2,0,6.4-0.1,9.6-0.2s6.3-0.2,9.4-0.4c3.1-0.1,6-0.3,8.7-0.5L267.7,297.3z M255.7,223.9
		c3.9,0.5,7.9,1.1,11.8,1.8c4,0.7,7.5,1.4,10.5,2.1c-0.3,1.4-0.6,3-0.8,4.8c-0.2,1.8-0.4,3.5-0.4,5V268c0,1.4-0.1,3-0.2,4.9
		c-0.1,1.8-0.3,3.7-0.5,5.5c-0.2,1.8-0.4,3.6-0.6,5.2c-0.2,1.6-0.4,2.9-0.6,3.9l-5.2,0.7c-0.2-1.7-0.4-3.9-0.6-6.6
		c-0.2-2.7-0.2-5.1-0.2-7.3v-36.7c0-2.7-1.2-4.8-3.6-6.3c-2.4-1.6-6.1-2.9-11.1-4.2L255.7,223.9z"/>
	<path class="st0" d="M369.2,251.7c3,0.3,5.9,1.1,8.4,2.3c2.6,1.2,4.8,2.7,6.7,4.6c1.9,1.8,3.3,4,4.4,6.4c1.1,2.4,1.6,5,1.6,7.7
		c0,4.2-1.2,7.9-3.5,11c1.3,0.2,2.8,0.3,4.5,0.4c1.7,0.1,3.3,0.1,4.9,0.1c2-0.1,3.6-0.1,4.7-0.2c1.1,0,2.2-0.1,3.1-0.2V259
		c-5.4,0.2-10.6,1-15.6,2.2l-3.3-6.8c1.2,0.3,2.9,0.5,4.9,0.7c2,0.2,4.1,0.2,6.1,0.1c2-0.1,3.6-0.1,4.7-0.2c1.1,0,2.2-0.1,3.1-0.2
		v-12.2c0-2.6-0.8-4.6-2.5-6.2c-1.7-1.5-4.8-2.9-9.4-4.1l1.3-3.2c3.9,0.5,7.3,1,10.3,1.5c3,0.5,6,1.2,9,2c-0.3,1.4-0.6,3-0.8,4.9
		c-0.2,1.8-0.4,3.5-0.4,5.1v56.4c0,2.4-0.1,5.2-0.2,8.2s-0.3,6.1-0.5,9.2c-0.2,3.1-0.4,6.1-0.6,8.9c-0.2,2.9-0.5,5.3-0.8,7.2
		l-4.6,0.6c-0.2-1.5-0.3-3.2-0.4-5.2c-0.1-2-0.2-4.1-0.2-6.4c-0.1-2.3-0.1-4.6-0.2-7c0-2.4-0.1-4.7-0.1-7v-19.7
		c-5.2,0.2-10.4,0.9-15.6,2.1l-2.5-5c-2.2,2.7-5,4.9-8.6,6.6s-7.5,2.5-11.8,2.5c-3.5,0-6.8-0.5-9.8-1.6c-3-1.1-5.7-2.6-7.9-4.5
		c-2.2-1.9-3.9-4.1-5.2-6.7c-1.3-2.6-1.9-5.4-1.9-8.5c0-2.9,0.6-5.6,1.8-8.1c1.2-2.5,2.8-4.7,4.8-6.6c2-1.9,4.5-3.4,7.3-4.5
		c2.9-1.1,5.9-1.8,9.2-1.9c-0.2-1.1-0.6-2-1.2-2.6c-0.7-0.7-1.9-1.3-3.7-1.9l1.2-2.3c1.7,0.4,3.4,0.7,5.2,1c1.7,0.3,3.5,0.6,5.4,1.1
		c-0.3,0.8-0.6,1.6-0.9,2.3C369.5,249.8,369.3,250.7,369.2,251.7z M382.7,272.3c0-2.4-0.4-4.7-1.3-6.7c-0.9-2.1-2-3.9-3.5-5.4
		c-1.5-1.5-3.3-2.7-5.4-3.6c-2.1-0.9-4.4-1.3-6.8-1.3c-2.4,0-4.7,0.5-6.8,1.3c-2.1,0.9-3.9,2.1-5.4,3.6s-2.7,3.3-3.6,5.4
		c-0.9,2.1-1.3,4.3-1.3,6.7c0,2.4,0.4,4.6,1.3,6.7c0.9,2,2.1,3.8,3.6,5.3c1.5,1.5,3.3,2.7,5.4,3.5c2.1,0.9,4.4,1.3,6.8,1.3
		c2.4,0,4.7-0.4,6.8-1.3c2.1-0.9,3.9-2,5.4-3.5c1.5-1.5,2.7-3.2,3.5-5.3C382.2,277,382.7,274.8,382.7,272.3z M412.2,223.9
		c3.9,0.5,7.6,1.2,11,1.9c3.4,0.7,6.7,1.4,9.7,2c-0.3,1.4-0.6,3-0.8,4.8c-0.2,1.8-0.4,3.5-0.4,5v65.6c0,2.4-0.1,5.2-0.2,8.2
		s-0.3,6.1-0.4,9.2c-0.2,3.1-0.4,6.1-0.6,8.9c-0.2,2.9-0.5,5.3-0.8,7.2l-4.8,0.6c-0.2-1.5-0.3-3.2-0.4-5.3c-0.1-2-0.2-4.2-0.3-6.4
		c-0.1-2.3-0.2-4.6-0.2-6.9c0-2.3-0.1-4.6-0.1-6.9v-74.2c0-2.6-1-4.6-2.9-6.2c-1.9-1.6-5.3-3-10.3-4.3L412.2,223.9z"/>
	<path class="st0" d="M530.9,287.7c0,2.8-0.2,5.5-0.5,8c-0.3,2.5-0.7,4.7-1.2,6.6l-5,0.7c-0.3-1.6-0.6-3.8-0.9-6.4
		c-0.3-2.6-0.5-5-0.5-7.2V284c-1.9,0.1-3.8,0.3-5.8,0.4c-2,0.1-4,0.2-6,0.4c-0.9,0.1-2,0.2-3.5,0.3c-1.4,0.1-3,0.3-4.6,0.5
		c-1.6,0.2-3.3,0.4-5,0.6c-1.7,0.2-3.2,0.4-4.5,0.6l-4.5-7.9c2.6,0.4,5.4,0.7,8.4,0.9c3,0.2,5.9,0.3,8.4,0.2
		c5.9-0.2,11.4-0.4,16.6-0.7c5.2-0.3,10.2-0.7,14.9-1.2c4.8-0.5,9.4-1,13.9-1.6c4.5-0.6,9.1-1.3,13.7-2.2v3.2
		c-6.3,1.3-12.3,2.3-17.9,3.3c-5.6,0.9-11,1.7-16.2,2.4V287.7z M529.5,234.9c3,0.3,5.8,1,8.4,2.1c2.5,1.1,4.7,2.4,6.6,4
		c1.8,1.6,3.3,3.5,4.3,5.6c1,2.1,1.5,4.3,1.5,6.7c0,2.7-0.6,5.2-1.9,7.5c-1.3,2.3-2.9,4.2-5.1,5.9c-2.1,1.7-4.7,3-7.7,3.9
		c-3,0.9-6.2,1.4-9.6,1.4c-3.5,0-6.7-0.5-9.7-1.4s-5.4-2.2-7.6-3.9c-2.1-1.7-3.8-3.7-5-5.9c-1.2-2.3-1.8-4.8-1.8-7.5
		c0-2.5,0.5-4.8,1.6-7c1.1-2.2,2.6-4.1,4.6-5.7s4.4-3,7.1-4c2.7-1,5.7-1.6,9-1.8c-0.1-0.9-0.4-1.5-1.1-2.1c-0.6-0.5-1.7-1-3.2-1.6
		l0.8-2.1c1.7,0.3,3.4,0.6,4.9,0.8c1.6,0.2,3.2,0.5,5,0.8c-0.3,0.8-0.6,1.5-0.8,2.2C529.8,233.4,529.6,234.2,529.5,234.9z
		 M542.4,252.9c0-2-0.4-3.9-1.2-5.7s-2-3.3-3.4-4.6c-1.4-1.3-3.1-2.4-5.1-3.1c-2-0.7-4-1.1-6.2-1.1c-2.3,0-4.4,0.4-6.3,1.1
		c-1.9,0.7-3.6,1.8-5,3.1c-1.4,1.3-2.6,2.9-3.4,4.6s-1.2,3.7-1.2,5.7c0,2.1,0.4,4,1.2,5.8s2,3.3,3.4,4.6c1.4,1.3,3.1,2.3,5,3
		c1.9,0.7,4,1.1,6.3,1.1c2.3,0,4.4-0.4,6.3-1.1c2-0.7,3.6-1.7,5-3s2.5-2.8,3.3-4.6S542.4,255,542.4,252.9z M586.4,332.6
		c-4.9-0.2-10-0.4-15.2-0.5c-5.2-0.1-10.4-0.1-15.4-0.1c-5,0-9.8,0.1-14.4,0.3c-4.6,0.2-8.6,0.4-12.1,0.6c-2.2,0.2-3.8-0.3-4.7-1.3
		c-1-1.1-1.5-2.4-1.5-3.9v-8.3c0-1.8-0.1-3.3-0.3-4.4c-0.2-1.1-0.6-2.1-1.3-2.8c-0.7-0.7-1.7-1.4-3-1.9c-1.3-0.5-3.2-1.1-5.5-1.7
		l1.4-3c1.2,0.2,2.5,0.3,4,0.5c1.5,0.2,3,0.4,4.6,0.6c1.6,0.2,3.2,0.4,4.7,0.6c1.5,0.2,2.9,0.4,4,0.5c-0.2,0.9-0.3,2.2-0.4,3.9
		c-0.1,1.7-0.2,3.3-0.2,4.7v7.5c0,1.7,0.4,2.8,1.2,3.3c0.8,0.5,2.3,0.8,4.6,0.9c3,0.1,6.7,0.1,11.1,0c4.4-0.1,9-0.2,13.8-0.5
		c4.8-0.2,9.5-0.5,14.1-0.9c4.6-0.4,8.6-0.9,12.1-1.4L586.4,332.6z M572.5,295.2c-5,0.2-10,0.5-15.1,0.9c-5,0.4-9.3,1-12.7,1.6
		l-3.2-6.7c1.6,0.3,3.6,0.5,6.2,0.7c2.6,0.2,5,0.2,7.4,0.1c1.4,0,2.9,0,4.5-0.1c1.6,0,3.1-0.1,4.7-0.2c1.6-0.1,3-0.2,4.5-0.2
		c1.4-0.1,2.7-0.2,3.8-0.2v-53.4c0-2.7-1.2-4.8-3.6-6.3c-2.4-1.6-6.1-2.9-11.1-4.2l1.4-3.2c3.9,0.5,7.9,1.1,11.8,1.8
		c4,0.7,7.5,1.4,10.5,2.1c-0.3,1.4-0.6,3-0.8,4.8c-0.2,1.8-0.4,3.5-0.4,5v50.3c0,1.4-0.1,3.2-0.2,5.3c-0.1,2.1-0.3,4.4-0.5,6.6
		c-0.2,2.3-0.4,4.4-0.6,6.4s-0.5,3.6-0.7,4.7l-5.2,0.7c-0.2-0.9-0.3-2-0.4-3.4c-0.1-1.4-0.2-2.9-0.2-4.5c-0.1-1.6-0.1-3.1-0.2-4.6
		C572.5,297.7,572.5,296.4,572.5,295.2z"/>
</g>
<rect class="st1" width="774" height="824"/>
</svg>
