<?xml version="1.0" encoding="utf-8"?>
<!-- Generator: Adobe Illustrator 26.3.1, SVG Export Plug-In . SVG Version: 6.00 Build 0)  -->
<svg version="1.1" id="Layer_1" xmlns="http://www.w3.org/2000/svg" xmlns:xlink="http://www.w3.org/1999/xlink" x="0px" y="0px"
	 viewBox="0 0 408 334" style="enable-background:new 0 0 408 334;" xml:space="preserve">
<style type="text/css">
	.st0{fill:#FFFFFF;}
</style>
<g>
	<path class="st0" d="M66.6,27.5c-1.8,0-4,0-6.6,0s-5.4,0-8.3,0.1c-3,0.1-6,0.2-9.1,0.2c-3.1,0.1-6.2,0.2-9.1,0.2
		c-2.9,0.1-5.6,0.2-8.1,0.2c-2.5,0.1-4.6,0.2-6.2,0.2c-0.9,0.1-2.1,0.2-3.5,0.2c-1.4,0.1-2.9,0.2-4.3,0.3c-1.5,0.1-2.9,0.3-4.3,0.4
		c-1.4,0.2-2.6,0.3-3.5,0.5L0,22.7c2.3,0.4,4.9,0.7,7.9,0.9c3,0.2,5.6,0.3,7.9,0.3c1.8,0,4,0,6.6-0.1s5.5-0.1,8.6-0.2
		s6.3-0.2,9.7-0.3c3.4-0.2,6.7-0.4,10-0.6s6.4-0.5,9.4-0.8s5.7-0.7,8-1.2L66.6,27.5z M58.1,53.4c0,2.6-0.6,5-1.8,7.2s-2.9,4.2-5,5.8
		s-4.6,2.9-7.4,3.9c-2.9,0.9-5.9,1.4-9.2,1.4c-3.2,0-6.2-0.5-9.1-1.5c-2.9-1-5.3-2.3-7.4-3.9s-3.8-3.6-5-5.8s-1.8-4.6-1.8-7.1
		c0-2.7,0.6-5.2,1.8-7.5s2.9-4.2,5-5.9s4.6-2.9,7.4-3.8c2.9-0.9,5.9-1.3,9.1-1.3c3.4,0,6.6,0.5,9.5,1.5s5.4,2.4,7.4,4
		c2.1,1.7,3.7,3.7,4.8,5.9C57.5,48.6,58.1,50.9,58.1,53.4z M49.2,14.1c-2.7-0.1-5.6-0.1-8.7,0.1s-5.6,0.2-7.7,0.2
		c-0.5,0-1.3,0-2.2,0.1c-0.9,0-1.9,0.1-3,0.1s-2.2,0.1-3.4,0.2s-2.3,0.3-3.3,0.4l-3.5-6.9c1.9,0.4,4,0.8,6.5,1.2s4.9,0.6,7.3,0.6
		c2,0,4.7-0.1,8.4-0.4c3.6-0.3,7.3-0.6,11-1.1L49.2,14.1z M20,52.8c0,1.9,0.4,3.8,1.1,5.5c0.7,1.8,1.8,3.3,3,4.6
		c1.3,1.3,2.9,2.4,4.7,3.2c1.8,0.8,3.8,1.2,5.9,1.2s4.1-0.4,5.9-1.2c1.8-0.8,3.4-1.8,4.7-3.1c1.3-1.3,2.4-2.8,3.1-4.6
		c0.7-1.8,1.1-3.6,1.1-5.7c0-1.9-0.4-3.7-1.1-5.4c-0.7-1.7-1.7-3.2-3-4.6c-1.3-1.3-2.9-2.4-4.7-3.2s-3.8-1.2-6-1.2
		c-2.1,0-4.1,0.4-5.9,1.1c-1.8,0.7-3.4,1.7-4.7,3s-2.4,2.8-3.1,4.5C20.4,48.8,20,50.7,20,52.8z M93.2,108.1
		c-4.9-0.1-9.8-0.1-14.7-0.1c-4.9,0-9.6,0-14.3,0.1c-4.6,0.1-9.1,0.2-13.3,0.4c-4.2,0.2-8.1,0.4-11.6,0.6c-2.2,0.2-3.8-0.3-4.7-1.3
		s-1.4-2.4-1.4-3.9V91.7c0-1.8-0.1-3.3-0.3-4.4s-0.6-2.1-1.3-2.8c-0.7-0.7-1.7-1.4-3.1-1.9c-1.4-0.5-3.2-1.1-5.6-1.7l1.4-2.9
		c1.2,0.2,2.5,0.3,4,0.5s3,0.3,4.6,0.5s3.2,0.4,4.7,0.6s2.9,0.4,4,0.5c-0.2,1-0.3,2.3-0.4,4S41,87.3,41,88.8V100
		c0,1.7,0.4,2.8,1.2,3.3s2.3,0.8,4.6,0.9c3,0.1,6.6,0,10.7-0.1c4.1-0.2,8.3-0.4,12.6-0.7c4.3-0.3,8.6-0.7,12.9-1.1s8.1-0.9,11.5-1.5
		L93.2,108.1z M85.7,62.4c0,1.8,0,3.7-0.1,5.7s-0.2,4-0.4,6c-0.2,2-0.4,3.9-0.6,5.7c-0.2,1.8-0.5,3.4-0.7,4.7l-5.2,0.8
		c-0.2-1-0.3-2.3-0.4-3.9s-0.2-3.2-0.3-5s-0.2-3.5-0.2-5.3s-0.1-3.4-0.1-4.8V13.7c0-2.7-1.2-4.8-3.5-6.3c-2.3-1.6-6-2.9-11-4.2
		L64.5,0c3.9,0.5,7.9,1.1,11.8,1.8c4,0.7,7.5,1.4,10.5,2.1c-0.3,1.4-0.6,3-0.8,4.8c-0.2,1.8-0.4,3.5-0.4,5v30.9
		c3.2-0.2,6.8-0.4,10.9-0.9c4.1-0.4,8.2-1,12.4-1.6l-1.2,7.1c-1.6-0.1-3.4-0.1-5.3-0.1s-3.9,0-5.9,0s-3.9,0-5.8,0.1
		c-1.9,0-3.6,0.1-5.2,0.1v13.1H85.7z"/>
	<path class="st0" d="M194.6,40.2c3.7,3,7.6,5.8,11.7,8.5s8.8,5.5,14,8.5l-6.7,6c-3.9-3.4-7.5-6.8-10.8-10.1s-7-6.6-11-10.1
		c-5.5,5.7-11.5,10.7-17.8,14.9c-6.3,4.3-12.4,7.6-18.3,10.1l-2.3-2.6c10.3-5.2,19.4-11.7,27.4-19.6c7.9-7.9,14.1-16.9,18.6-26.8
		c-1.2,0-2.6,0-4.2,0.1s-3.3,0.2-5.1,0.2c-1.8,0.1-3.5,0.2-5.2,0.2c-1.7,0.1-3.1,0.1-4.2,0.1c-0.9,0-2,0.1-3.3,0.2s-2.8,0.2-4.3,0.4
		s-3.1,0.3-4.6,0.5c-1.6,0.2-3,0.4-4.3,0.5l-4.6-7.1c2,0.4,4.6,0.7,7.6,0.9c3,0.2,5.9,0.3,8.4,0.3c5.9,0.1,11.6-0.1,17.3-0.5
		c5.7-0.4,10.7-1.2,15.1-2.2l2.7,2.6c-1.9,4.6-4.2,9-7,13.1C201,32.5,198,36.5,194.6,40.2z M221.1,73.3c3.1,0.2,6,0.9,8.6,2
		s4.9,2.5,6.7,4.2c1.9,1.7,3.3,3.7,4.4,6s1.6,4.7,1.6,7.3c0,2.8-0.6,5.4-1.9,7.9c-1.3,2.4-3,4.5-5.2,6.3s-4.8,3.1-7.8,4.1
		s-6.2,1.5-9.7,1.5s-6.8-0.5-9.7-1.5c-3-1-5.5-2.3-7.7-4.1c-2.1-1.8-3.8-3.8-5.1-6.3c-1.3-2.4-1.9-5-1.9-7.9c0-2.7,0.5-5.1,1.6-7.4
		s2.6-4.3,4.6-6s4.4-3.1,7.1-4.2s5.7-1.7,8.9-1.9c-0.2-0.9-0.6-1.7-1.3-2.3s-2-1.2-3.8-1.7l1.2-2.3c1.8,0.4,3.6,0.7,5.3,1.1
		c1.8,0.3,3.6,0.7,5.4,1.1c-0.3,0.6-0.6,1.3-0.9,2C221.5,71.6,221.2,72.4,221.1,73.3z M234,92.1c0-2.1-0.4-4.1-1.3-6s-2-3.5-3.5-4.9
		c-1.4-1.4-3.2-2.5-5.2-3.3s-4.1-1.2-6.4-1.2s-4.4,0.4-6.3,1.2c-2,0.8-3.7,1.9-5.2,3.3s-2.6,3-3.5,4.9s-1.2,3.9-1.2,6s0.4,4.1,1.2,6
		s2,3.5,3.5,4.9s3.2,2.4,5.2,3.2c2,0.8,4.1,1.2,6.3,1.2c2.3,0,4.5-0.4,6.4-1.2c2-0.8,3.7-1.9,5.2-3.2c1.5-1.4,2.6-3,3.5-4.9
		S234,94.3,234,92.1z M234.6,38.8c-4.7,0.2-9,0.4-13,0.8s-7.5,0.8-10.5,1.5l-3.2-6.8c1.6,0.3,3.6,0.5,6.2,0.7s5,0.2,7.4,0.1
		c2-0.1,4.2-0.1,6.6-0.1s4.6,0,6.5-0.1V13.7c0-2.7-1.2-4.8-3.6-6.3c-2.4-1.6-6.1-2.9-11.1-4.2l1.3-3.2c4,0.5,7.9,1.1,11.9,1.8
		c3.9,0.7,7.5,1.4,10.6,2.1c-0.3,1.4-0.6,3-0.9,4.8s-0.4,3.5-0.4,5v37.4c0,1.4-0.1,3-0.2,4.9c-0.1,1.8-0.3,3.7-0.5,5.5
		c-0.2,1.8-0.4,3.6-0.6,5.2s-0.4,2.9-0.6,3.9l-5.2,0.7c-0.2-1.6-0.4-3.8-0.6-6.5c-0.2-2.7-0.2-5.1-0.2-7.2V38.8H234.6z"/>
	<path class="st0" d="M360,76.6c0,2.9-0.2,5.7-0.5,8.6c-0.3,2.8-0.7,5.6-1.2,8.4l-5.5,0.7c-0.3-2.8-0.5-5.6-0.7-8.4
		s-0.2-5.3-0.2-7.5v-5.2c-3.4,0.1-6.8,0.2-10.2,0.3c-3.4,0.1-6.5,0.2-9.5,0.3c-3,0.1-5.6,0.2-7.9,0.3c-2.3,0.1-4.1,0.2-5.4,0.3
		c-3,0.2-6.1,0.4-9.1,0.6s-6,0.5-8.8,0.9l-3-8.1c3.7,0.4,7.1,0.7,10.4,0.9c3.3,0.2,6.8,0.4,10.4,0.5c2,0.1,4.5,0.1,7.7,0.1
		c3.2,0,6.7,0,10.5-0.1c3.8,0,7.7-0.1,11.8-0.2s8-0.2,11.8-0.3c3.8-0.1,7.3-0.2,10.4-0.3s5.7-0.2,7.7-0.3c5.4-0.2,10.5-0.6,15.4-1
		c4.8-0.4,9.4-1,13.6-1.6l-1.2,7.9c-3.1-0.2-7-0.3-11.5-0.4c-4.6-0.1-9.5-0.2-14.8-0.2c-2.3,0-5.1,0-8.6,0.1
		c-3.5,0-7.3,0.1-11.5,0.3L360,76.6L360,76.6z M391.6,20.2c-2.1-0.1-4.9-0.1-8.3-0.2c-3.4,0-7.1,0-11.1,0.1s-8.1,0.2-12.3,0.3
		s-8.2,0.3-12,0.4c-3.8,0.2-7.1,0.3-10.1,0.4s-5.2,0.2-6.6,0.3c-1,0-2.2,0.1-3.7,0.2c-1.4,0.1-2.9,0.2-4.5,0.4
		c-1.6,0.1-3.1,0.3-4.6,0.4c-1.5,0.2-2.7,0.3-3.8,0.5l-3.3-7.1c1.2,0.2,2.5,0.4,4,0.6s3.1,0.3,4.6,0.4c1.6,0.1,3.1,0.2,4.7,0.3
		c1.6,0.1,2.9,0.1,4.1,0.1c1.9,0,4.3,0,7.4-0.1c3-0.1,6.4-0.2,10.1-0.3c3.7-0.1,7.7-0.3,11.8-0.5c4.2-0.2,8.3-0.4,12.5-0.7
		c4.1-0.3,8.1-0.6,12-0.9s7.4-0.7,10.6-1.1L391.6,20.2z M391.9,108.7c-4.9-0.2-10.2-0.4-15.7-0.5s-11-0.1-16.5-0.1
		c-5.4,0-10.6,0.1-15.5,0.3c-4.9,0.2-9.1,0.4-12.6,0.6c-2.2,0.2-3.8-0.3-4.7-1.3s-1.4-2.4-1.4-3.9v-7.7c0-1.8-0.1-3.3-0.3-4.4
		c-0.2-1.1-0.6-2.1-1.3-2.8c-0.7-0.7-1.7-1.4-3-1.9s-3.2-1.1-5.5-1.7l1.3-2.9c1.2,0.2,2.5,0.3,4,0.5s3.1,0.3,4.6,0.5
		c1.6,0.2,3.1,0.4,4.7,0.6c1.6,0.2,2.9,0.4,4.1,0.5c-0.2,0.9-0.3,2.2-0.4,3.9c-0.1,1.7-0.2,3.3-0.2,4.7v6.9c0,1.7,0.4,2.8,1.2,3.3
		s2.3,0.8,4.6,0.9c3,0.1,6.8,0.1,11.5,0s9.7-0.2,14.8-0.5s10.2-0.5,15.1-0.9c4.9-0.4,9.1-0.9,12.5-1.4L391.9,108.7z M377.4,43.5
		c0,2.5-0.6,4.8-1.9,7c-1.3,2.1-3,4-5.2,5.6s-4.8,2.8-7.8,3.8c-3,0.9-6.2,1.4-9.7,1.4c-3.4,0-6.5-0.5-9.5-1.4s-5.5-2.2-7.7-3.8
		s-3.9-3.5-5.2-5.6s-1.9-4.4-1.9-6.9c0-2.7,0.6-5.1,1.9-7.2c1.3-2.1,3-4,5.2-5.6c2.2-1.6,4.8-2.8,7.7-3.6c3-0.9,6.1-1.3,9.5-1.3
		c3.6,0,6.9,0.5,9.9,1.5s5.6,2.3,7.8,3.9c2.2,1.6,3.9,3.5,5,5.6S377.4,41.2,377.4,43.5z M368.7,8.8c-1.3,0-2.9,0-4.7,0
		s-3.6,0-5.4,0.1C356.8,9,355,9,353.4,9.1c-1.6,0-3,0.1-4,0.1c-0.5,0-1.3,0-2.3,0s-2.1,0-3.3,0.1s-2.4,0.2-3.6,0.2
		c-1.3,0.1-2.4,0.2-3.4,0.4l-3.4-6.8c1.8,0.4,4.1,0.8,6.9,1.1c2.8,0.4,5.3,0.5,7.6,0.5c0.9,0,2.3,0,4-0.1c1.8-0.1,3.7-0.2,5.8-0.3
		s4.3-0.3,6.4-0.5c2.2-0.2,4.2-0.4,6.1-0.6L368.7,8.8z M337.5,43.3c0,1.7,0.4,3.4,1.2,4.9c0.8,1.6,1.9,2.9,3.3,4.2
		c1.4,1.2,3.1,2.2,5,2.9s4,1.1,6.2,1.1s4.2-0.3,6.1-1c1.9-0.7,3.5-1.6,4.9-2.8s2.5-2.6,3.3-4.2c0.8-1.6,1.2-3.3,1.2-5.1
		s-0.4-3.5-1.1-5.2c-0.7-1.6-1.8-3.1-3.2-4.3s-3-2.2-4.9-2.9s-4-1.1-6.4-1.1c-2.2,0-4.2,0.3-6.2,0.9c-1.9,0.6-3.6,1.5-5,2.7
		s-2.5,2.6-3.3,4.3C337.9,39.4,337.5,41.2,337.5,43.3z"/>
</g>
<g>
	<path class="st0" d="M62,235.9c-1.9,5.8-4.8,11.5-8.8,17.3c-4,5.8-8.6,11.2-13.8,16.3c-5.2,5.1-10.7,9.7-16.6,13.8
		c-5.9,4.1-11.7,7.3-17.3,9.6l-2.2-2.5c5-2.7,9.9-5.8,14.7-9.4s9.3-7.6,13.5-12c4.2-4.3,7.9-8.9,11.2-13.7c3.3-4.8,5.9-9.7,7.9-14.7
		c-1.7,0-3.6,0-5.7,0.1c-2.1,0-4.2,0.1-6.3,0.2c-2.1,0.1-3.9,0.2-5.6,0.2c-1.6,0.1-2.9,0.2-3.6,0.2c-0.8,0.1-1.9,0.2-3.2,0.2
		c-1.4,0.1-2.8,0.2-4.3,0.4s-3,0.3-4.6,0.5c-1.5,0.2-2.9,0.5-4,0.8l-4.7-7.5c0.8,0.2,1.8,0.3,3.2,0.4c1.3,0.1,2.8,0.2,4.3,0.4
		c1.6,0.1,3.1,0.2,4.7,0.3c1.6,0.1,3,0.1,4.3,0.1c3.3,0,6.7-0.1,10.1-0.2c3.5-0.2,6.8-0.4,9.9-0.6c3.1-0.2,5.9-0.5,8.4-0.9
		s4.4-0.7,5.7-1.1L62,235.9z M87.9,321.7c0.8-0.2,1.5-0.3,2.2-0.3s1.3-0.1,1.9-0.2l-1.5,6.6c-3.1-0.2-6.7-0.4-10.6-0.5
		s-8-0.2-12.1-0.2s-8.2,0-12.3,0.1s-7.8,0.2-11.2,0.4c-0.2,1.8-0.4,3.4-0.7,4.8l-4.6,0.8c-0.4-1.6-0.7-3.3-0.9-5.3s-0.4-4-0.6-6
		l-1.4-21.5c-0.1-1.5-0.2-2.7-0.5-3.6c-0.2-0.9-0.6-1.7-1.2-2.3c-0.5-0.6-1.3-1.1-2.3-1.5s-2.3-0.9-4-1.4l1.3-2.9
		c10.2,1.2,20.3,1.6,30.4,1.3c10.1-0.3,20.5-0.8,31.2-1.7c-0.3,2.2-0.6,4.8-0.9,7.7c-0.3,2.9-0.6,6-0.9,9.1s-0.5,6.1-0.7,9.1
		C88.2,317,88.1,319.5,87.9,321.7z M81.7,294.1c-2.5-0.1-5.4-0.1-8.8-0.2c-3.4,0-6.9,0-10.4,0.1c-3.6,0.1-7,0.2-10.2,0.3
		c-3.2,0.1-6,0.3-8.1,0.4l0.5,24.9v3.6c2.9,0,5.9,0,9.1-0.1c3.2,0,6.4-0.1,9.6-0.2s6.3-0.2,9.4-0.4c3.1-0.1,6-0.3,8.7-0.5
		L81.7,294.1z M69.7,220.7c3.9,0.5,7.9,1.1,11.8,1.8c4,0.7,7.5,1.4,10.5,2.1c-0.3,1.4-0.6,3-0.8,4.8c-0.2,1.8-0.4,3.5-0.4,5v30.4
		c0,1.4-0.1,3-0.2,4.9c-0.1,1.8-0.3,3.7-0.5,5.5s-0.4,3.6-0.6,5.2s-0.4,2.9-0.6,3.9l-5.2,0.7c-0.2-1.7-0.4-3.9-0.6-6.6
		s-0.2-5.1-0.2-7.3v-36.7c0-2.7-1.2-4.8-3.6-6.3c-2.4-1.6-6.1-2.9-11.1-4.2L69.7,220.7z"/>
	<path class="st0" d="M183.2,248.5c3,0.3,5.9,1.1,8.4,2.3c2.6,1.2,4.8,2.7,6.7,4.6c1.9,1.8,3.3,4,4.4,6.4s1.6,5,1.6,7.7
		c0,4.2-1.2,7.9-3.5,11c1.3,0.2,2.8,0.3,4.5,0.4s3.3,0.1,4.9,0.1c2-0.1,3.6-0.1,4.7-0.2c1.1,0,2.2-0.1,3.1-0.2v-24.8
		c-5.4,0.2-10.6,1-15.6,2.2l-3.3-6.8c1.2,0.3,2.9,0.5,4.9,0.7s4.1,0.2,6.1,0.1c2-0.1,3.6-0.1,4.7-0.2c1.1,0,2.2-0.1,3.1-0.2v-12.2
		c0-2.6-0.8-4.6-2.5-6.2c-1.7-1.5-4.8-2.9-9.4-4.1l1.3-3.2c3.9,0.5,7.3,1,10.3,1.5s6,1.2,9,2c-0.3,1.4-0.6,3-0.8,4.9
		c-0.2,1.8-0.4,3.5-0.4,5.1v56.4c0,2.4-0.1,5.2-0.2,8.2s-0.3,6.1-0.5,9.2s-0.4,6.1-0.6,8.9c-0.2,2.9-0.5,5.3-0.8,7.2l-4.6,0.6
		c-0.2-1.5-0.3-3.2-0.4-5.2s-0.2-4.1-0.2-6.4c-0.1-2.3-0.1-4.6-0.2-7c0-2.4-0.1-4.7-0.1-7v-19.7c-5.2,0.2-10.4,0.9-15.6,2.1l-2.5-5
		c-2.2,2.7-5,4.9-8.6,6.6s-7.5,2.5-11.8,2.5c-3.5,0-6.8-0.5-9.8-1.6s-5.7-2.6-7.9-4.5c-2.2-1.9-3.9-4.1-5.2-6.7
		c-1.3-2.6-1.9-5.4-1.9-8.5c0-2.9,0.6-5.6,1.8-8.1c1.2-2.5,2.8-4.7,4.8-6.6c2-1.9,4.5-3.4,7.3-4.5c2.9-1.1,5.9-1.8,9.2-1.9
		c-0.2-1.1-0.6-2-1.2-2.6c-0.7-0.7-1.9-1.3-3.7-1.9l1.2-2.3c1.7,0.4,3.4,0.7,5.2,1c1.7,0.3,3.5,0.6,5.4,1.1
		c-0.3,0.8-0.6,1.6-0.9,2.3C183.5,246.6,183.3,247.5,183.2,248.5z M196.7,269.1c0-2.4-0.4-4.7-1.3-6.7c-0.9-2.1-2-3.9-3.5-5.4
		c-1.5-1.5-3.3-2.7-5.4-3.6s-4.4-1.3-6.8-1.3s-4.7,0.5-6.8,1.3c-2.1,0.9-3.9,2.1-5.4,3.6c-1.5,1.5-2.7,3.3-3.6,5.4s-1.3,4.3-1.3,6.7
		c0,2.4,0.4,4.6,1.3,6.7c0.9,2,2.1,3.8,3.6,5.3s3.3,2.7,5.4,3.5c2.1,0.9,4.4,1.3,6.8,1.3s4.7-0.4,6.8-1.3c2.1-0.9,3.9-2,5.4-3.5
		s2.7-3.2,3.5-5.3C196.2,273.8,196.7,271.6,196.7,269.1z M226.2,220.7c3.9,0.5,7.6,1.2,11,1.9s6.7,1.4,9.7,2c-0.3,1.4-0.6,3-0.8,4.8
		c-0.2,1.8-0.4,3.5-0.4,5V300c0,2.4-0.1,5.2-0.2,8.2s-0.3,6.1-0.4,9.2c-0.2,3.1-0.4,6.1-0.6,8.9c-0.2,2.9-0.5,5.3-0.8,7.2l-4.8,0.6
		c-0.2-1.5-0.3-3.2-0.4-5.3c-0.1-2-0.2-4.2-0.3-6.4c-0.1-2.3-0.2-4.6-0.2-6.9s-0.1-4.6-0.1-6.9v-74.2c0-2.6-1-4.6-2.9-6.2
		c-1.9-1.6-5.3-3-10.3-4.3L226.2,220.7z"/>
	<path class="st0" d="M344.9,284.5c0,2.8-0.2,5.5-0.5,8s-0.7,4.7-1.2,6.6l-5,0.7c-0.3-1.6-0.6-3.8-0.9-6.4c-0.3-2.6-0.5-5-0.5-7.2
		v-5.4c-1.9,0.1-3.8,0.3-5.8,0.4s-4,0.2-6,0.4c-0.9,0.1-2,0.2-3.5,0.3c-1.4,0.1-3,0.3-4.6,0.5s-3.3,0.4-5,0.6s-3.2,0.4-4.5,0.6
		l-4.5-7.9c2.6,0.4,5.4,0.7,8.4,0.9c3,0.2,5.9,0.3,8.4,0.2c5.9-0.2,11.4-0.4,16.6-0.7c5.2-0.3,10.2-0.7,14.9-1.2
		c4.8-0.5,9.4-1,13.9-1.6s9.1-1.3,13.7-2.2v3.2c-6.3,1.3-12.3,2.3-17.9,3.3c-5.6,0.9-11,1.7-16.2,2.4v4.5H344.9z M343.5,231.7
		c3,0.3,5.8,1,8.4,2.1c2.5,1.1,4.7,2.4,6.6,4c1.8,1.6,3.3,3.5,4.3,5.6s1.5,4.3,1.5,6.7c0,2.7-0.6,5.2-1.9,7.5
		c-1.3,2.3-2.9,4.2-5.1,5.9c-2.1,1.7-4.7,3-7.7,3.9s-6.2,1.4-9.6,1.4c-3.5,0-6.7-0.5-9.7-1.4s-5.4-2.2-7.6-3.9
		c-2.1-1.7-3.8-3.7-5-5.9c-1.2-2.3-1.8-4.8-1.8-7.5c0-2.5,0.5-4.8,1.6-7s2.6-4.1,4.6-5.7s4.4-3,7.1-4s5.7-1.6,9-1.8
		c-0.1-0.9-0.4-1.5-1.1-2.1c-0.6-0.5-1.7-1-3.2-1.6l0.8-2.1c1.7,0.3,3.4,0.6,4.9,0.8c1.6,0.2,3.2,0.5,5,0.8
		c-0.3,0.8-0.6,1.5-0.8,2.2C343.8,230.2,343.6,231,343.5,231.7z M356.4,249.7c0-2-0.4-3.9-1.2-5.7s-2-3.3-3.4-4.6s-3.1-2.4-5.1-3.1
		c-2-0.7-4-1.1-6.2-1.1c-2.3,0-4.4,0.4-6.3,1.1c-1.9,0.7-3.6,1.8-5,3.1s-2.6,2.9-3.4,4.6s-1.2,3.7-1.2,5.7c0,2.1,0.4,4,1.2,5.8
		c0.8,1.8,2,3.3,3.4,4.6c1.4,1.3,3.1,2.3,5,3s4,1.1,6.3,1.1s4.4-0.4,6.3-1.1c2-0.7,3.6-1.7,5-3s2.5-2.8,3.3-4.6
		C355.9,253.7,356.4,251.8,356.4,249.7z M400.4,329.4c-4.9-0.2-10-0.4-15.2-0.5s-10.4-0.1-15.4-0.1s-9.8,0.1-14.4,0.3
		c-4.6,0.2-8.6,0.4-12.1,0.6c-2.2,0.2-3.8-0.3-4.7-1.3c-1-1.1-1.5-2.4-1.5-3.9v-8.3c0-1.8-0.1-3.3-0.3-4.4s-0.6-2.1-1.3-2.8
		c-0.7-0.7-1.7-1.4-3-1.9s-3.2-1.1-5.5-1.7l1.4-3c1.2,0.2,2.5,0.3,4,0.5s3,0.4,4.6,0.6s3.2,0.4,4.7,0.6s2.9,0.4,4,0.5
		c-0.2,0.9-0.3,2.2-0.4,3.9c-0.1,1.7-0.2,3.3-0.2,4.7v7.5c0,1.7,0.4,2.8,1.2,3.3s2.3,0.8,4.6,0.9c3,0.1,6.7,0.1,11.1,0
		c4.4-0.1,9-0.2,13.8-0.5c4.8-0.2,9.5-0.5,14.1-0.9s8.6-0.9,12.1-1.4L400.4,329.4z M386.5,292c-5,0.2-10,0.5-15.1,0.9
		c-5,0.4-9.3,1-12.7,1.6l-3.2-6.7c1.6,0.3,3.6,0.5,6.2,0.7c2.6,0.2,5,0.2,7.4,0.1c1.4,0,2.9,0,4.5-0.1c1.6,0,3.1-0.1,4.7-0.2
		c1.6-0.1,3-0.2,4.5-0.2c1.4-0.1,2.7-0.2,3.8-0.2v-53.4c0-2.7-1.2-4.8-3.6-6.3c-2.4-1.6-6.1-2.9-11.1-4.2l1.4-3.2
		c3.9,0.5,7.9,1.1,11.8,1.8c4,0.7,7.5,1.4,10.5,2.1c-0.3,1.4-0.6,3-0.8,4.8s-0.4,3.5-0.4,5v50.3c0,1.4-0.1,3.2-0.2,5.3
		c-0.1,2.1-0.3,4.4-0.5,6.6c-0.2,2.3-0.4,4.4-0.6,6.4s-0.5,3.6-0.7,4.7l-5.2,0.7c-0.2-0.9-0.3-2-0.4-3.4c-0.1-1.4-0.2-2.9-0.2-4.5
		c-0.1-1.6-0.1-3.1-0.2-4.6C386.5,294.5,386.5,293.2,386.5,292z"/>
</g>
</svg>
