<?xml version="1.0" encoding="utf-8"?>
<!-- Generator: Adobe Illustrator 26.3.1, SVG Export Plug-In . SVG Version: 6.00 Build 0)  -->
<svg version="1.1" id="Layer_1" xmlns="http://www.w3.org/2000/svg" xmlns:xlink="http://www.w3.org/1999/xlink" x="0px" y="0px"
	 viewBox="0 0 970 178" style="enable-background:new 0 0 970 178;" xml:space="preserve">
<style type="text/css">
	.st0{fill:#FFFFFF;}
</style>
<g>
	<path class="st0" d="M133.2,31.9c-0.8-2.3-1.5-3.9-2.4-4.7c-0.8-0.8-2-1.2-3.4-1.2v-1.9c0.7,0.1,1.6,0.1,2.8,0.1s2.4,0,3.8,0
		c1.3,0,2.5,0,3.8,0c1.2,0,2.3-0.1,3.1-0.1V26c-1.8,0-3,0.3-3.5,1c-0.6,0.7-0.6,1.8-0.1,3.3l8.4,21.7l7.9-20.4
		c0.3-1.4,0.1-2.6-0.6-3.7c-0.7-1.1-2.2-1.7-4.4-1.8v-2c2.1,0.1,4.4,0.2,7.1,0.2c2.6,0,5-0.1,6.9-0.2v2c-2,0.1-3.3,0.5-3.8,1.2
		s-0.5,2,0.1,4l7.8,20.7l8.2-20.9c0.8-1.9,1-3.2,0.5-4c-0.5-0.7-1.9-1.1-4-1.2v-1.9c1.9,0.1,3.8,0.2,5.7,0.2c1.9,0,3.8-0.1,5.6-0.2
		V26c-1.7,0-2.9,0.5-3.7,1.5s-1.5,2.3-2.1,4l-10.8,26.9h-1L155,32.9l-10.2,25.5h-1L133.2,31.9z"/>
	<path class="st0" d="M197.3,50.9c0,2,0.3,3.3,1,3.9c0.7,0.6,2,0.8,4.1,0.8v1.8c-0.7,0-1.3,0-1.8,0s-1.1,0-1.7-0.1
		c-0.6,0-1.1,0-1.7,0c-0.6,0-1.2,0-1.9,0c-0.7,0-1.3,0-1.9,0c-0.6,0-1.2,0-1.7,0c-0.6,0-1.2,0-1.8,0c-0.6,0-1.2,0-1.9,0v-1.8
		c2.1,0,3.4-0.3,4.1-0.8c0.7-0.6,1-1.9,1-3.9V33.7c0-1.3,0-2.3-0.1-3c-0.1-0.7-0.3-1.3-0.6-1.8s-0.7-0.7-1.3-0.8s-1.3-0.2-2.3-0.2
		v-1.5c1.5-0.2,2.9-0.6,4.1-1.1c1.2-0.5,2.4-1.2,3.5-2.2h1.3c-0.1,1.3-0.2,2.6-0.2,4c0,1.4,0,2.7,0,3.8V50.9z M191.5,7.7
		c0-0.9,0.3-1.8,1-2.5c0.7-0.7,1.5-1.1,2.4-1.1c0.9,0,1.8,0.4,2.5,1.1s1.1,1.5,1.1,2.5c0,0.9-0.4,1.7-1.1,2.4c-0.7,0.7-1.5,1-2.5,1
		c-0.9,0-1.7-0.3-2.4-1C191.8,9.5,191.5,8.7,191.5,7.7z"/>
	<path class="st0" d="M217.4,48.2c0,2.7,0.4,4.6,1.2,5.6c0.8,1,1.9,1.5,3.2,1.5c0.4,0,0.9-0.1,1.6-0.2s1.3-0.3,1.9-0.6
		c0.7-0.2,1.2-0.5,1.8-0.7c0.5-0.2,0.9-0.5,1.2-0.7l0.6,1c-1.4,1.4-2.8,2.5-4.3,3.3c-1.5,0.8-3.1,1.2-4.9,1.2
		c-2.1,0-3.7-0.6-4.9-1.8c-1.2-1.2-1.8-2.9-1.8-5.1V28.1h-4.9v-1.3c2.3-0.7,4.1-1.8,5.3-3.4c1.2-1.6,2-3.9,2.5-6.9h1.5V25h11.2v3.1
		h-11.2V48.2z"/>
	<path class="st0" d="M239.1,11c0-1.2-0.1-2.2-0.2-2.9c-0.1-0.7-0.3-1.3-0.7-1.7c-0.3-0.4-0.8-0.6-1.4-0.7c-0.6-0.1-1.4-0.1-2.4-0.1
		V4.1c1.5-0.3,3-0.7,4.4-1.3c1.4-0.6,2.7-1.4,3.8-2.4h1.3c-0.1,1.3-0.2,2.6-0.3,4c0,1.4-0.1,2.7-0.1,3.8v22.5
		c0.7-0.8,1.5-1.6,2.4-2.5c0.9-0.9,1.9-1.7,2.9-2.5c1.1-0.7,2.2-1.4,3.4-1.9c1.2-0.5,2.4-0.8,3.7-0.8c2.9,0,5.2,1.1,6.8,3.2
		c1.6,2.2,2.5,4.9,2.5,8.1v15.8c0,1.1,0,2,0.1,2.7s0.3,1.3,0.6,1.7c0.3,0.4,0.8,0.7,1.5,0.9c0.7,0.2,1.7,0.2,2.9,0.2v1.8
		c-0.7,0-1.3,0-1.9,0c-0.6,0-1.2,0-1.7-0.1c-0.6,0-1.1,0-1.8,0c-0.6,0-1.3,0-2,0s-1.3,0-1.9,0c-0.6,0-1.2,0-1.7,0s-1.1,0-1.7,0
		c-0.6,0-1.2,0-1.9,0v-1.8c1,0,1.9,0,2.6-0.1c0.7-0.1,1.2-0.3,1.6-0.7c0.4-0.4,0.6-0.9,0.8-1.7c0.1-0.7,0.2-1.7,0.2-3V38.7
		c0-2.3-0.1-4.2-0.4-5.7c-0.3-1.5-0.7-2.7-1.3-3.6c-0.6-0.9-1.3-1.5-2.3-1.9c-1-0.4-2.1-0.5-3.6-0.5c-1.7,0-3.5,0.6-5.4,1.9
		c-1.9,1.3-3.4,2.7-4.5,4.3v16.8c0,2.2,0.3,3.7,0.9,4.4c0.6,0.7,2,1.1,4.3,1.1v1.8c-0.7,0-1.3,0-1.9,0s-1.1,0-1.7-0.1
		c-0.6,0-1.1,0-1.7,0c-0.6,0-1.2,0-1.9,0c-0.7,0-1.3,0-1.9,0c-0.6,0-1.2,0-1.7,0c-0.6,0-1.2,0-1.8,0c-0.6,0-1.2,0-1.9,0v-1.8
		c2.1,0,3.5-0.4,4.1-1.1c0.6-0.7,0.9-2.2,0.9-4.4V11z"/>
	<path class="st0" d="M304.7,11c0-1.2-0.1-2.2-0.2-2.9c-0.1-0.7-0.3-1.3-0.7-1.7c-0.3-0.4-0.8-0.6-1.4-0.7c-0.6-0.1-1.4-0.1-2.4-0.1
		V4.1c1.5-0.3,3-0.7,4.4-1.3c1.4-0.6,2.7-1.4,3.8-2.4h1.3c-0.1,1.3-0.2,2.6-0.3,4c0,1.4-0.1,2.7-0.1,3.8v22.5
		c0.7-0.8,1.5-1.6,2.4-2.5c0.9-0.9,1.9-1.7,2.9-2.5c1.1-0.7,2.2-1.4,3.4-1.9c1.2-0.5,2.4-0.8,3.7-0.8c2.9,0,5.2,1.1,6.8,3.2
		c1.6,2.2,2.5,4.9,2.5,8.1v15.8c0,1.1,0,2,0.1,2.7s0.3,1.3,0.6,1.7c0.3,0.4,0.8,0.7,1.5,0.9c0.7,0.2,1.7,0.2,2.9,0.2v1.8
		c-0.7,0-1.3,0-1.9,0c-0.6,0-1.2,0-1.7-0.1c-0.6,0-1.1,0-1.8,0c-0.6,0-1.3,0-2,0s-1.3,0-1.9,0c-0.6,0-1.2,0-1.7,0s-1.1,0-1.7,0
		c-0.6,0-1.2,0-1.9,0v-1.8c1,0,1.9,0,2.6-0.1c0.7-0.1,1.2-0.3,1.6-0.7c0.4-0.4,0.6-0.9,0.8-1.7c0.1-0.7,0.2-1.7,0.2-3V38.7
		c0-2.3-0.1-4.2-0.4-5.7c-0.3-1.5-0.7-2.7-1.3-3.6c-0.6-0.9-1.3-1.5-2.3-1.9c-1-0.4-2.1-0.5-3.6-0.5c-1.7,0-3.5,0.6-5.4,1.9
		c-1.9,1.3-3.4,2.7-4.5,4.3v16.8c0,2.2,0.3,3.7,0.9,4.4c0.6,0.7,2,1.1,4.3,1.1v1.8c-0.7,0-1.3,0-1.9,0s-1.1,0-1.7-0.1
		c-0.6,0-1.1,0-1.7,0c-0.6,0-1.2,0-1.9,0c-0.7,0-1.3,0-1.9,0c-0.6,0-1.2,0-1.7,0c-0.6,0-1.2,0-1.8,0c-0.6,0-1.2,0-1.9,0v-1.8
		c2.1,0,3.5-0.4,4.1-1.1c0.6-0.7,0.9-2.2,0.9-4.4V11z"/>
	<path class="st0" d="M347,36.6c-0.1,0.7-0.2,1.5-0.2,2.2c0,0.8,0,1.8,0.1,3.1c0.2,3.6,1.3,6.6,3.3,9c2,2.4,4.7,3.6,8.1,3.6
		c2.3,0,4.4-0.5,6.1-1.4c1.7-0.9,3.1-2,4.3-3.4l1,0.6c-1.3,2.3-3.1,4.3-5.3,5.9c-2.2,1.6-4.7,2.4-7.5,2.4c-2,0-3.9-0.4-5.6-1.3
		c-1.7-0.8-3.2-2-4.5-3.5c-1.3-1.5-2.3-3.3-3-5.3c-0.7-2-1.1-4.2-1.1-6.6c0-3,0.4-5.6,1.1-7.9c0.7-2.3,1.8-4.3,3-5.9
		c1.3-1.6,2.8-2.9,4.6-3.7s3.6-1.3,5.7-1.3c1.4,0,2.8,0.2,4.2,0.7c1.4,0.5,2.7,1.2,3.8,2.1c1.1,1,2,2.2,2.7,3.7s1.1,3.2,1.1,5.2
		c0,0.6-0.1,1-0.2,1.2c-0.1,0.3-0.5,0.4-1.1,0.5H347z M362.1,34.3c0.8,0,1.5-0.1,1.8-0.4c0.4-0.3,0.6-0.7,0.6-1.4
		c0-0.7-0.2-1.5-0.5-2.4s-0.8-1.6-1.4-2.3c-0.7-0.7-1.5-1.3-2.4-1.8c-0.9-0.5-2-0.7-3.2-0.7c-2.7,0-4.8,0.8-6.4,2.5
		c-1.6,1.7-2.7,3.8-3.2,6.5H362.1z"/>
	<path class="st0" d="M407.3,54.7c-1,1-2.1,1.9-3.3,2.7c-1.1,0.8-2.3,1.2-3.5,1.2c-1.1,0-2-0.5-2.7-1.5c-0.7-1-1.1-2.5-1.2-4.5
		c-1.7,1.8-3.7,3.3-5.8,4.4s-4.3,1.7-6.6,1.7c-2.1,0-3.9-0.7-5.3-2.1c-1.5-1.4-2.1-3.1-2-5.2c0-1.7,0.6-3.2,1.6-4.5
		c1-1.2,2.4-2.3,4.2-3.3c1.7-0.9,3.8-1.8,6.2-2.6c2.4-0.8,5-1.6,7.8-2.5v-4.9c0-2.1-0.5-3.8-1.4-5.1c-1-1.3-2.8-2-5.6-2
		c-2,0-3.7,0.6-5.2,1.7c-1.5,1.1-2.3,2.5-2.4,4.2c0,1.1-0.2,1.9-0.7,2.5c-0.4,0.5-1,0.8-1.7,0.8c-0.6,0-1-0.2-1.3-0.7
		c-0.3-0.5-0.5-1.1-0.5-1.8c0-1.3,0.6-2.5,1.8-3.7c1.2-1.2,3.1-2.5,5.8-3.9c1.5-0.8,2.8-1.5,3.8-1.8c1-0.4,2.1-0.6,3.2-0.6
		c2.2,0,4.2,0.7,5.9,2c1.7,1.4,2.5,3.3,2.5,5.9v19.2c0,2.6,0.6,4.1,1.7,4.5c1.1,0.4,2.6,0,4.4-1.3L407.3,54.7z M396.6,40.2
		c-5.2,1.5-9,3-11.6,4.3c-2.6,1.3-3.8,3-3.8,5.1c0,2.2,0.6,3.6,1.7,4.4c1.1,0.8,2.6,1.2,4.6,1.2c1.7,0,3.4-0.5,5-1.4
		c1.6-0.9,3-2,4.1-3.3V40.2z"/>
	<path class="st0" d="M423.5,30.8c0.7-0.9,1.5-1.9,2.4-2.8c0.9-0.9,1.8-1.7,2.7-2.5c0.9-0.7,1.9-1.3,2.7-1.7
		c0.9-0.4,1.7-0.7,2.5-0.7c1.1,0,2.1,0.3,3,0.9c0.8,0.6,1.3,1.4,1.3,2.4c0,1.1-0.3,2-1,2.6c-0.7,0.6-1.3,0.9-1.9,0.9
		c-0.6,0-1-0.1-1.3-0.2c-0.3-0.2-0.7-0.4-1-0.6c-0.3-0.2-0.7-0.4-1.1-0.6c-0.4-0.2-0.9-0.3-1.6-0.3c-0.4,0-1,0.2-1.8,0.6
		c-0.8,0.4-1.5,1-2.2,1.6c-0.8,0.7-1.4,1.4-1.9,2.3c-0.5,0.9-0.8,1.7-0.8,2.6v14.9c0,1.1,0.1,2.1,0.2,2.8c0.2,0.7,0.5,1.3,1.1,1.7
		c0.6,0.4,1.4,0.6,2.4,0.8c1,0.1,2.4,0.2,4.1,0.2v1.8c-1.1,0-2.4-0.1-4-0.1c-1.6,0-3.2,0-4.9,0s-3.3,0-4.9,0c-1.6,0-2.9,0.1-4,0.1
		v-1.8c2.4,0,3.9-0.3,4.6-0.9c0.7-0.6,1.1-2.1,1.1-4.5V33.7c0-1.3,0-2.3-0.1-3c-0.1-0.7-0.3-1.3-0.6-1.8s-0.7-0.7-1.3-0.8
		s-1.3-0.2-2.3-0.2v-1.5c1.5-0.2,2.9-0.6,4.1-1.1c1.2-0.5,2.4-1.2,3.5-2.2h1.3c-0.1,1.3-0.2,2.6-0.2,3.9
		C423.6,28.4,423.5,29.7,423.5,30.8z"/>
	<path class="st0" d="M452.1,48.2c0,2.7,0.4,4.6,1.2,5.6c0.8,1,1.9,1.5,3.2,1.5c0.4,0,0.9-0.1,1.6-0.2s1.3-0.3,1.9-0.6
		c0.7-0.2,1.2-0.5,1.8-0.7c0.5-0.2,0.9-0.5,1.2-0.7l0.6,1c-1.4,1.4-2.8,2.5-4.3,3.3c-1.5,0.8-3.1,1.2-4.9,1.2
		c-2.1,0-3.7-0.6-4.9-1.8c-1.2-1.2-1.8-2.9-1.8-5.1V28.1h-4.9v-1.3c2.3-0.7,4.1-1.8,5.3-3.4c1.2-1.6,2-3.9,2.5-6.9h1.5V25h11.2v3.1
		h-11.2V48.2z"/>
	<path class="st0" d="M471.6,47.3c0.1,1,0.4,2,0.7,3.1c0.3,1.1,0.8,2.1,1.4,3c0.6,0.9,1.4,1.6,2.4,2.2c1,0.6,2.3,0.8,3.9,0.8
		c2.7,0,4.5-0.6,5.5-1.7c1-1.1,1.5-2.4,1.5-3.8c0-1.1-0.2-2-0.7-2.8c-0.4-0.8-1-1.5-1.7-2.1c-0.7-0.6-1.5-1.2-2.5-1.7
		c-0.9-0.5-1.9-1-2.9-1.5c-2.4-1.3-4.5-2.7-6.2-4.3c-1.7-1.6-2.6-3.6-2.6-6c0-1.2,0.3-2.4,0.8-3.5c0.5-1.1,1.2-2.1,2.2-3
		c0.9-0.8,2.1-1.5,3.4-2.1c1.3-0.5,2.8-0.8,4.5-0.8c1.1,0,2.4,0.2,3.8,0.5c1.4,0.3,2.7,0.8,4,1.5l0.6,7.7h-1.5
		c-0.3-2.4-1.1-4.2-2.2-5.5c-1.2-1.3-3-1.9-5.3-1.9c-1.8,0-3.4,0.5-4.8,1.4c-1.4,0.9-2,2.1-2,3.7c0,1.1,0.3,2.1,0.8,2.9
		c0.5,0.8,1.2,1.6,2,2.2c0.8,0.6,1.8,1.2,2.9,1.7c1.1,0.5,2.2,1,3.3,1.5c1.1,0.5,2.1,1.1,3.2,1.6c1,0.6,1.9,1.2,2.7,2
		c0.7,0.8,1.4,1.6,1.9,2.6c0.5,1,0.7,2.2,0.7,3.5c0,1.3-0.2,2.5-0.7,3.7c-0.5,1.2-1.2,2.3-2.2,3.2c-1,1-2.2,1.8-3.7,2.3
		c-1.5,0.6-3.3,0.8-5.3,0.8c-1.4,0-2.9-0.2-4.5-0.6c-1.6-0.4-3-1-4.1-1.7l-0.8-8.9H471.6z"/>
	<path class="st0" d="M542.1,25v3.1h-9.6v22.7c0,2.1,0.5,3.4,1.6,3.9c1.1,0.6,2.9,0.8,5.3,0.8v1.8c-1.2,0-2.6-0.1-4.1-0.1
		c-1.5,0-3.1,0-4.7,0c-1.5,0-3.1,0-4.6,0c-1.5,0-2.8,0.1-3.9,0.1v-1.8c2.1,0,3.6-0.4,4.6-1.1c1-0.7,1.4-2,1.4-3.8V28.1h-5.3v-1.4
		c1.2-0.1,2.4-0.5,3.6-1.2c1.2-0.6,1.8-1.8,1.8-3.4c0-1.3,0.1-2.7,0.4-4.3c0.2-1.6,0.6-3.2,1.1-4.8c0.5-1.5,1.1-3,1.8-4.5
		c0.7-1.4,1.6-2.6,2.6-3.6c1.8-1.9,3.6-3.2,5.2-3.9c1.6-0.7,2.7-1.1,3.3-1.1c1.1,0,1.9,0.2,2.5,0.7c0.6,0.5,0.9,1.2,0.9,2.2
		c0,0.8-0.3,1.5-1,1.9c-0.7,0.4-1.3,0.6-1.8,0.6c-0.4,0-0.7,0-0.9-0.1c-0.2-0.1-0.5-0.2-0.8-0.2c-0.3-0.1-0.7-0.2-1.1-0.3
		c-0.5-0.1-1.1-0.1-1.8-0.1c-1.1,0-2,0.3-2.7,0.9c-0.7,0.6-1.3,1.4-1.9,2.2c-0.5,0.9-0.8,1.8-1,2.8s-0.3,1.9-0.3,2.6V25H542.1z"/>
	<path class="st0" d="M573.9,51.8c-2.2,1.8-4.6,3.4-7,4.8c-2.4,1.4-4.8,2-7.2,2c-0.9,0-1.8-0.2-2.7-0.5c-0.9-0.3-1.7-0.8-2.5-1.6
		c-0.7-0.7-1.3-1.6-1.7-2.7c-0.4-1.1-0.7-2.5-0.7-4.1V30.2c0-1.6-0.3-2.7-0.9-3.2c-0.6-0.5-1.8-0.9-3.6-0.9v-1.3c0.7,0,1.3,0,2-0.1
		c0.7,0,1.4-0.1,2.1-0.1c0.7,0,1.5-0.1,2.3-0.2c0.8-0.1,1.7-0.2,2.7-0.2c-0.1,0.9-0.2,2-0.2,3.2c0,1.2,0,2.2,0,2.9v15.6
		c0,3.7,0.5,6.1,1.4,7.2c1,1.2,2.5,1.8,4.6,1.8c1.8,0,3.7-0.5,5.8-1.4c2.1-0.9,3.9-2.2,5.6-3.7V30.2c0-1.6-0.4-2.7-1.3-3.2
		c-0.9-0.5-2.2-0.9-3.9-0.9v-1.3c0.7,0,1.4,0,2.1-0.1c0.7,0,1.5-0.1,2.3-0.1c0.8,0,1.6-0.1,2.5-0.2c0.9-0.1,1.8-0.2,2.8-0.2
		c-0.1,0.9-0.2,2-0.2,3.2c0,1.2,0,2.2,0,2.9v21.9c0,1.5,0.4,2.4,1.1,2.7c0.7,0.3,2,0.4,3.8,0.2v1.3c-0.5,0.1-1,0.2-1.7,0.4
		c-0.7,0.2-1.4,0.4-2.1,0.6c-0.8,0.2-1.6,0.4-2.4,0.6s-1.5,0.4-2.2,0.6c-0.3,0.1-0.5,0.1-0.6,0c-0.1-0.1-0.2-0.3-0.2-0.6V51.8z"/>
	<path class="st0" d="M594.9,11c0-1.2-0.1-2.2-0.2-2.9c-0.1-0.7-0.4-1.3-0.7-1.7c-0.3-0.4-0.8-0.6-1.4-0.7c-0.6-0.1-1.4-0.1-2.4-0.1
		V4.1c1.5-0.3,3-0.7,4.4-1.3c1.4-0.6,2.7-1.4,3.8-2.4h1.3c-0.1,1.3-0.2,2.6-0.3,4c0,1.4-0.1,2.7-0.1,3.8v41.9c0,2,0.3,3.4,1,4.2
		c0.7,0.8,2,1.2,4.1,1.2v1.8c-1,0-2.2,0-3.5,0c-1.3,0-2.6,0-3.8,0c-1.3,0-2.6,0-3.8,0c-1.2,0-2.3,0-3.3,0.1v-1.8
		c2.1,0,3.5-0.4,4.1-1.1c0.6-0.7,0.9-2.2,0.9-4.3V11z"/>
	<path class="st0" d="M616.1,11c0-1.2-0.1-2.2-0.2-2.9c-0.1-0.7-0.4-1.3-0.7-1.7c-0.3-0.4-0.8-0.6-1.4-0.7c-0.6-0.1-1.4-0.1-2.4-0.1
		V4.1c1.5-0.3,3-0.7,4.4-1.3c1.4-0.6,2.7-1.4,3.8-2.4h1.3c-0.1,1.3-0.2,2.6-0.3,4c0,1.4-0.1,2.7-0.1,3.8v41.9c0,2,0.3,3.4,1,4.2
		c0.7,0.8,2,1.2,4.1,1.2v1.8c-1,0-2.2,0-3.5,0c-1.3,0-2.6,0-3.8,0c-1.3,0-2.6,0-3.8,0c-1.2,0-2.3,0-3.3,0.1v-1.8
		c2.1,0,3.5-0.4,4.1-1.1c0.6-0.7,0.9-2.2,0.9-4.3V11z"/>
	<path class="st0" d="M690.3,40.6c0,2.5-0.4,4.8-1.3,7c-0.9,2.2-2.1,4.1-3.6,5.7c-1.5,1.6-3.2,2.9-5.2,3.9c-2,0.9-4.1,1.4-6.4,1.4
		c-2.3,0-4.6-0.4-6.7-1.2s-4-2-5.6-3.5c-1.6-1.5-2.9-3.3-3.8-5.5c-0.9-2.2-1.4-4.6-1.4-7.3c0-2.4,0.4-4.7,1.2-6.9
		c0.8-2.2,2-4.1,3.4-5.7c1.5-1.6,3.3-2.9,5.3-3.8c2-1,4.2-1.4,6.6-1.4c2.4,0,4.7,0.4,6.9,1.2c2.1,0.8,4,2,5.5,3.6
		c1.5,1.5,2.8,3.3,3.7,5.5S690.3,38,690.3,40.6z M685.1,41.4c0-1.7-0.2-3.6-0.6-5.5c-0.4-1.9-1.1-3.7-2-5.3c-1-1.6-2.2-3-3.8-4
		c-1.5-1.1-3.4-1.6-5.6-1.6c-2.1,0-3.9,0.5-5.4,1.4c-1.5,0.9-2.7,2.1-3.6,3.6c-0.9,1.5-1.5,3.2-1.9,5c-0.4,1.8-0.6,3.6-0.6,5.3
		c0,1.6,0.2,3.4,0.6,5.3s1.1,3.7,2,5.3c0.9,1.6,2.2,3,3.7,4.1c1.5,1.1,3.4,1.7,5.7,1.7c2.1,0,3.9-0.5,5.3-1.4
		c1.5-0.9,2.6-2.2,3.5-3.7c0.9-1.5,1.6-3.1,2-4.9C684.9,44.8,685.1,43.1,685.1,41.4z"/>
	<path class="st0" d="M717.7,25v3.1h-9.6v22.7c0,2.1,0.5,3.4,1.6,3.9c1.1,0.6,2.9,0.8,5.3,0.8v1.8c-1.2,0-2.6-0.1-4.1-0.1
		c-1.5,0-3.1,0-4.7,0c-1.5,0-3.1,0-4.6,0c-1.5,0-2.8,0.1-3.9,0.1v-1.8c2.1,0,3.6-0.4,4.6-1.1c1-0.7,1.4-2,1.4-3.8V28.1h-5.3v-1.4
		c1.2-0.1,2.4-0.5,3.6-1.2c1.2-0.6,1.8-1.8,1.8-3.4c0-1.3,0.1-2.7,0.4-4.3c0.2-1.6,0.6-3.2,1.1-4.8c0.5-1.5,1.1-3,1.8-4.5
		c0.7-1.4,1.6-2.6,2.6-3.6c1.8-1.9,3.6-3.2,5.2-3.9c1.6-0.7,2.7-1.1,3.3-1.1c1.1,0,1.9,0.2,2.5,0.7c0.6,0.5,0.9,1.2,0.9,2.2
		c0,0.8-0.3,1.5-1,1.9c-0.7,0.4-1.3,0.6-1.8,0.6c-0.4,0-0.7,0-0.9-0.1c-0.2-0.1-0.5-0.2-0.8-0.2c-0.3-0.1-0.7-0.2-1.1-0.3
		c-0.5-0.1-1.1-0.1-1.8-0.1c-1.1,0-2,0.3-2.7,0.9c-0.7,0.6-1.3,1.4-1.9,2.2c-0.5,0.9-0.8,1.8-1,2.8s-0.3,1.9-0.3,2.6V25H717.7z"/>
	<path class="st0" d="M751.7,33.7c0-1.3,0-2.3-0.1-3c-0.1-0.7-0.3-1.3-0.6-1.8s-0.7-0.7-1.3-0.8s-1.3-0.2-2.3-0.2v-1.5
		c1.5-0.2,2.9-0.6,4.1-1.1c1.2-0.5,2.4-1.2,3.5-2.2h1.3c-0.1,1.3-0.2,2.6-0.2,4c0,1.4,0,2.7,0,3.8v28.6c0,2.3-0.3,4.3-0.8,6
		c-0.6,1.7-1.3,3-2.2,4.1c-0.9,1.2-2,2.1-3.3,2.8c-1.2,0.7-2.5,1.2-3.9,1.7l-0.5-1.3c2.5-1.3,4.2-2.8,5.1-4.7
		c0.9-1.9,1.3-4.5,1.3-7.8V33.7z M750.4,7.7c0-0.9,0.3-1.8,1-2.5c0.7-0.7,1.5-1.1,2.4-1.1c0.9,0,1.8,0.4,2.5,1.1s1.1,1.5,1.1,2.5
		c0,0.9-0.4,1.7-1.1,2.4c-0.7,0.7-1.5,1-2.5,1c-0.9,0-1.7-0.3-2.4-1C750.7,9.5,750.4,8.7,750.4,7.7z"/>
	<path class="st0" d="M802.5,40.6c0,2.5-0.4,4.8-1.3,7c-0.9,2.2-2.1,4.1-3.6,5.7c-1.5,1.6-3.2,2.9-5.2,3.9c-2,0.9-4.1,1.4-6.4,1.4
		c-2.3,0-4.6-0.4-6.7-1.2s-4-2-5.6-3.5c-1.6-1.5-2.9-3.3-3.8-5.5c-0.9-2.2-1.4-4.6-1.4-7.3c0-2.4,0.4-4.7,1.2-6.9
		c0.8-2.2,2-4.1,3.4-5.7c1.5-1.6,3.3-2.9,5.3-3.8c2-1,4.2-1.4,6.6-1.4c2.4,0,4.7,0.4,6.9,1.2c2.1,0.8,4,2,5.5,3.6
		c1.5,1.5,2.8,3.3,3.7,5.5S802.5,38,802.5,40.6z M797.3,41.4c0-1.7-0.2-3.6-0.6-5.5c-0.4-1.9-1.1-3.7-2-5.3c-1-1.6-2.2-3-3.8-4
		c-1.5-1.1-3.4-1.6-5.6-1.6c-2.1,0-3.9,0.5-5.4,1.4c-1.5,0.9-2.7,2.1-3.6,3.6c-0.9,1.5-1.5,3.2-1.9,5c-0.4,1.8-0.6,3.6-0.6,5.3
		c0,1.6,0.2,3.4,0.6,5.3s1.1,3.7,2,5.3c0.9,1.6,2.2,3,3.7,4.1c1.5,1.1,3.4,1.7,5.7,1.7c2.1,0,3.9-0.5,5.3-1.4
		c1.5-0.9,2.6-2.2,3.5-3.7c0.9-1.5,1.6-3.1,2-4.9C797.1,44.8,797.3,43.1,797.3,41.4z"/>
	<path class="st0" d="M821.8,49.4c-1-2.4-2-4.9-3-7.5c-1.1-2.6-2.1-5-3-7.3c-0.9-2.3-1.6-4-1.9-5.1c-0.4-1.2-1-2-1.8-2.6
		c-0.8-0.6-1.8-0.9-3.2-0.9v-1.8c0.7,0.1,1.7,0.1,3.1,0.1s2.7,0,4.1,0s2.7,0,4,0c1.2,0,2.1-0.1,2.7-0.1v2c-1.8,0.1-3,0.4-3.7,1
		c-0.6,0.6-0.7,1.5-0.3,2.8l7.6,19.6l8-19.2c0.6-1.5,0.6-2.5,0.1-3.3c-0.5-0.7-1.5-1.1-3.1-1.1v-1.9c0.6,0.1,1.4,0.2,2.4,0.2
		c1,0,2.1,0,3.2,0s2.2,0,3.2,0c1,0,1.7-0.1,2.2-0.2V26c-1.6,0-2.8,0.4-3.6,1.1c-0.8,0.8-1.5,2-2.2,3.8l-17.1,39.9
		c-0.6,1.4-1.4,2.3-2.5,2.8c-1.1,0.5-2.1,0.7-3.3,0.7c-0.8,0-1.6-0.2-2.3-0.7c-0.7-0.5-1.1-1.2-1.1-2.2c0-1,0.4-1.7,1.1-2.1
		c0.7-0.4,1.5-0.5,2.2-0.4c0.2,0,0.4,0.1,0.6,0.2c0.2,0.1,0.5,0.2,0.7,0.4c0.2,0.1,0.5,0.2,0.7,0.3c0.2,0.1,0.4,0.2,0.6,0.2
		c0.4,0,0.8-0.1,1.1-0.2c0.3-0.2,0.6-0.5,0.8-0.9l5.8-13.7C823.6,53.8,822.8,51.9,821.8,49.4z"/>
</g>
<g>
	<path class="st0" d="M5.8,134.9c-0.8-2.3-1.5-3.9-2.4-4.7c-0.8-0.8-2-1.2-3.4-1.2v-1.9c0.7,0.1,1.6,0.1,2.8,0.1s2.4,0,3.8,0
		c1.3,0,2.5,0,3.8,0c1.2,0,2.3-0.1,3.1-0.1v1.9c-1.8,0-3,0.3-3.5,1c-0.6,0.7-0.6,1.8-0.1,3.3l8.4,21.7l7.9-20.4
		c0.3-1.4,0.1-2.6-0.6-3.7c-0.7-1.1-2.2-1.7-4.4-1.8v-2c2.1,0.1,4.4,0.2,7.1,0.2c2.6,0,5-0.1,6.9-0.2v2c-2,0.1-3.3,0.5-3.8,1.2
		s-0.5,2,0.1,4l7.8,20.7l8.2-20.9c0.8-1.9,1-3.2,0.5-4c-0.5-0.7-1.9-1.1-4-1.2v-1.9c1.9,0.1,3.8,0.2,5.7,0.2c1.9,0,3.8-0.1,5.6-0.2
		v1.9c-1.7,0-2.9,0.5-3.7,1.5s-1.5,2.3-2.1,4l-10.8,26.9h-1l-9.9-25.5l-10.2,25.5h-1L5.8,134.9z"/>
	<path class="st0" d="M65.2,139.6c-0.1,0.7-0.2,1.5-0.2,2.2c0,0.8,0,1.8,0.1,3.1c0.2,3.6,1.3,6.6,3.3,9c2,2.4,4.7,3.6,8.1,3.6
		c2.3,0,4.4-0.5,6.1-1.4c1.7-0.9,3.1-2,4.3-3.4l1,0.6c-1.3,2.3-3.1,4.3-5.3,5.9c-2.2,1.6-4.7,2.4-7.5,2.4c-2,0-3.9-0.4-5.6-1.3
		c-1.7-0.8-3.2-2-4.5-3.5c-1.3-1.5-2.3-3.3-3-5.3c-0.7-2-1.1-4.2-1.1-6.6c0-3,0.4-5.6,1.1-7.9c0.7-2.3,1.8-4.3,3-5.9
		c1.3-1.6,2.8-2.9,4.6-3.7s3.6-1.3,5.7-1.3c1.4,0,2.8,0.2,4.2,0.7c1.4,0.5,2.7,1.2,3.8,2.1c1.1,1,2,2.2,2.7,3.7s1.1,3.2,1.1,5.2
		c0,0.6-0.1,1-0.2,1.2c-0.1,0.3-0.5,0.4-1.1,0.5H65.2z M80.2,137.3c0.8,0,1.5-0.1,1.8-0.4c0.4-0.3,0.6-0.7,0.6-1.4
		c0-0.7-0.2-1.5-0.5-2.4s-0.8-1.6-1.4-2.3c-0.7-0.7-1.5-1.3-2.4-1.8c-0.9-0.5-2-0.7-3.2-0.7c-2.7,0-4.8,0.8-6.4,2.5
		c-1.6,1.7-2.7,3.8-3.2,6.5H80.2z"/>
	<path class="st0" d="M127,153.9c0,2,0.3,3.3,1,3.9c0.7,0.6,2,0.8,4.1,0.8v1.8c-0.7,0-1.3,0-1.8,0s-1.1,0-1.7-0.1
		c-0.6,0-1.1,0-1.7,0c-0.6,0-1.2,0-1.9,0c-0.7,0-1.3,0-1.9,0c-0.6,0-1.2,0-1.7,0c-0.6,0-1.2,0-1.8,0c-0.6,0-1.2,0-1.9,0v-1.8
		c2.1,0,3.4-0.3,4.1-0.8c0.7-0.6,1-1.9,1-3.9v-17.2c0-1.3,0-2.3-0.1-3c-0.1-0.7-0.3-1.3-0.6-1.8s-0.7-0.7-1.3-0.8s-1.3-0.2-2.3-0.2
		v-1.5c1.5-0.2,2.9-0.6,4.1-1.1c1.2-0.5,2.4-1.2,3.5-2.2h1.3c-0.1,1.3-0.2,2.6-0.2,4c0,1.4,0,2.7,0,3.8V153.9z M121.3,110.8
		c0-0.9,0.3-1.8,1-2.5c0.7-0.7,1.5-1.1,2.4-1.1c0.9,0,1.8,0.4,2.5,1.1s1.1,1.5,1.1,2.5c0,0.9-0.4,1.7-1.1,2.4c-0.7,0.7-1.5,1-2.5,1
		c-0.9,0-1.7-0.3-2.4-1C121.6,112.5,121.3,111.7,121.3,110.8z"/>
	<path class="st0" d="M147.9,129.9c0,1.2,0,2.1,0,2.7c2.1-1.5,4.4-3,6.8-4.4c2.4-1.4,4.8-2.1,7-2.1c2.8,0,4.8,1,6,3.1
		c1.2,2,1.8,4.5,1.8,7.4v16.7c0,2,0.3,3.4,1,4.2c0.7,0.8,2,1.2,4.1,1.2v1.8c-0.7,0-1.3,0-1.9,0c-0.6,0-1.2,0-1.7-0.1
		c-0.6,0-1.1,0-1.7,0c-0.6,0-1.2,0-1.9,0c-0.7,0-1.3,0-1.9,0c-0.6,0-1.2,0-1.7,0s-1.1,0-1.7,0c-0.6,0-1.2,0-1.9,0v-1.8
		c2,0,3.4-0.4,4-1.2c0.7-0.8,1-2.2,1-4.2v-16.7c0-2.3-0.5-4-1.6-5.1c-1.1-1-2.9-1.5-5.3-1.5c-0.7,0-1.5,0.2-2.5,0.5
		c-0.9,0.3-1.9,0.7-2.8,1.1c-1,0.5-1.9,1-2.8,1.5s-1.7,1.1-2.4,1.7v18.5c0,2,0.3,3.4,1,4.2c0.7,0.8,2,1.2,4.1,1.2v1.8
		c-0.7,0-1.3,0-1.9,0s-1.1,0-1.7-0.1c-0.6,0-1.1,0-1.7,0c-0.6,0-1.2,0-1.9,0c-0.7,0-1.3,0-1.9,0c-0.6,0-1.2,0-1.7,0
		c-0.6,0-1.2,0-1.8,0c-0.6,0-1.2,0-1.9,0v-1.8c2.1,0,3.4-0.4,4-1.2c0.6-0.8,0.9-2.2,0.9-4.2v-16.5c0-1.3,0-2.3-0.1-3
		c-0.1-0.7-0.2-1.3-0.5-1.8s-0.7-0.7-1.3-0.8s-1.3-0.2-2.3-0.2v-1.5c1.5-0.2,2.9-0.6,4.1-1.1c1.2-0.5,2.4-1.2,3.4-2.2h1.3
		C148,127.4,147.9,128.7,147.9,129.9z"/>
	<path class="st0" d="M185.8,134.9c-0.6-1.4-1-2.5-1.4-3.3c-0.4-0.8-0.8-1.4-1.2-1.8c-0.4-0.4-0.8-0.6-1.3-0.7
		c-0.5-0.1-1.1-0.1-1.7-0.1v-1.9c0.6,0.1,1.5,0.2,2.8,0.2c1.2,0,2.5,0,3.9,0c1.4,0,2.7,0,4,0c1.3,0,2.2-0.1,3-0.2v1.9
		c-2.3,0-3.7,0.4-4.2,1.1s-0.2,2.3,0.7,4.9l7.2,19.5l7.9-19.6c1-2.4,1.3-4,1.1-4.7c-0.3-0.7-1.6-1.1-3.9-1.1v-2
		c1.7,0.1,3.6,0.2,5.7,0.2c2.1,0,3.7-0.1,4.9-0.2v1.9c-1.4,0-2.5,0.4-3.2,1.1c-0.7,0.8-1.5,2.3-2.5,4.7l-10.8,26.7h-0.8L185.8,134.9
		z"/>
	<path class="st0" d="M228.5,153.9c0,2,0.3,3.3,1,3.9c0.7,0.6,2,0.8,4.1,0.8v1.8c-0.7,0-1.3,0-1.8,0s-1.1,0-1.7-0.1
		c-0.6,0-1.1,0-1.7,0c-0.6,0-1.2,0-1.9,0c-0.7,0-1.3,0-1.9,0c-0.6,0-1.2,0-1.7,0c-0.6,0-1.2,0-1.8,0c-0.6,0-1.2,0-1.9,0v-1.8
		c2.1,0,3.4-0.3,4.1-0.8c0.7-0.6,1-1.9,1-3.9v-17.2c0-1.3,0-2.3-0.1-3c-0.1-0.7-0.3-1.3-0.6-1.8s-0.7-0.7-1.3-0.8s-1.3-0.2-2.3-0.2
		v-1.5c1.5-0.2,2.9-0.6,4.1-1.1c1.2-0.5,2.4-1.2,3.5-2.2h1.3c-0.1,1.3-0.2,2.6-0.2,4c0,1.4,0,2.7,0,3.8V153.9z M222.7,110.8
		c0-0.9,0.3-1.8,1-2.5c0.7-0.7,1.5-1.1,2.4-1.1c0.9,0,1.8,0.4,2.5,1.1s1.1,1.5,1.1,2.5c0,0.9-0.4,1.7-1.1,2.4c-0.7,0.7-1.5,1-2.5,1
		c-0.9,0-1.7-0.3-2.4-1C223.1,112.5,222.7,111.7,222.7,110.8z"/>
	<path class="st0" d="M248.6,151.2c0,2.7,0.4,4.6,1.2,5.6c0.8,1,1.9,1.5,3.2,1.5c0.4,0,0.9-0.1,1.6-0.2s1.3-0.3,1.9-0.6
		c0.7-0.2,1.2-0.5,1.8-0.7c0.5-0.2,0.9-0.5,1.2-0.7l0.6,1c-1.4,1.4-2.8,2.5-4.3,3.3c-1.5,0.8-3.1,1.2-4.9,1.2
		c-2.1,0-3.7-0.6-4.9-1.8c-1.2-1.2-1.8-2.9-1.8-5.1v-23.6h-4.9v-1.3c2.3-0.7,4.1-1.8,5.3-3.4c1.2-1.6,2-3.9,2.5-6.9h1.5v8.6h11.2
		v3.1h-11.2V151.2z"/>
	<path class="st0" d="M270.4,139.6c-0.1,0.7-0.2,1.5-0.2,2.2c0,0.8,0,1.8,0.1,3.1c0.2,3.6,1.3,6.6,3.3,9c2,2.4,4.7,3.6,8.1,3.6
		c2.3,0,4.4-0.5,6.1-1.4c1.7-0.9,3.1-2,4.3-3.4l1,0.6c-1.3,2.3-3.1,4.3-5.3,5.9c-2.2,1.6-4.7,2.4-7.5,2.4c-2,0-3.9-0.4-5.6-1.3
		c-1.7-0.8-3.2-2-4.5-3.5c-1.3-1.5-2.3-3.3-3-5.3c-0.7-2-1.1-4.2-1.1-6.6c0-3,0.4-5.6,1.1-7.9c0.7-2.3,1.8-4.3,3-5.9
		c1.3-1.6,2.8-2.9,4.6-3.7s3.6-1.3,5.7-1.3c1.4,0,2.8,0.2,4.2,0.7c1.4,0.5,2.7,1.2,3.8,2.1c1.1,1,2,2.2,2.7,3.7s1.1,3.2,1.1,5.2
		c0,0.6-0.1,1-0.2,1.2c-0.1,0.3-0.5,0.4-1.1,0.5H270.4z M285.5,137.3c0.8,0,1.5-0.1,1.8-0.4c0.4-0.3,0.6-0.7,0.6-1.4
		c0-0.7-0.2-1.5-0.5-2.4s-0.8-1.6-1.4-2.3c-0.7-0.7-1.5-1.3-2.4-1.8c-0.9-0.5-2-0.7-3.2-0.7c-2.7,0-4.8,0.8-6.4,2.5
		c-1.6,1.7-2.7,3.8-3.2,6.5H285.5z"/>
	<path class="st0" d="M334.7,152.5c-1-2.4-2-4.9-3-7.5c-1.1-2.6-2.1-5-3-7.3c-0.9-2.3-1.6-4-1.9-5.1c-0.4-1.2-1-2-1.8-2.6
		c-0.8-0.6-1.8-0.9-3.2-0.9v-1.8c0.7,0.1,1.7,0.1,3.1,0.1s2.7,0,4.1,0s2.7,0,4,0c1.2,0,2.1-0.1,2.7-0.1v2c-1.8,0.1-3,0.4-3.7,1
		c-0.6,0.6-0.7,1.5-0.3,2.8l7.6,19.6l8-19.2c0.6-1.5,0.6-2.5,0.1-3.3c-0.5-0.7-1.5-1.1-3.1-1.1v-1.9c0.6,0.1,1.4,0.2,2.4,0.2
		c1,0,2.1,0,3.2,0s2.2,0,3.2,0c1,0,1.7-0.1,2.2-0.2v1.9c-1.6,0-2.8,0.4-3.6,1.1c-0.8,0.8-1.5,2-2.2,3.8l-17.1,39.9
		c-0.6,1.4-1.4,2.3-2.5,2.8c-1.1,0.5-2.1,0.7-3.3,0.7c-0.8,0-1.6-0.2-2.3-0.7c-0.7-0.5-1.1-1.2-1.1-2.2c0-1,0.4-1.7,1.1-2.1
		c0.7-0.4,1.5-0.5,2.2-0.4c0.2,0,0.4,0.1,0.6,0.2c0.2,0.1,0.5,0.2,0.7,0.4c0.2,0.1,0.5,0.2,0.7,0.3c0.2,0.1,0.4,0.2,0.6,0.2
		c0.4,0,0.8-0.1,1.1-0.2c0.3-0.2,0.6-0.5,0.8-0.9l5.8-13.7C336.4,156.8,335.7,154.9,334.7,152.5z"/>
	<path class="st0" d="M395.6,143.7c0,2.5-0.4,4.8-1.3,7c-0.9,2.2-2.1,4.1-3.6,5.7c-1.5,1.6-3.2,2.9-5.2,3.9c-2,0.9-4.1,1.4-6.4,1.4
		c-2.3,0-4.6-0.4-6.7-1.2s-4-2-5.6-3.5c-1.6-1.5-2.9-3.3-3.8-5.5c-0.9-2.2-1.4-4.6-1.4-7.3c0-2.4,0.4-4.7,1.2-6.9
		c0.8-2.2,2-4.1,3.4-5.7c1.5-1.6,3.3-2.9,5.3-3.8c2-1,4.2-1.4,6.6-1.4c2.4,0,4.7,0.4,6.9,1.2c2.1,0.8,4,2,5.5,3.6
		c1.5,1.5,2.8,3.3,3.7,5.5S395.6,141,395.6,143.7z M390.4,144.4c0-1.7-0.2-3.6-0.6-5.5c-0.4-1.9-1.1-3.7-2-5.3c-1-1.6-2.2-3-3.8-4
		c-1.5-1.1-3.4-1.6-5.6-1.6c-2.1,0-3.9,0.5-5.4,1.4c-1.5,0.9-2.7,2.1-3.6,3.6c-0.9,1.5-1.5,3.2-1.9,5c-0.4,1.8-0.6,3.6-0.6,5.3
		c0,1.6,0.2,3.4,0.6,5.3s1.1,3.7,2,5.3c0.9,1.6,2.2,3,3.7,4.1c1.5,1.1,3.4,1.7,5.7,1.7c2.1,0,3.9-0.5,5.3-1.4
		c1.5-0.9,2.6-2.2,3.5-3.7c0.9-1.5,1.6-3.1,2-4.9C390.2,147.9,390.4,146.1,390.4,144.4z"/>
	<path class="st0" d="M429.5,154.8c-2.2,1.8-4.6,3.4-7,4.8c-2.4,1.4-4.8,2-7.2,2c-0.9,0-1.8-0.2-2.7-0.5c-0.9-0.3-1.7-0.8-2.5-1.6
		c-0.7-0.7-1.3-1.6-1.7-2.7c-0.4-1.1-0.7-2.5-0.7-4.1v-19.4c0-1.6-0.3-2.7-0.9-3.2c-0.6-0.5-1.8-0.9-3.6-0.9v-1.3c0.7,0,1.3,0,2-0.1
		c0.7,0,1.4-0.1,2.1-0.1c0.7,0,1.5-0.1,2.3-0.2c0.8-0.1,1.7-0.2,2.7-0.2c-0.1,0.9-0.2,2-0.2,3.2c0,1.2,0,2.2,0,2.9v15.6
		c0,3.7,0.5,6.1,1.4,7.2c1,1.2,2.5,1.8,4.6,1.8c1.8,0,3.7-0.5,5.8-1.4c2.1-0.9,3.9-2.2,5.6-3.7v-19.5c0-1.6-0.4-2.7-1.3-3.2
		c-0.9-0.5-2.2-0.9-3.9-0.9v-1.3c0.7,0,1.4,0,2.1-0.1c0.7,0,1.5-0.1,2.3-0.1c0.8,0,1.6-0.1,2.5-0.2c0.9-0.1,1.8-0.2,2.8-0.2
		c-0.1,0.9-0.2,2-0.2,3.2c0,1.2,0,2.2,0,2.9v21.9c0,1.5,0.4,2.4,1.1,2.7c0.7,0.3,2,0.4,3.8,0.2v1.3c-0.5,0.1-1,0.2-1.7,0.4
		c-0.7,0.2-1.4,0.4-2.1,0.6c-0.8,0.2-1.6,0.4-2.4,0.6s-1.5,0.4-2.2,0.6c-0.3,0.1-0.5,0.1-0.6,0c-0.1-0.1-0.2-0.3-0.2-0.6V154.8z"/>
	<path class="st0" d="M477.1,151.2c0,2.7,0.4,4.6,1.2,5.6c0.8,1,1.9,1.5,3.2,1.5c0.4,0,0.9-0.1,1.6-0.2s1.3-0.3,1.9-0.6
		c0.7-0.2,1.2-0.5,1.8-0.7c0.5-0.2,0.9-0.5,1.2-0.7l0.6,1c-1.4,1.4-2.8,2.5-4.3,3.3c-1.5,0.8-3.1,1.2-4.9,1.2
		c-2.1,0-3.7-0.6-4.9-1.8c-1.2-1.2-1.8-2.9-1.8-5.1v-23.6h-4.9v-1.3c2.3-0.7,4.1-1.8,5.3-3.4c1.2-1.6,2-3.9,2.5-6.9h1.5v8.6h11.2
		v3.1h-11.2V151.2z"/>
	<path class="st0" d="M528.9,143.7c0,2.5-0.4,4.8-1.3,7c-0.9,2.2-2.1,4.1-3.6,5.7c-1.5,1.6-3.2,2.9-5.2,3.9c-2,0.9-4.1,1.4-6.4,1.4
		c-2.3,0-4.6-0.4-6.7-1.2s-4-2-5.6-3.5c-1.6-1.5-2.9-3.3-3.8-5.5c-0.9-2.2-1.4-4.6-1.4-7.3c0-2.4,0.4-4.7,1.2-6.9
		c0.8-2.2,2-4.1,3.4-5.7c1.5-1.6,3.3-2.9,5.3-3.8c2-1,4.2-1.4,6.6-1.4c2.4,0,4.7,0.4,6.9,1.2c2.1,0.8,4,2,5.5,3.6
		c1.5,1.5,2.8,3.3,3.7,5.5S528.9,141,528.9,143.7z M523.7,144.4c0-1.7-0.2-3.6-0.6-5.5c-0.4-1.9-1.1-3.7-2-5.3c-1-1.6-2.2-3-3.8-4
		c-1.5-1.1-3.4-1.6-5.6-1.6c-2.1,0-3.9,0.5-5.4,1.4c-1.5,0.9-2.7,2.1-3.6,3.6c-0.9,1.5-1.5,3.2-1.9,5c-0.4,1.8-0.6,3.6-0.6,5.3
		c0,1.6,0.2,3.4,0.6,5.3s1.1,3.7,2,5.3c0.9,1.6,2.2,3,3.7,4.1c1.5,1.1,3.4,1.7,5.7,1.7c2.1,0,3.9-0.5,5.3-1.4
		c1.5-0.9,2.6-2.2,3.5-3.7c0.9-1.5,1.6-3.1,2-4.9C523.5,147.9,523.7,146.1,523.7,144.4z"/>
	<path class="st0" d="M594.5,143.7c0,2.5-0.4,4.8-1.3,7c-0.9,2.2-2.1,4.1-3.6,5.7c-1.5,1.6-3.2,2.9-5.2,3.9c-2,0.9-4.1,1.4-6.4,1.4
		c-2.3,0-4.6-0.4-6.7-1.2s-4-2-5.6-3.5c-1.6-1.5-2.9-3.3-3.8-5.5c-0.9-2.2-1.4-4.6-1.4-7.3c0-2.4,0.4-4.7,1.2-6.9
		c0.8-2.2,2-4.1,3.4-5.7c1.5-1.6,3.3-2.9,5.3-3.8c2-1,4.2-1.4,6.6-1.4c2.4,0,4.7,0.4,6.9,1.2c2.1,0.8,4,2,5.5,3.6
		c1.5,1.5,2.8,3.3,3.7,5.5S594.5,141,594.5,143.7z M589.3,144.4c0-1.7-0.2-3.6-0.6-5.5c-0.4-1.9-1.1-3.7-2-5.3c-1-1.6-2.2-3-3.8-4
		c-1.5-1.1-3.4-1.6-5.6-1.6c-2.1,0-3.9,0.5-5.4,1.4c-1.5,0.9-2.7,2.1-3.6,3.6c-0.9,1.5-1.5,3.2-1.9,5c-0.4,1.8-0.6,3.6-0.6,5.3
		c0,1.6,0.2,3.4,0.6,5.3s1.1,3.7,2,5.3c0.9,1.6,2.2,3,3.7,4.1c1.5,1.1,3.4,1.7,5.7,1.7c2.1,0,3.9-0.5,5.3-1.4
		c1.5-0.9,2.6-2.2,3.5-3.7c0.9-1.5,1.6-3.1,2-4.9C589.1,147.9,589.3,146.1,589.3,144.4z"/>
	<path class="st0" d="M628.4,154.8c-2.2,1.8-4.6,3.4-7,4.8c-2.4,1.4-4.8,2-7.2,2c-0.9,0-1.8-0.2-2.7-0.5c-0.9-0.3-1.7-0.8-2.5-1.6
		c-0.7-0.7-1.3-1.6-1.7-2.7c-0.4-1.1-0.7-2.5-0.7-4.1v-19.4c0-1.6-0.3-2.7-0.9-3.2c-0.6-0.5-1.8-0.9-3.6-0.9v-1.3c0.7,0,1.3,0,2-0.1
		c0.7,0,1.4-0.1,2.1-0.1c0.7,0,1.5-0.1,2.3-0.2c0.8-0.1,1.7-0.2,2.7-0.2c-0.1,0.9-0.2,2-0.2,3.2c0,1.2,0,2.2,0,2.9v15.6
		c0,3.7,0.5,6.1,1.4,7.2c1,1.2,2.5,1.8,4.6,1.8c1.8,0,3.7-0.5,5.8-1.4c2.1-0.9,3.9-2.2,5.6-3.7v-19.5c0-1.6-0.4-2.7-1.3-3.2
		c-0.9-0.5-2.2-0.9-3.9-0.9v-1.3c0.7,0,1.4,0,2.1-0.1c0.7,0,1.5-0.1,2.3-0.1c0.8,0,1.6-0.1,2.5-0.2c0.9-0.1,1.8-0.2,2.8-0.2
		c-0.1,0.9-0.2,2-0.2,3.2c0,1.2,0,2.2,0,2.9v21.9c0,1.5,0.4,2.4,1.1,2.7c0.7,0.3,2,0.4,3.8,0.2v1.3c-0.5,0.1-1,0.2-1.7,0.4
		c-0.7,0.2-1.4,0.4-2.1,0.6c-0.8,0.2-1.6,0.4-2.4,0.6s-1.5,0.4-2.2,0.6c-0.3,0.1-0.5,0.1-0.6,0c-0.1-0.1-0.2-0.3-0.2-0.6V154.8z"/>
	<path class="st0" d="M653.7,133.8c0.7-0.9,1.5-1.9,2.4-2.8c0.9-0.9,1.8-1.7,2.7-2.5c0.9-0.7,1.9-1.3,2.7-1.7
		c0.9-0.4,1.7-0.7,2.5-0.7c1.1,0,2.1,0.3,3,0.9c0.8,0.6,1.3,1.4,1.3,2.4c0,1.1-0.3,2-1,2.6c-0.7,0.6-1.3,0.9-1.9,0.9
		c-0.6,0-1-0.1-1.3-0.2c-0.3-0.2-0.7-0.4-1-0.6c-0.3-0.2-0.7-0.4-1.1-0.6c-0.4-0.2-0.9-0.3-1.6-0.3c-0.4,0-1,0.2-1.8,0.6
		c-0.8,0.4-1.5,1-2.2,1.6c-0.8,0.7-1.4,1.4-1.9,2.3c-0.5,0.9-0.8,1.7-0.8,2.6v14.9c0,1.1,0.1,2.1,0.2,2.8c0.2,0.7,0.5,1.3,1.1,1.7
		c0.6,0.4,1.4,0.6,2.4,0.8c1,0.1,2.4,0.2,4.1,0.2v1.8c-1.1,0-2.4-0.1-4-0.1c-1.6,0-3.2,0-4.9,0s-3.3,0-4.9,0c-1.6,0-2.9,0.1-4,0.1
		v-1.8c2.4,0,3.9-0.3,4.6-0.9c0.7-0.6,1.1-2.1,1.1-4.5v-16.5c0-1.3,0-2.3-0.1-3c-0.1-0.7-0.3-1.3-0.6-1.8s-0.7-0.7-1.3-0.8
		s-1.3-0.2-2.3-0.2v-1.5c1.5-0.2,2.9-0.6,4.1-1.1c1.2-0.5,2.4-1.2,3.5-2.2h1.3c-0.1,1.3-0.2,2.6-0.2,3.9
		C653.7,131.5,653.7,132.7,653.7,133.8z"/>
	<path class="st0" d="M701.5,134.9c-0.8-2.3-1.5-3.9-2.4-4.7c-0.8-0.8-2-1.2-3.4-1.2v-1.9c0.7,0.1,1.6,0.1,2.8,0.1s2.4,0,3.8,0
		c1.3,0,2.5,0,3.8,0c1.2,0,2.3-0.1,3.1-0.1v1.9c-1.8,0-3,0.3-3.5,1c-0.6,0.7-0.6,1.8-0.1,3.3l8.4,21.7l7.9-20.4
		c0.3-1.4,0.1-2.6-0.6-3.7c-0.7-1.1-2.2-1.7-4.4-1.8v-2c2.1,0.1,4.4,0.2,7.1,0.2c2.6,0,5-0.1,6.9-0.2v2c-2,0.1-3.3,0.5-3.8,1.2
		s-0.5,2,0.1,4l7.8,20.7l8.2-20.9c0.8-1.9,1-3.2,0.5-4c-0.5-0.7-1.9-1.1-4-1.2v-1.9c1.9,0.1,3.8,0.2,5.7,0.2c1.9,0,3.8-0.1,5.6-0.2
		v1.9c-1.7,0-2.9,0.5-3.7,1.5s-1.5,2.3-2.1,4l-10.8,26.9h-1l-9.9-25.5l-10.2,25.5h-1L701.5,134.9z"/>
	<path class="st0" d="M760.9,139.6c-0.1,0.7-0.2,1.5-0.2,2.2c0,0.8,0,1.8,0.1,3.1c0.2,3.6,1.3,6.6,3.3,9c2,2.4,4.7,3.6,8.1,3.6
		c2.3,0,4.4-0.5,6.1-1.4c1.7-0.9,3.1-2,4.3-3.4l1,0.6c-1.3,2.3-3.1,4.3-5.3,5.9c-2.2,1.6-4.7,2.4-7.5,2.4c-2,0-3.9-0.4-5.6-1.3
		c-1.7-0.8-3.2-2-4.5-3.5c-1.3-1.5-2.3-3.3-3-5.3c-0.7-2-1.1-4.2-1.1-6.6c0-3,0.4-5.6,1.1-7.9c0.7-2.3,1.8-4.3,3-5.9
		c1.3-1.6,2.8-2.9,4.6-3.7s3.6-1.3,5.7-1.3c1.4,0,2.8,0.2,4.2,0.7c1.4,0.5,2.7,1.2,3.8,2.1c1.1,1,2,2.2,2.7,3.7s1.1,3.2,1.1,5.2
		c0,0.6-0.1,1-0.2,1.2c-0.1,0.3-0.5,0.4-1.1,0.5H760.9z M776,137.3c0.8,0,1.5-0.1,1.8-0.4c0.4-0.3,0.6-0.7,0.6-1.4
		c0-0.7-0.2-1.5-0.5-2.4s-0.8-1.6-1.4-2.3c-0.7-0.7-1.5-1.3-2.4-1.8c-0.9-0.5-2-0.7-3.2-0.7c-2.7,0-4.8,0.8-6.4,2.5
		c-1.6,1.7-2.7,3.8-3.2,6.5H776z"/>
	<path class="st0" d="M816.6,114c0-1.2-0.1-2.2-0.2-2.9c-0.1-0.7-0.4-1.3-0.7-1.7c-0.3-0.4-0.8-0.6-1.4-0.7
		c-0.6-0.1-1.4-0.1-2.4-0.1v-1.4c1.5-0.3,3-0.7,4.4-1.3c1.4-0.6,2.7-1.4,3.8-2.4h1.3c-0.1,1.3-0.2,2.6-0.3,4c0,1.4-0.1,2.7-0.1,3.8
		V154c0,1.6,0.4,2.5,1.2,2.8c0.8,0.3,2.1,0.4,3.8,0.3v1.4c-0.9,0.3-2.2,0.8-3.8,1.4c-1.7,0.7-3.2,1.3-4.6,1.9
		c-0.3,0.1-0.5,0.2-0.6,0c-0.1-0.1-0.2-0.3-0.2-0.6V156c-1.9,1.8-3.9,3.2-5.9,4.1s-4,1.4-6,1.4c-2.1,0-4-0.5-5.7-1.4
		c-1.7-0.9-3.2-2.1-4.4-3.7c-1.2-1.5-2.2-3.2-2.8-5.2c-0.7-2-1-4-1-6.2c0-2.5,0.5-4.9,1.4-7.2c0.9-2.3,2.2-4.3,3.9-6
		c1.6-1.7,3.5-3.1,5.6-4.1c2.2-1,4.5-1.5,6.9-1.5c1.1,0,2.3,0.1,3.6,0.4c1.2,0.3,2.7,0.8,4.5,1.6V114z M816.6,135.4
		c0-1.4-0.3-2.5-0.9-3.4c-0.6-0.9-1.3-1.6-2.2-2.1c-0.9-0.5-1.9-0.9-2.9-1.1c-1-0.2-2-0.4-2.9-0.4c-1.5,0-3,0.3-4.5,0.9
		s-2.8,1.6-3.9,2.8c-1.2,1.3-2.1,2.8-2.8,4.7s-1.1,4.1-1.1,6.6c0,4.1,1.1,7.5,3.2,10.2c2.1,2.7,5.1,4,9,4c0.6,0,1.4-0.1,2.5-0.4
		c1-0.3,2-0.6,3-1.1c0.9-0.5,1.8-1,2.5-1.6c0.7-0.6,1.1-1.3,1.1-2V135.4z"/>
	<path class="st0" d="M858.8,114c0-1.2-0.1-2.2-0.2-2.9c-0.1-0.7-0.4-1.3-0.7-1.7c-0.3-0.4-0.8-0.6-1.4-0.7
		c-0.6-0.1-1.4-0.1-2.4-0.1v-1.4c1.5-0.3,3-0.7,4.4-1.3c1.4-0.6,2.7-1.4,3.8-2.4h1.3c-0.1,1.3-0.2,2.6-0.3,4c0,1.4-0.1,2.7-0.1,3.8
		V154c0,1.6,0.4,2.5,1.2,2.8c0.8,0.3,2.1,0.4,3.8,0.3v1.4c-0.9,0.3-2.2,0.8-3.8,1.4c-1.7,0.7-3.2,1.3-4.6,1.9
		c-0.3,0.1-0.5,0.2-0.6,0c-0.1-0.1-0.2-0.3-0.2-0.6V156c-1.9,1.8-3.9,3.2-5.9,4.1s-4,1.4-6,1.4c-2.1,0-3.9-0.5-5.7-1.4
		c-1.7-0.9-3.2-2.1-4.4-3.7c-1.2-1.5-2.2-3.2-2.8-5.2c-0.7-2-1-4-1-6.2c0-2.5,0.5-4.9,1.4-7.2c0.9-2.3,2.2-4.3,3.9-6
		c1.6-1.7,3.5-3.1,5.6-4.1c2.2-1,4.5-1.5,6.9-1.5c1.1,0,2.3,0.1,3.6,0.4c1.2,0.3,2.7,0.8,4.5,1.6V114z M858.8,135.4
		c0-1.4-0.3-2.5-0.9-3.4c-0.6-0.9-1.3-1.6-2.2-2.1c-0.9-0.5-1.9-0.9-2.9-1.1c-1-0.2-2-0.4-2.9-0.4c-1.5,0-3,0.3-4.5,0.9
		s-2.8,1.6-3.9,2.8c-1.2,1.3-2.1,2.8-2.8,4.7s-1.1,4.1-1.1,6.6c0,4.1,1.1,7.5,3.2,10.2c2.1,2.7,5.1,4,9,4c0.6,0,1.4-0.1,2.5-0.4
		c1-0.3,2-0.6,3-1.1c0.9-0.5,1.8-1,2.5-1.6c0.7-0.6,1.1-1.3,1.1-2V135.4z"/>
	<path class="st0" d="M883.9,153.9c0,2,0.3,3.3,1,3.9c0.7,0.6,2,0.8,4.1,0.8v1.8c-0.7,0-1.3,0-1.8,0s-1.1,0-1.7-0.1
		c-0.6,0-1.1,0-1.7,0c-0.6,0-1.2,0-1.9,0c-0.7,0-1.3,0-1.9,0c-0.6,0-1.2,0-1.7,0c-0.6,0-1.2,0-1.8,0c-0.6,0-1.2,0-1.9,0v-1.8
		c2.1,0,3.4-0.3,4.1-0.8c0.7-0.6,1-1.9,1-3.9v-17.2c0-1.3,0-2.3-0.1-3c-0.1-0.7-0.3-1.3-0.6-1.8s-0.7-0.7-1.3-0.8s-1.3-0.2-2.3-0.2
		v-1.5c1.5-0.2,2.9-0.6,4.1-1.1c1.2-0.5,2.4-1.2,3.5-2.2h1.3c-0.1,1.3-0.2,2.6-0.2,4c0,1.4,0,2.7,0,3.8V153.9z M878.1,110.8
		c0-0.9,0.3-1.8,1-2.5c0.7-0.7,1.5-1.1,2.4-1.1c0.9,0,1.8,0.4,2.5,1.1s1.1,1.5,1.1,2.5c0,0.9-0.4,1.7-1.1,2.4c-0.7,0.7-1.5,1-2.5,1
		c-0.9,0-1.7-0.3-2.4-1C878.5,112.5,878.1,111.7,878.1,110.8z"/>
	<path class="st0" d="M904.7,129.9c0,1.2,0,2.1,0,2.7c2.1-1.5,4.4-3,6.8-4.4c2.4-1.4,4.8-2.1,7-2.1c2.8,0,4.8,1,6,3.1
		c1.2,2,1.8,4.5,1.8,7.4v16.7c0,2,0.3,3.4,1,4.2c0.7,0.8,2,1.2,4.1,1.2v1.8c-0.7,0-1.3,0-1.9,0c-0.6,0-1.2,0-1.7-0.1
		c-0.6,0-1.1,0-1.7,0c-0.6,0-1.2,0-1.9,0c-0.7,0-1.3,0-1.9,0c-0.6,0-1.2,0-1.7,0s-1.1,0-1.7,0c-0.6,0-1.2,0-1.9,0v-1.8
		c2,0,3.4-0.4,4-1.2c0.7-0.8,1-2.2,1-4.2v-16.7c0-2.3-0.5-4-1.6-5.1c-1.1-1-2.9-1.5-5.3-1.5c-0.7,0-1.5,0.2-2.5,0.5
		c-0.9,0.3-1.9,0.7-2.8,1.1c-1,0.5-1.9,1-2.8,1.5s-1.7,1.1-2.4,1.7v18.5c0,2,0.3,3.4,1,4.2c0.7,0.8,2,1.2,4.1,1.2v1.8
		c-0.7,0-1.3,0-1.9,0s-1.1,0-1.7-0.1c-0.6,0-1.1,0-1.7,0c-0.6,0-1.2,0-1.9,0c-0.7,0-1.3,0-1.9,0c-0.6,0-1.2,0-1.7,0
		c-0.6,0-1.2,0-1.8,0c-0.6,0-1.2,0-1.9,0v-1.8c2.1,0,3.4-0.4,4-1.2c0.6-0.8,0.9-2.2,0.9-4.2v-16.5c0-1.3,0-2.3-0.1-3
		c-0.1-0.7-0.2-1.3-0.5-1.8s-0.7-0.7-1.3-0.8s-1.3-0.2-2.3-0.2v-1.5c1.5-0.2,2.9-0.6,4.1-1.1c1.2-0.5,2.4-1.2,3.4-2.2h1.3
		C904.8,127.4,904.7,128.7,904.7,129.9z"/>
	<path class="st0" d="M969.7,131.4l-7.4-0.3c0.5,0.6,0.9,1.5,1.3,2.7c0.4,1.3,0.6,2.3,0.6,3.2c0,3.7-1.2,6.6-3.6,8.5
		c-2.4,2-5.6,3-9.5,3c-0.6,0-1.2,0-1.9,0c-0.7,0-1.4-0.1-2.1-0.3c-0.6,0.4-1,0.8-1.4,1.1c-0.4,0.3-0.7,0.6-0.9,0.9
		c-0.3,0.3-0.5,0.6-0.6,0.9c-0.1,0.3-0.1,0.7-0.1,1.1c0,0.3,0,0.6,0.1,1.1c0,0.4,0.3,0.9,0.6,1.3c0.4,0.4,1,0.8,1.8,1.1
		c0.8,0.3,1.9,0.5,3.4,0.5c0.9,0,1.8,0,2.6,0c0.9,0,1.7,0,2.5,0c0.8,0,1.6,0,2.4,0c0.7,0,1.5,0,2.3,0c3,0,5.4,0.7,7.2,2
		c1.9,1.3,2.8,3.4,2.8,6.3c0,1.7-0.5,3.4-1.5,5c-1,1.6-2.3,3-4.1,4.2c-1.7,1.2-3.7,2.2-6,2.9c-2.3,0.7-4.9,1.1-7.5,1.1
		c-2.2,0-4.2-0.3-5.9-0.8s-3.1-1.3-4.2-2.1s-2-1.8-2.5-2.8c-0.5-1-0.8-2.1-0.8-3.2c0-2.4,0.9-4.4,2.6-5.9c1.7-1.5,3.6-2.6,5.7-3.2
		c-2.5-0.6-4.2-1.7-5-3.3c-0.8-1.6-1-3.4-0.5-5.1c1-0.6,2-1.2,3-1.9c1-0.7,1.8-1.3,2.2-1.7c-1.7-0.9-3.2-2.1-4.5-3.7
		c-1.2-1.6-1.9-3.6-1.9-6.2c0-3.3,1.1-6,3.4-8.2c2.3-2.2,5.6-3.3,9.9-3.3c1,0,2.1,0.1,3.2,0.3c1.2,0.2,2.2,0.4,3.2,0.7
		c1,0.4,2.1,0.7,3.2,0.9c1.2,0.3,2.6,0.4,4.3,0.4c0.3,0,0.6,0,0.8,0c0.2,0,0.5,0,0.7,0c0.2,0,0.5,0,0.8,0c0.3,0,0.7-0.1,1.2-0.2
		V131.4z M941.1,167.6c0,2.5,1.1,4.4,3.2,5.7c2.2,1.3,4.7,1.9,7.5,1.9c1.9,0,3.7-0.2,5.4-0.6c1.7-0.4,3.2-1,4.5-1.8
		c1.3-0.8,2.3-1.6,3-2.7c0.7-1,1.1-2.2,1.1-3.5c0-1.2-0.3-2.2-0.9-3c-0.6-0.8-1.5-1.5-2.5-1.9c-1.1-0.5-2.3-0.9-3.7-1.1
		c-1.4-0.2-2.8-0.3-4.4-0.3c-4.4,0-7.7,0.7-9.9,2C942.2,163.7,941.1,165.5,941.1,167.6z M943.7,136.8c0,2.7,0.7,5,2,7
		c1.3,2,3.3,3,5.9,3c3,0,5.1-0.9,6.4-2.7c1.2-1.8,1.9-3.9,1.9-6.3c0-1.1-0.2-2.3-0.5-3.5c-0.3-1.2-0.8-2.3-1.5-3.2
		c-0.7-0.9-1.5-1.7-2.6-2.3c-1.1-0.6-2.4-0.9-3.9-0.9c-1.4,0-2.5,0.3-3.5,0.8s-1.8,1.3-2.4,2.1c-0.6,0.9-1.1,1.9-1.3,2.9
		S943.7,135.9,943.7,136.8z"/>
</g>
</svg>
