<?xml version="1.0" encoding="utf-8"?>
<!-- Generator: Adobe Illustrator 26.3.1, SVG Export Plug-In . SVG Version: 6.00 Build 0)  -->
<svg version="1.1" id="Layer_1" xmlns="http://www.w3.org/2000/svg" xmlns:xlink="http://www.w3.org/1999/xlink" x="0px" y="0px"
	 viewBox="0 0 768 193" style="enable-background:new 0 0 768 193;" xml:space="preserve">
<style type="text/css">
	.st0{fill:#FFFFFF;}
</style>
<g>
	<path class="st0" d="M30.3,43.4c0,1.1,0,2.2-0.1,3.3c0,1.2-0.1,2.3-0.2,3.5c-0.1,1.2-0.2,2.3-0.3,3.3s-0.3,2-0.4,2.8l-2.6,0.4
		c-0.1-0.7-0.1-1.5-0.2-2.5s-0.1-1.9-0.1-2.9s-0.1-2-0.1-3.1c0-1,0-2,0-2.8V32.8c-1.6,0-3.3,0.1-4.9,0.1C19.8,33,18.3,33,16.9,33
		s-2.6,0.1-3.8,0.1s-2,0.1-2.6,0.1c-1.5,0.1-3,0.2-4.5,0.3S3,33.8,1.5,34L0,29.9c1.8,0.2,3.5,0.3,5.2,0.4c1.6,0.1,3.4,0.2,5.2,0.3
		c1,0,2.2,0.1,3.8,0.1c1.5,0,3.2,0,5.1,0s3.8-0.1,5.7-0.1c2-0.1,3.9-0.1,5.7-0.1s3.5-0.1,5-0.1s2.8-0.1,3.8-0.1
		c2.7-0.1,5.3-0.3,7.7-0.5s4.7-0.4,6.8-0.8l-0.6,3.8c-1.6-0.1-3.5-0.1-5.8-0.2c-2.3,0-4.8-0.1-7.4-0.1c-1.1,0-2.6,0-4.4,0
		c-1.8,0-3.7,0.1-5.8,0.2v10.7H30.3z M29.8,15c2.8,1,6,1.9,9.4,2.6c3.5,0.7,6.9,1.3,10.3,1.8l-2.8,3.3c-1.2-0.4-2.6-0.9-4.3-1.5
		c-1.6-0.6-3.3-1.1-5.1-1.7s-3.5-1.2-5.2-1.7s-3.3-1.1-4.7-1.5c-3.4,1.9-7,3.5-10.8,4.9c-3.7,1.4-7.4,2.6-11.1,3.5l-1.1-1.3
		c6.1-1.8,11.8-4.1,17.1-7.1c5.3-2.9,9.9-6.3,13.8-10.2c-1.2,0-2.5,0-3.9,0.1s-2.8,0.1-4.2,0.2c-1.4,0.1-2.8,0.1-4.1,0.2
		c-1.3,0.1-2.5,0.1-3.5,0.1c-0.4,0-1,0-1.7,0.1c-0.7,0-1.4,0.1-2.2,0.2c-0.8,0.1-1.5,0.2-2.3,0.3s-1.5,0.2-2.2,0.3L8.9,4
		c0.5,0.1,1.1,0.2,1.8,0.2c0.7,0.1,1.4,0.1,2.1,0.2c0.7,0.1,1.5,0.1,2.2,0.1s1.4,0,2.1,0c1.4,0,3.2,0,5.3,0s4.3-0.1,6.5-0.2
		c2.2-0.1,4.5-0.3,6.7-0.5s4.1-0.4,5.8-0.8l1.4,1.4c-1.8,2-3.7,3.9-5.9,5.7S32.3,13.5,29.8,15z"/>
	<path class="st0" d="M107.7,7c0-1.3-0.6-2.4-1.8-3.2c-1.2-0.8-3-1.5-5.5-2.1l0.7-1.6c2,0.2,3.9,0.5,5.9,0.9s3.8,0.7,5.3,1
		c-0.2,0.7-0.3,1.5-0.4,2.4s-0.2,1.7-0.2,2.5v15.4c0,0.7,0,1.5-0.1,2.4s-0.1,1.8-0.2,2.8c-0.1,0.9-0.2,1.8-0.3,2.6
		c-0.1,0.8-0.2,1.5-0.4,2l-2.6,0.4c-0.1-0.9-0.2-2-0.3-3.3c-0.1-1.3-0.1-2.5-0.1-3.6v-3.3c-1.7,0.7-3.8,1.4-6.1,2.1
		c-2.4,0.7-4.8,1.4-7.4,2.1c-2.6,0.7-5.1,1.3-7.6,1.8s-4.8,0.9-6.8,1.2c-1.8,0.2-3,0-3.8-0.6c-0.7-0.7-1.1-1.9-1.1-3.8V13.4
		c0-0.7-0.1-1.2-0.2-1.7c-0.2-0.4-0.4-0.8-0.9-1.2c-0.4-0.3-1-0.6-1.8-0.8S70.2,9.2,69,9l0.6-1.6c2,0.1,3.8,0.2,5.3,0.4
		C76.5,8,78,8.2,79.5,8.4c-0.2,0.7-0.3,1.6-0.4,2.5s-0.2,1.7-0.2,2.5v10.5c0,0.8,0.2,1.3,0.6,1.6s1,0.4,1.6,0.4
		c1.7-0.1,3.7-0.3,6-0.7c2.3-0.3,4.6-0.7,7.1-1.2c2.4-0.5,4.8-1,7.1-1.6c2.3-0.6,4.5-1.2,6.3-1.8V7H107.7z M110.1,50.6
		c0.4-0.1,0.8-0.1,1.1-0.1c0.3,0,0.7,0,1-0.1l-0.8,3.3c-1.6-0.1-3.4-0.2-5.3-0.3s-3.9-0.1-6-0.1s-4.1,0-6.1,0.1
		c-2,0-3.9,0.1-5.5,0.2c-0.1,1-0.2,1.8-0.4,2.4l-2.2,0.4c-0.2-0.8-0.4-1.7-0.5-2.7s-0.2-2-0.3-3l-0.7-10.1c-0.1-0.7-0.2-1.3-0.3-1.8
		c-0.1-0.5-0.3-0.8-0.6-1.1c-0.3-0.3-0.7-0.5-1.2-0.7s-1.2-0.4-2.1-0.6l0.7-1.5C86,35.5,91,35.7,96,35.6s10.1-0.4,15.5-0.8
		c-0.2,1.1-0.3,2.3-0.5,3.8c-0.2,1.4-0.3,2.8-0.4,4.3s-0.3,2.9-0.4,4.3C110.2,48.2,110.1,49.5,110.1,50.6z M107,37.5
		c-1.3,0-2.7-0.1-4.4-0.1c-1.7,0-3.4,0-5.1,0s-3.4,0.1-5,0.1c-1.6,0.1-2.9,0.1-4,0.2l0.2,11.8v1.8c2.9,0,6,0,9.3-0.1
		c3.2-0.1,6.2-0.2,8.9-0.4L107,37.5z"/>
	<path class="st0" d="M175.8,36.6c-2.5,0.6-5.1,1.1-7.8,1.6c-2.7,0.5-5.3,1-8,1.4c-2.7,0.4-5.2,0.8-7.6,1.1
		c-2.5,0.3-4.7,0.5-6.7,0.7c-0.4,0-1,0.1-1.7,0.1c-0.7,0.1-1.5,0.1-2.3,0.2c-0.8,0.1-1.6,0.2-2.5,0.2c-0.8,0.1-1.6,0.2-2.2,0.3
		l-2.3-3.8c1.3,0.2,2.7,0.4,4.2,0.5s2.9,0.1,4.2,0.1c2.9-0.1,5.8-0.3,8.8-0.5c2.9-0.2,5.8-0.5,8.6-0.9c2.8-0.4,5.5-0.8,8.1-1.2
		s5-0.9,7.4-1.4V7.1c0-1.3-0.6-2.4-1.8-3.2c-1.2-0.8-3-1.5-5.5-2.1l0.6-1.6c2,0.2,4,0.5,6,0.9s3.8,0.7,5.3,1
		c-0.2,0.7-0.3,1.5-0.4,2.4C180.1,5.4,180,6.2,180,7v32.8c0,1.2,0,2.6-0.1,4.2c-0.1,1.6-0.1,3.1-0.2,4.7c-0.1,1.6-0.2,3-0.3,4.5
		c-0.1,1.4-0.3,2.6-0.4,3.5l-2.5,0.3c-0.1-0.7-0.1-1.5-0.2-2.5c-0.1-1-0.1-2.1-0.1-3.2c0-1.2-0.1-2.3-0.1-3.5s0-2.4,0-3.5v-7.7
		H175.8z M155.3,8.4c1.7,0.2,3.2,0.6,4.6,1.2c1.4,0.6,2.6,1.4,3.6,2.3c1,0.9,1.8,2,2.4,3.2c0.6,1.2,0.8,2.5,0.8,3.9
		c0,1.5-0.3,2.9-1,4.2c-0.7,1.3-1.6,2.4-2.8,3.4c-1.2,1-2.6,1.7-4.2,2.3c-1.6,0.5-3.4,0.8-5.2,0.8c-1.8,0-3.6-0.3-5.2-0.8
		c-1.6-0.5-3-1.3-4.2-2.3c-1.2-1-2.1-2.1-2.8-3.4c-0.7-1.3-1-2.7-1-4.2s0.3-2.9,0.9-4.1c0.6-1.3,1.5-2.4,2.6-3.3
		c1.1-1,2.4-1.7,3.9-2.3s3.1-0.9,4.9-1c-0.1-0.5-0.3-0.9-0.6-1.2c-0.4-0.3-1-0.6-1.9-0.9l0.6-1.2c0.9,0.2,1.8,0.4,2.7,0.5
		s1.8,0.3,2.8,0.6c-0.2,0.4-0.3,0.8-0.4,1.1C155.6,7.6,155.4,8,155.3,8.4z M162.5,18.9c0-1.2-0.2-2.3-0.7-3.3s-1.1-2-1.9-2.8
		s-1.7-1.4-2.8-1.8c-1.1-0.4-2.3-0.7-3.5-0.7c-1.3,0-2.5,0.2-3.6,0.7c-1.1,0.4-2,1.1-2.8,1.8c-0.8,0.8-1.4,1.7-1.9,2.8
		c-0.4,1.1-0.7,2.2-0.7,3.3c0,1.2,0.2,2.3,0.7,3.4c0.4,1,1.1,1.9,1.9,2.7c0.8,0.7,1.7,1.3,2.8,1.8c1.1,0.4,2.3,0.6,3.6,0.6
		c1.3,0,2.5-0.2,3.6-0.6c1.1-0.4,2-1,2.8-1.8c0.8-0.7,1.4-1.6,1.9-2.7C162.3,21.2,162.5,20.1,162.5,18.9z"/>
	<path class="st0" d="M233.6,13.3c0-0.7-0.1-1.2-0.2-1.7c-0.2-0.4-0.4-0.8-0.9-1.2c-0.4-0.3-1-0.6-1.8-0.8c-0.8-0.2-1.8-0.5-3-0.7
		l0.6-1.6c2,0.1,3.7,0.2,5.3,0.4s3.1,0.4,4.7,0.6c-0.2,0.7-0.3,1.6-0.4,2.5c-0.1,0.9-0.2,1.7-0.2,2.5v11.4c0,0.8,0.2,1.3,0.6,1.7
		c0.4,0.3,1,0.5,1.7,0.4c3.6-0.2,7.1-0.5,10.6-1.1c3.5-0.6,7.1-1.5,10.8-2.6v1.8c-3.5,1.3-7.1,2.4-10.9,3.3c-3.8,0.9-7.8,1.6-12,2.2
		c-1.8,0.2-3,0-3.8-0.6c-0.7-0.7-1.1-1.9-1.1-3.8V13.3z M269.1,50.6c0.4-0.1,0.8-0.1,1.1-0.1c0.3,0,0.7,0,1-0.1l-0.8,3.3
		c-1.6-0.1-3.4-0.2-5.3-0.3s-3.9-0.1-5.9-0.1s-4,0-6,0.1c-2,0-3.9,0.1-5.5,0.2c-0.1,0.9-0.2,1.7-0.4,2.4l-2.3,0.4
		c-0.2-0.8-0.4-1.7-0.5-2.7s-0.2-2-0.3-3l-0.7-9.8c-0.1-0.7-0.2-1.3-0.3-1.8s-0.3-0.8-0.6-1.1c-0.3-0.3-0.7-0.5-1.2-0.7
		s-1.2-0.4-2.1-0.6l0.7-1.5c5,0.6,10,0.9,15,0.7s10.1-0.4,15.5-0.9c-0.2,1.1-0.3,2.3-0.5,3.7s-0.3,2.8-0.4,4.2s-0.3,2.9-0.4,4.2
		C269.3,48.3,269.2,49.5,269.1,50.6z M266.1,37.7c-1.3,0-2.7-0.1-4.4-0.1c-1.7,0-3.4,0-5.1,0s-3.4,0.1-5,0.1s-2.9,0.1-4,0.2
		l0.2,11.6v1.8c2.9,0,6,0,9.2-0.1c3.2-0.1,6.2-0.2,8.8-0.4L266.1,37.7z M266.8,16.2c-1.3,0-2.7,0.1-4.2,0.2c-1.5,0.1-3,0.2-4.5,0.3
		s-2.9,0.2-4.2,0.4c-1.3,0.1-2.4,0.3-3.3,0.4L249,14c0.8,0.2,1.8,0.3,3.1,0.4c1.3,0.1,2.5,0.1,3.7,0.1c0.8,0,1.7,0,2.8,0
		c1.1,0,2.2,0,3.3-0.1c1.1,0,2.1-0.1,3-0.1s1.5-0.1,1.9-0.1V7.1c0-1.3-0.6-2.4-1.8-3.2c-1.2-0.8-3-1.5-5.5-2.1l0.7-1.6
		c2,0.2,3.9,0.5,5.9,0.9s3.8,0.7,5.3,1c-0.2,0.7-0.3,1.5-0.4,2.4s-0.2,1.7-0.2,2.5v15.8c0,0.7,0,1.5-0.1,2.4s-0.1,1.8-0.2,2.8
		c-0.1,0.9-0.2,1.8-0.3,2.6c-0.1,0.8-0.2,1.5-0.3,2l-2.6,0.4c-0.1-0.8-0.2-1.9-0.3-3.3c-0.1-1.3-0.1-2.6-0.1-3.7L266.8,16.2
		L266.8,16.2z"/>
	<path class="st0" d="M314.2,27.3c1,0.9,2,1.7,3,2.5s2,1.6,3.1,2.4c1.1,0.8,2.2,1.6,3.5,2.4c1.2,0.8,2.6,1.7,4.1,2.6l-3.4,3
		c-1.1-1.1-2.1-2.1-3-3s-1.9-1.8-2.8-2.7s-1.9-1.8-2.8-2.7c-1-0.9-2-1.9-3.1-3c-2.8,3-5.8,5.7-8.9,8.1c-3.1,2.3-6.1,4.3-9,5.8
		l-1.1-1.2c2.5-1.5,4.8-3.2,7.1-5.1s4.4-3.9,6.4-6.1c2-2.2,3.8-4.5,5.4-6.9s3.1-4.9,4.3-7.5c-0.6,0-1.3,0-2.2,0.1
		c-0.9,0-1.8,0.1-2.8,0.1c-1,0.1-1.9,0.1-2.8,0.1s-1.7,0.1-2.2,0.1c-0.4,0-1,0-1.6,0.1c-0.7,0.1-1.4,0.1-2.1,0.2
		c-0.8,0.1-1.5,0.2-2.3,0.2c-0.8,0.1-1.5,0.2-2.2,0.3l-2.3-3.6c1,0.2,2.3,0.4,3.8,0.5s2.9,0.2,4.2,0.2c1.4,0,2.9,0,4.5-0.1
		c1.5,0,3.1-0.1,4.6-0.2c1.5-0.1,2.9-0.3,4.3-0.4s2.6-0.4,3.7-0.7l1.3,1.3c-1.1,2.4-2.4,4.7-3.8,6.9
		C317.5,23.1,315.9,25.2,314.2,27.3z M318,7.7c-1.4,0-2.7,0-4.1,0c-1.4,0.1-2.6,0.1-3.7,0.1c-0.3,0-0.6,0-1.1,0
		c-0.4,0-0.9,0-1.5,0.1c-0.5,0-1.1,0.1-1.7,0.1s-1.1,0.1-1.6,0.2l-1.8-3.5c0.9,0.2,2,0.4,3.3,0.6c1.2,0.2,2.5,0.3,3.7,0.3
		c1,0,2.3-0.1,4-0.2c1.7-0.1,3.5-0.3,5.3-0.6L318,7.7z M327,0.1c2,0.2,4,0.5,5.9,0.9c2,0.4,3.7,0.7,5.2,1c-0.2,0.7-0.3,1.5-0.4,2.4
		s-0.2,1.7-0.2,2.5v32.8c0,1.2,0,2.6-0.1,4.2c-0.1,1.6-0.1,3.1-0.2,4.7c-0.1,1.6-0.2,3-0.3,4.5s-0.3,2.6-0.4,3.5l-2.5,0.3
		c-0.1-0.7-0.1-1.5-0.2-2.5s-0.1-2.1-0.1-3.2c0-1.2-0.1-2.3-0.1-3.5s0-2.4,0-3.5V7.1c0-1.3-0.6-2.4-1.8-3.2c-1.2-0.8-3-1.5-5.5-2.1
		L327,0.1z"/>
	<path class="st0" d="M411,32.8c-1.6-0.1-3.5-0.1-5.8-0.2c-2.3,0-4.8-0.1-7.4-0.1c-1.1,0-2.5,0-4.2,0s-3.6,0-5.6,0.1
		c-2,0-4.1,0.1-6.2,0.1s-4.1,0.1-6,0.2c-1.9,0.1-3.6,0.1-5.2,0.2s-2.7,0.1-3.5,0.1c-1.5,0.1-3,0.2-4.5,0.3s-3,0.3-4.4,0.5l-1.5-4.2
		c1.8,0.2,3.6,0.3,5.2,0.4c1.6,0.1,3.4,0.2,5.2,0.3c1,0,2.3,0.1,3.9,0.1s3.3,0,5.2,0c1.9,0,3.9-0.1,5.9-0.1c2.1-0.1,4-0.1,5.9-0.1
		s3.6-0.1,5.2-0.1s2.9-0.1,3.8-0.1c2.7-0.1,5.3-0.3,7.7-0.5c2.4-0.2,4.7-0.4,6.8-0.8L411,32.8z M402.1,21.8
		c-2.5-0.1-5.1-0.1-7.8-0.1s-5.5,0-8.1,0.1c-2.7,0.1-5.2,0.1-7.6,0.2c-2.4,0.1-4.5,0.2-6.3,0.3c-1.1,0.1-1.8-0.3-2.3-1.1
		s-0.8-1.7-0.8-2.8V9.9c0-0.9-0.1-1.6-0.2-2.2c-0.2-0.6-0.4-1.1-0.9-1.4c-0.4-0.4-1-0.7-1.8-0.9c-0.7-0.3-1.7-0.5-2.8-0.7l0.6-1.6
		c0.6,0.1,1.3,0.2,2.1,0.2c0.8,0.1,1.7,0.2,2.5,0.3c0.9,0.1,1.7,0.2,2.5,0.3s1.5,0.2,2.2,0.3c-0.1,0.5-0.1,1.1-0.2,2
		c-0.1,0.8-0.1,1.6-0.1,2.3v8.8c0,0.9,0.2,1.6,0.6,2s1.1,0.7,2.3,0.7c1.5,0,3.4,0,5.7-0.1c2.3-0.1,4.7-0.2,7.2-0.4s5-0.4,7.4-0.6
		c2.4-0.2,4.6-0.5,6.5-0.8L402.1,21.8z M403.7,54.3c-2.5-0.1-5.1-0.2-7.9-0.2s-5.5,0-8.3,0c-2.7,0-5.3,0.1-7.8,0.1
		c-2.5,0.1-4.6,0.2-6.3,0.3c-1.1,0.1-1.9-0.1-2.3-0.7s-0.7-1.2-0.7-2v-6.5c0-0.9,0-1.6-0.1-2.2c-0.1-0.6-0.3-1-0.7-1.4
		c-0.4-0.4-0.9-0.7-1.5-0.9c-0.7-0.3-1.6-0.5-2.8-0.8l0.6-1.5c0.6,0.1,1.3,0.2,2,0.3c0.8,0.1,1.5,0.2,2.3,0.3s1.6,0.2,2.3,0.3
		c0.8,0.1,1.5,0.2,2.1,0.3c-0.1,0.5-0.1,1.1-0.2,2c-0.1,0.8-0.1,1.6-0.1,2.4v6.1c0,0.9,0.2,1.4,0.6,1.7s1.2,0.4,2.3,0.4
		c1.5,0,3.4,0,5.8,0s4.9-0.1,7.4-0.2s5.1-0.3,7.6-0.5s4.6-0.4,6.3-0.7L403.7,54.3z"/>
	<path class="st0" d="M504,33.5c-1.6-0.1-3.5-0.1-5.8-0.2c-2.3,0-4.8-0.1-7.4-0.1c-1.1,0-2.5,0-4.2,0s-3.6,0.1-5.6,0.1
		c-2,0.1-4.1,0.1-6.2,0.2s-4.1,0.1-6,0.2c-1.9,0.1-3.6,0.1-5.2,0.2c-1.5,0.1-2.7,0.1-3.5,0.2c-1.5,0.1-3,0.2-4.5,0.3s-3,0.3-4.4,0.5
		l-1.5-4.2c1.8,0.2,3.6,0.4,5.2,0.5s3.4,0.2,5.2,0.3c1,0,2.3,0.1,3.9,0.1s3.3,0,5.2,0c1.9,0,3.9-0.1,5.9-0.1c2.1-0.1,4-0.1,5.9-0.2
		c1.9-0.1,3.6-0.1,5.2-0.2s2.9-0.1,3.8-0.1c2.7-0.1,5.3-0.3,7.7-0.5c2.4-0.2,4.7-0.4,6.8-0.8L504,33.5z M496.8,54.4
		c-2.5-0.1-5.1-0.2-7.9-0.2s-5.5,0-8.2,0s-5.3,0.1-7.7,0.1c-2.4,0.1-4.5,0.2-6.3,0.3c-1.1,0.1-1.9-0.1-2.3-0.7s-0.7-1.2-0.7-2V46
		c0-0.9,0-1.7-0.1-2.3s-0.3-1-0.7-1.4c-0.4-0.4-0.9-0.7-1.5-0.9c-0.7-0.3-1.6-0.5-2.8-0.8l0.6-1.5c0.6,0.1,1.3,0.2,2,0.2
		c0.8,0.1,1.5,0.2,2.3,0.3s1.6,0.2,2.3,0.3c0.8,0.1,1.5,0.2,2.1,0.3c-0.1,0.5-0.1,1.2-0.2,2s-0.1,1.6-0.1,2.3V50
		c0,0.9,0.2,1.4,0.6,1.7s1.2,0.4,2.3,0.4c1.5,0,3.4,0,5.8,0s4.8-0.1,7.4-0.2s5.1-0.3,7.6-0.5s4.6-0.4,6.3-0.7L496.8,54.4z
		 M479.4,4.5c1.8,0.1,3.4,0.5,4.9,1.1s2.8,1.3,3.8,2.2c1.1,0.9,1.9,1.9,2.5,3.1c0.6,1.2,0.9,2.4,0.9,3.7c0,1.5-0.4,2.9-1.1,4.1
		c-0.7,1.3-1.7,2.3-2.9,3.3c-1.2,0.9-2.7,1.6-4.4,2.1c-1.7,0.5-3.5,0.8-5.5,0.8s-3.8-0.3-5.4-0.8c-1.7-0.5-3.1-1.2-4.3-2.1
		c-1.2-0.9-2.2-2-2.9-3.3c-0.7-1.2-1-2.6-1-4.1c0-1.4,0.3-2.7,0.9-3.9s1.5-2.3,2.6-3.2s2.5-1.6,4-2.2c1.5-0.6,3.2-0.9,5-1
		c-0.1-0.4-0.3-0.8-0.7-1.1c-0.4-0.3-1-0.6-1.9-0.9l0.5-1.1c1,0.2,1.9,0.4,2.8,0.5s1.9,0.3,2.9,0.5c-0.2,0.4-0.3,0.8-0.5,1.1
		C479.7,3.7,479.6,4.1,479.4,4.5z M487.2,14.3c0-1.1-0.2-2.1-0.7-3.1s-1.2-1.9-2-2.6c-0.8-0.7-1.8-1.3-3-1.8
		c-1.1-0.4-2.3-0.7-3.6-0.7c-1.3,0-2.6,0.2-3.7,0.7c-1.2,0.4-2.2,1-3,1.8c-0.9,0.7-1.5,1.6-2,2.6s-0.7,2-0.7,3.1
		c0,1.2,0.2,2.2,0.7,3.2s1.2,1.8,2,2.5c0.9,0.7,1.9,1.3,3,1.7c1.2,0.4,2.4,0.6,3.7,0.6c1.3,0,2.6-0.2,3.7-0.6c1.1-0.4,2.1-0.9,3-1.7
		c0.8-0.7,1.5-1.6,2-2.5C487,16.6,487.2,15.5,487.2,14.3z"/>
	<path class="st0" d="M546.9,17.7c-1.3,0-2.8,0-4.6,0s-3.6,0.1-5.4,0.1c-1.8,0.1-3.6,0.1-5.4,0.2c-1.7,0.1-3.2,0.1-4.4,0.2
		c-0.5,0-1,0.1-1.7,0.1c-0.7,0.1-1.3,0.1-2.1,0.2s-1.4,0.1-2.1,0.2c-0.7,0.1-1.3,0.2-1.7,0.2l-1.8-3.7c1.1,0.2,2.3,0.4,3.8,0.5
		s2.7,0.2,3.8,0.2c1.3,0,2.8,0,4.7-0.1s3.7-0.1,5.7-0.3c2-0.1,4-0.3,6.1-0.5c2-0.2,3.9-0.4,5.6-0.8L546.9,17.7z M544.3,35.7
		c-0.9,1.6-2.3,2.9-4.1,3.9S536.3,41,534,41c-1.6,0-3.1-0.3-4.5-0.8s-2.6-1.2-3.7-2.1c-1-0.9-1.9-1.9-2.5-3
		c-0.6-1.2-0.9-2.4-0.9-3.7c0-1.4,0.3-2.8,0.9-3.9c0.6-1.2,1.4-2.2,2.5-3c1-0.9,2.3-1.5,3.7-2s2.9-0.7,4.5-0.7
		c1.7,0,3.2,0.3,4.7,0.8c1.4,0.5,2.6,1.2,3.7,2.1c1,0.9,1.8,1.9,2.4,3.1c0.6,1.2,0.8,2.4,0.8,3.7c0,1.2-0.3,2.3-0.8,3.5
		c0.5,0.1,1.2,0.1,1.9,0.2c0.7,0.1,1.4,0.1,2.1,0c0.5,0,1.1-0.1,1.6-0.1s1,0,1.5-0.1V24c-1.2,0.1-2.4,0.2-3.7,0.4s-2.5,0.4-3.6,0.7
		l-1.5-3.3c0.4,0.1,1.1,0.2,2.1,0.3s1.9,0.1,2.8,0.1c0.8,0,1.5-0.1,2.2-0.1s1.2,0,1.8-0.1V9.5c0-1.3-0.4-2.3-1.3-3.1
		c-0.8-0.8-2.4-1.4-4.7-2l0.6-1.6c1.9,0.2,3.6,0.5,5.1,0.8s3,0.6,4.6,1c-0.2,0.7-0.3,1.5-0.4,2.4c-0.1,0.9-0.2,1.8-0.2,2.5v28.2
		c0,1.2,0,2.6-0.1,4.1s-0.1,3.1-0.2,4.6c-0.1,1.5-0.2,3-0.3,4.5s-0.3,2.6-0.4,3.6l-2.3,0.3c-0.1-0.7-0.1-1.6-0.2-2.6
		c0-1-0.1-2.1-0.1-3.2c0-1.1-0.1-2.3-0.1-3.5s0-2.4,0-3.5v-4.9c-1.1,0.1-2.2,0.2-3.4,0.4s-2.2,0.4-3.2,0.6L544.3,35.7z M540.2,10.3
		c-1.3,0-2.6,0-4,0c-1.3,0.1-2.5,0.1-3.5,0.1c-0.5,0-1.4,0-2.5,0.1s-2.2,0.2-3.2,0.3l-1.8-3.5c0.9,0.2,2,0.4,3.2,0.6
		c1.2,0.2,2.4,0.3,3.5,0.3c1,0,2.3-0.1,3.9-0.2c1.6-0.1,3.3-0.3,5.1-0.6L540.2,10.3z M526.7,31.3c0,1.1,0.2,2,0.6,3
		c0.4,0.9,0.9,1.7,1.5,2.4s1.4,1.3,2.3,1.7C532,38.8,533,39,534,39s2-0.2,2.9-0.6c0.9-0.4,1.7-0.9,2.3-1.6c0.7-0.7,1.2-1.5,1.6-2.5
		c0.4-0.9,0.6-1.9,0.6-3c0-1-0.2-1.9-0.5-2.8c-0.4-0.9-0.8-1.7-1.5-2.4s-1.4-1.3-2.3-1.7c-0.9-0.4-1.9-0.6-3-0.6
		c-2.1,0-3.9,0.7-5.2,2.1C527.4,27.3,526.7,29.1,526.7,31.3z M555.9,0.1c1.9,0.3,3.7,0.6,5.4,0.9c1.7,0.4,3.4,0.7,4.9,1
		c-0.2,0.7-0.3,1.5-0.4,2.4c-0.1,0.9-0.2,1.7-0.2,2.5v32.8c0,1.2,0,2.6-0.1,4.1s-0.1,3.1-0.2,4.6c-0.1,1.5-0.2,3-0.3,4.5
		c-0.1,1.4-0.3,2.6-0.4,3.6l-2.4,0.3c-0.1-0.7-0.1-1.6-0.2-2.6c0-1-0.1-2.1-0.1-3.2c-0.1-1.1-0.1-2.3-0.1-3.5s0-2.3,0-3.5V6.9
		c0-1.3-0.5-2.3-1.4-3.1c-1-0.8-2.7-1.5-5.1-2.1L555.9,0.1z"/>
	<path class="st0" d="M599.6,9.6c1.6,0.2,3.1,0.5,4.5,1.1s2.5,1.4,3.5,2.3s1.8,2,2.3,3.2s0.8,2.5,0.8,3.9c0,1.5-0.3,2.9-1,4.2
		s-1.6,2.4-2.8,3.4s-2.5,1.7-4.1,2.2s-3.3,0.8-5.2,0.8s-3.6-0.3-5.2-0.8s-2.9-1.3-4.1-2.2c-1.2-1-2.1-2.1-2.7-3.4
		c-0.6-1.3-1-2.7-1-4.2c0-1.4,0.3-2.8,0.9-4.1c0.6-1.3,1.5-2.4,2.5-3.4c1.1-1,2.4-1.7,3.8-2.3c1.5-0.6,3.1-0.9,4.8-1
		c-0.1-0.5-0.3-0.9-0.7-1.2s-1-0.6-1.9-0.9l0.6-1.1c0.9,0.2,1.8,0.4,2.6,0.5c0.9,0.1,1.8,0.3,2.8,0.5c-0.2,0.4-0.3,0.7-0.4,1.1
		C599.8,8.7,599.6,9.1,599.6,9.6z M606.5,19.9c0-1.2-0.2-2.3-0.7-3.3c-0.4-1.1-1.1-2-1.8-2.7c-0.8-0.8-1.7-1.4-2.8-1.8
		c-1.1-0.4-2.2-0.7-3.5-0.7s-2.4,0.2-3.5,0.7c-1.1,0.4-2,1.1-2.8,1.8c-0.8,0.8-1.4,1.7-1.9,2.7c-0.4,1.1-0.7,2.2-0.7,3.3
		c0,1.3,0.2,2.4,0.7,3.4c0.4,1,1.1,1.9,1.9,2.7c0.8,0.8,1.7,1.3,2.8,1.8c1.1,0.4,2.2,0.6,3.5,0.6c1.2,0,2.4-0.2,3.5-0.6
		c1.1-0.4,2-1,2.8-1.8s1.4-1.6,1.8-2.7C606.3,22.3,606.5,21.1,606.5,19.9z M628.9,54.2c-2.5,0-4.9-0.1-7.4-0.1c-2.4,0-4.8,0-7.1,0.1
		c-2.3,0-4.5,0.1-6.6,0.2c-2.1,0.1-4,0.2-5.8,0.3c-1.1,0.1-1.9-0.1-2.4-0.7c-0.5-0.5-0.7-1.2-0.7-2v-7.2c0-0.9,0-1.6-0.1-2.2
		c-0.1-0.6-0.3-1-0.7-1.4s-0.9-0.7-1.5-0.9c-0.7-0.3-1.6-0.5-2.8-0.8l0.7-1.5c0.6,0.1,1.2,0.2,2,0.3c0.7,0.1,1.5,0.2,2.3,0.3
		s1.6,0.2,2.3,0.3c0.8,0.1,1.5,0.2,2.1,0.3c-0.1,0.5-0.1,1.1-0.2,2c-0.1,0.8-0.1,1.6-0.1,2.3v6.9c0,0.9,0.2,1.4,0.6,1.7
		c0.4,0.3,1.2,0.4,2.3,0.4c1.5,0,3.2,0,5.3-0.1c2-0.1,4.1-0.2,6.3-0.4s4.3-0.3,6.5-0.6c2.1-0.2,4.1-0.5,5.8-0.7L628.9,54.2z
		 M625.2,31.3c0,0.9,0,1.8-0.1,2.8s-0.1,2-0.2,3c-0.1,1-0.2,1.9-0.3,2.8c-0.1,0.9-0.3,1.7-0.4,2.3l-2.6,0.4
		c-0.1-0.5-0.1-1.2-0.2-1.9c0-0.8-0.1-1.6-0.1-2.5s-0.1-1.8-0.1-2.7s0-1.7,0-2.4V6.9c0-1.3-0.6-2.4-1.8-3.2s-3-1.5-5.5-2.1l0.7-1.6
		c2,0.2,3.9,0.5,5.9,0.9s3.8,0.7,5.3,1c-0.2,0.7-0.3,1.5-0.4,2.4c-0.1,0.9-0.2,1.7-0.2,2.5v12.8c1.6-0.1,3.4-0.2,5.4-0.4
		s4.1-0.5,6.2-0.8l-0.5,3.6c-0.8,0-1.7-0.1-2.7-0.1s-1.9,0-2.9,0s-2,0-2.9,0s-1.8,0-2.6,0L625.2,31.3L625.2,31.3z"/>
	<path class="st0" d="M665.5,14c1.3,0.2,2.6,0.5,3.7,0.9c1.2,0.5,2.2,1.1,3.1,1.8c0.9,0.8,1.7,1.6,2.3,2.6s1,2,1.2,3.2
		c0.5,0,1,0.1,1.5,0.1s1,0,1.6,0c1,0,1.8-0.1,2.4-0.1c0.6,0,1.1,0,1.6-0.1V9.5c0-1.3-0.4-2.3-1.2-3.1s-2.4-1.4-4.7-2l0.6-1.6
		c2,0.2,3.7,0.5,5.2,0.8s3,0.6,4.5,1c-0.2,0.7-0.3,1.5-0.4,2.4c-0.1,0.9-0.2,1.8-0.2,2.5v28.2c0,1.2,0,2.6-0.1,4.1s-0.1,3.1-0.2,4.6
		c-0.1,1.5-0.2,3-0.3,4.5s-0.3,2.6-0.4,3.6l-2.3,0.3c-0.1-0.7-0.1-1.6-0.2-2.6c0-1-0.1-2.1-0.1-3.2s-0.1-2.3-0.1-3.5s0-2.4,0-3.5
		V24.5c-2.4,0.1-4.7,0.4-6.9,0.9c-0.1,1.4-0.5,2.7-1.2,3.9s-1.6,2.2-2.6,3.1c-1.1,0.9-2.3,1.5-3.8,2c-1.4,0.5-3,0.7-4.6,0.7
		c-1.8,0-3.4-0.3-4.9-0.8s-2.8-1.3-3.9-2.2c-1.1-0.9-2-2.1-2.6-3.4c-0.6-1.3-0.9-2.7-0.9-4.2c0-1.4,0.3-2.8,0.9-4.1
		c0.6-1.3,1.4-2.4,2.4-3.3c1-0.9,2.2-1.7,3.7-2.3c1.4-0.6,3-0.9,4.6-1c-0.1-0.5-0.3-1-0.6-1.3s-0.9-0.7-1.8-1l0.6-1.2
		c0.9,0.2,1.7,0.4,2.6,0.5c0.9,0.1,1.8,0.3,2.7,0.6c-0.2,0.4-0.3,0.8-0.4,1.2C665.7,13.1,665.6,13.5,665.5,14z M672.3,24.3
		c0-1.2-0.2-2.3-0.6-3.4c-0.4-1-1-1.9-1.8-2.7c-0.7-0.8-1.6-1.4-2.7-1.8c-1.1-0.4-2.2-0.7-3.4-0.7s-2.3,0.2-3.4,0.7
		c-1.1,0.4-2,1.1-2.7,1.8s-1.4,1.7-1.8,2.7c-0.4,1-0.6,2.2-0.6,3.4s0.2,2.3,0.6,3.3c0.4,1,1,1.9,1.8,2.6c0.8,0.7,1.7,1.3,2.7,1.8
		c1.1,0.4,2.2,0.6,3.4,0.6s2.3-0.2,3.4-0.6c1.1-0.4,2-1,2.7-1.8c0.7-0.7,1.3-1.6,1.8-2.6C672,26.7,672.3,25.5,672.3,24.3z
		 M687.1,0.1c2,0.3,3.8,0.6,5.5,0.9c1.7,0.4,3.3,0.7,4.9,1c-0.2,0.7-0.3,1.5-0.4,2.4c-0.1,0.9-0.2,1.7-0.2,2.5v32.8
		c0,1.2,0,2.6-0.1,4.1s-0.1,3.1-0.2,4.6c-0.1,1.5-0.2,3-0.3,4.5c-0.1,1.4-0.3,2.6-0.4,3.6l-2.4,0.3c-0.1-0.7-0.1-1.6-0.2-2.6
		c0-1-0.1-2.1-0.1-3.2c-0.1-1.1-0.1-2.3-0.1-3.5s0-2.3,0-3.5V6.9c0-1.3-0.5-2.3-1.4-3.1c-1-0.8-2.7-1.5-5.1-2.1L687.1,0.1z"/>
	<path class="st0" d="M733.8,22.3c2.1,2.2,4.4,4.4,6.8,6.6c2.4,2.2,5.1,4.4,8,6.5l-3.4,3.3c-2.1-2.5-4.2-4.9-6.2-7.3
		c-2-2.4-4.1-4.9-6.4-7.4c-2.1,3.1-4.5,6-7.1,8.7c-2.7,2.7-5.6,5.2-8.9,7.4l-1.2-1.2c2.3-1.8,4.5-3.8,6.4-5.9c2-2.1,3.7-4.3,5.2-6.6
		s2.8-4.6,3.9-7c1.1-2.4,1.9-4.7,2.5-7.1c0.2-0.5,0.3-1,0.3-1.3s-0.2-0.6-0.7-0.9c-0.4-0.2-0.8-0.5-1.4-0.9s-1.3-0.7-2.2-1.2
		l0.9-1.2c1.6,0.4,3.1,0.8,4.6,1.2s3,0.9,4.5,1.5c-0.7,2.2-1.6,4.4-2.6,6.5C736.1,18.2,735,20.3,733.8,22.3z M756.8,22.7
		c-1.3,0-2.6,0.1-3.9,0.2c-1.3,0.1-2.6,0.2-3.8,0.2c-1.2,0.1-2.3,0.2-3.4,0.3c-1.1,0.1-2,0.3-2.8,0.4l-1.5-3.4
		c0.8,0.2,1.8,0.3,3.1,0.4c1.3,0.1,2.5,0.1,3.7,0.1c0.5,0,1.2,0,1.9,0s1.5,0,2.3,0s1.6,0,2.3,0c0.8,0,1.5,0,2.1-0.1V7
		c0-1.3-0.6-2.4-1.8-3.2s-3-1.5-5.5-2.1l0.6-1.6c2,0.2,4,0.5,5.9,0.9c2,0.4,3.7,0.7,5.3,1c-0.2,0.7-0.4,1.5-0.5,2.4
		s-0.2,1.7-0.2,2.5v32.8c0,1.2,0,2.6-0.1,4.2c-0.1,1.6-0.1,3.1-0.2,4.7c-0.1,1.6-0.2,3-0.3,4.5s-0.3,2.6-0.4,3.5l-2.5,0.3
		c-0.1-0.7-0.1-1.5-0.2-2.5s-0.1-2.1-0.1-3.2c0-1.2-0.1-2.3-0.1-3.5s0-2.4,0-3.5V22.7H756.8z"/>
</g>
<g>
	<path class="st0" d="M33,143.9c3.2,2.9,6.4,5.8,9.7,8.6s7.4,5.6,12.1,8.5l-5.5,4.9c-1.7-1.8-3.3-3.5-4.8-5.1s-3-3.2-4.4-4.7
		c-1.5-1.5-3-3.1-4.5-4.7s-3.1-3.3-4.8-5c-4.2,4.8-8.7,9.1-13.5,12.9c-4.8,3.8-9.8,7-14.9,9.6l-1.9-1.8c4.4-2.7,8.6-5.8,12.7-9.3
		c4-3.5,7.7-7.2,11.1-11.2c3.3-4,6.2-8.1,8.7-12.5s4.4-8.7,5.7-13.1c-0.9,0-2.2,0-3.7,0.1s-3.1,0.1-4.8,0.2
		c-1.6,0.1-3.2,0.1-4.8,0.2c-1.5,0.1-2.8,0.1-3.6,0.1c-0.7,0-1.6,0-2.7,0.1s-2.3,0.2-3.5,0.3s-2.5,0.3-3.7,0.4
		c-1.3,0.2-2.4,0.3-3.5,0.5L4.8,117c0.8,0.1,1.7,0.3,2.7,0.4c1.1,0.1,2.2,0.2,3.4,0.3s2.3,0.2,3.5,0.2s2.3,0,3.4,0
		c2.3,0,4.8,0,7.3-0.1c2.6-0.1,5.1-0.2,7.6-0.4s4.9-0.4,7.1-0.7c2.2-0.3,4.2-0.6,6-1l2.2,2c-1.6,4.7-3.7,9.3-6.2,13.6
		C39.1,135.9,36.3,140,33,143.9z M66.3,142.2c-7.6,0.3-13.9,0.9-19.1,1.9l-2.6-5.7c1.3,0.3,2.9,0.5,5,0.7c2.1,0.1,4.1,0.2,6,0.1
		c1.6-0.1,3.4-0.1,5.3-0.1s3.7,0,5.3-0.1v-27.1c0-2.1-1-3.8-2.9-5.1s-4.9-2.4-8.9-3.4l1-2.6c3.2,0.4,6.4,0.9,9.6,1.5s6,1.2,8.6,1.7
		c-0.3,1.1-0.5,2.4-0.7,3.9s-0.3,2.8-0.3,4.1v53c0,2,0,4.2-0.1,6.7s-0.2,5-0.3,7.6c-0.1,2.5-0.3,4.9-0.5,7.2s-0.4,4.1-0.7,5.6
		l-4,0.5c-0.1-1.1-0.2-2.4-0.3-4s-0.2-3.3-0.2-5.2c-0.1-1.9-0.1-3.8-0.1-5.7c0-2,0-3.8,0-5.7v-29.8H66.3z"/>
	<path class="st0" d="M174.1,163.3c-4.1,0.9-8.3,1.7-12.6,2.5c-4.3,0.8-8.6,1.5-12.8,2.2c-4.2,0.7-8.3,1.2-12.2,1.7
		s-7.6,0.8-10.8,1.1c-0.7,0.1-1.6,0.1-2.8,0.2c-1.2,0.1-2.4,0.2-3.7,0.4c-1.3,0.2-2.6,0.3-4,0.4c-1.3,0.1-2.5,0.3-3.6,0.5l-3.7-6.1
		c2.1,0.3,4.4,0.6,6.8,0.8c2.5,0.2,4.7,0.3,6.8,0.1c4.7-0.2,9.4-0.5,14.1-0.8c4.7-0.4,9.2-0.9,13.7-1.4c4.5-0.6,8.8-1.2,13-1.9
		c4.2-0.7,8.1-1.5,11.9-2.4V112c0-2.1-1-3.8-2.9-5.1s-4.9-2.4-8.9-3.4l1-2.6c3.2,0.4,6.4,0.9,9.6,1.5s6.1,1.2,8.5,1.7
		c-0.3,1.1-0.5,2.4-0.7,3.9c-0.2,1.5-0.3,2.8-0.3,4.1v53c0,2,0,4.2-0.1,6.7s-0.2,5-0.3,7.6c-0.1,2.5-0.3,4.9-0.5,7.2
		c-0.2,2.3-0.5,4.1-0.7,5.6l-4,0.5c-0.1-1.1-0.2-2.4-0.3-4s-0.2-3.3-0.2-5.2c-0.1-1.9-0.1-3.8-0.1-5.7c0-2,0-3.8,0-5.7v-8.8H174.1z
		 M165.2,122.5c-1.5,0-3.2,0-5.3,0s-4.3,0-6.7,0.1s-4.9,0.1-7.4,0.2c-2.6,0.1-5,0.1-7.3,0.2c-2.3,0.1-4.5,0.2-6.6,0.2
		c-2,0.1-3.7,0.1-5.1,0.2c-0.8,0.1-1.7,0.1-2.8,0.2c-1.1,0.1-2.3,0.1-3.5,0.2c-1.2,0.1-2.4,0.2-3.5,0.3s-2.1,0.3-2.8,0.4l-2.8-5.9
		c1.8,0.3,3.9,0.6,6.3,0.8s4.6,0.3,6.4,0.3c1.5,0,3.2,0,5.3-0.1c2.1-0.1,4.4-0.1,6.9-0.2c2.5-0.1,5.1-0.2,7.8-0.3
		c2.7-0.1,5.4-0.3,8-0.5s5.1-0.4,7.6-0.7c2.4-0.3,4.6-0.6,6.6-0.9L165.2,122.5z M158.9,142.9c0,2.1-0.5,4-1.5,5.8s-2.4,3.3-4.1,4.6
		c-1.7,1.3-3.8,2.4-6.1,3.1c-2.3,0.8-4.8,1.1-7.5,1.1c-2.7,0-5.1-0.4-7.5-1.2c-2.3-0.8-4.4-1.8-6.1-3.2c-1.7-1.3-3.1-2.9-4.1-4.6
		c-1-1.8-1.5-3.7-1.5-5.7c0-2.1,0.5-4.1,1.5-5.9c1-1.8,2.4-3.3,4.1-4.6s3.8-2.3,6.1-3c2.3-0.7,4.8-1.1,7.5-1.1
		c2.8,0,5.4,0.4,7.8,1.2c2.3,0.8,4.4,1.9,6.1,3.2c1.7,1.4,3,2.9,4,4.7C158.5,139.1,158.9,141,158.9,142.9z M151,112.4
		c-2.2-0.1-4.5,0-7,0c-2.4,0.1-4.5,0.1-6.2,0.1c-0.4,0-1,0-1.8,0c-0.7,0-1.5,0.1-2.4,0.1s-1.8,0.1-2.7,0.2c-0.9,0.1-1.8,0.2-2.6,0.3
		l-2.8-5.6c1.5,0.3,3.3,0.6,5.2,0.9c2,0.3,4,0.5,5.9,0.5c1.6,0,3.8-0.1,6.7-0.3s5.9-0.5,8.9-0.9L151,112.4z M127.4,142.5
		c0,1.5,0.3,2.9,0.9,4.2c0.6,1.4,1.5,2.6,2.6,3.6s2.4,1.9,3.9,2.5s3.2,0.9,4.9,0.9c1.7,0,3.3-0.3,4.8-0.9c1.5-0.6,2.8-1.4,3.9-2.4
		s2-2.2,2.6-3.5c0.6-1.4,0.9-2.8,0.9-4.3s-0.3-2.8-0.9-4.2c-0.6-1.3-1.5-2.5-2.6-3.5s-2.4-1.9-3.9-2.5s-3.1-0.9-4.9-0.9
		c-1.8,0-3.4,0.3-4.9,0.9c-1.5,0.6-2.8,1.4-3.9,2.4c-1.1,1-2,2.2-2.6,3.5C127.8,139.5,127.4,141,127.4,142.5z"/>
	<path class="st0" d="M298,124c-2.3,3.5-5,6.9-8,10.2s-6.2,6.3-9.6,9.1s-6.9,5.3-10.6,7.6c-3.7,2.2-7.3,4.1-10.9,5.5l-1.8-2
		c4-1.9,7.9-4.2,11.7-6.9c3.8-2.7,7.4-5.7,10.7-9c3.3-3.3,6.3-6.9,9-10.7c2.6-3.8,4.8-7.7,6.3-11.7c-1.4,0-2.9,0-4.6,0
		s-3.3,0.1-4.9,0.1c-1.6,0.1-3.1,0.1-4.4,0.2c-1.3,0.1-2.3,0.1-2.9,0.2c-0.6,0.1-1.5,0.1-2.6,0.2c-1.1,0.1-2.3,0.2-3.5,0.3
		s-2.5,0.3-3.7,0.4c-1.3,0.2-2.4,0.3-3.3,0.5l-3.7-6c0.7,0.1,1.6,0.2,2.7,0.3s2.3,0.2,3.5,0.3s2.5,0.2,3.7,0.2
		c1.2,0.1,2.4,0.1,3.5,0.1c2.6,0,5.4-0.1,8.1-0.2c2.8-0.1,5.4-0.3,7.9-0.5s4.7-0.4,6.6-0.7c2-0.3,3.5-0.6,4.5-0.9l2.4,1.5
		c-0.6,1.6-1.3,3.2-2.1,4.8c-0.8,1.6-1.7,3.1-2.7,4.6c1.3,0.1,2.6,0.2,4.1,0.3s2.9,0.1,4.3,0c2.3-0.1,4.8-0.1,7.3-0.2
		c2.5-0.1,4.9-0.2,7.1-0.4v-9.6c0-2.1-1-3.8-2.9-5.1s-4.9-2.4-8.9-3.4l1-2.6c3.2,0.4,6.4,0.9,9.6,1.5s6,1.2,8.5,1.7
		c-0.3,1.1-0.5,2.4-0.7,3.9s-0.3,2.8-0.3,4.1v21.8c0,1.1,0,2.4-0.1,3.9s-0.2,3-0.4,4.4c-0.2,1.5-0.3,2.9-0.5,4.2s-0.3,2.4-0.5,3.2
		l-4.2,0.6c-0.1-1.1-0.3-2.5-0.4-4.2s-0.2-3.3-0.3-4.9c-4.1,0.1-8.4,0.3-13,0.6c-4.5,0.3-8.7,0.7-12.4,1.2l-2.5-5.5
		c0.6,0.1,1.4,0.2,2.2,0.3c0.9,0.1,1.8,0.2,2.7,0.2c1,0.1,2,0.1,3,0.1s2,0,2.9,0c1.2,0,2.5,0,4,0s3-0.1,4.5-0.1
		c1.5-0.1,3-0.1,4.5-0.1s2.8-0.1,3.9-0.2V125c-4,0.1-8,0.3-11.8,0.5s-7.5,0.6-11,1.3L298,124z M320.6,157c-1.6-0.1-3.5-0.1-5.8-0.1
		s-4.7,0-7.1,0.1c-2.5,0.1-4.9,0.1-7.2,0.2c-2.3,0.1-4.3,0.2-6,0.3c-0.7,0.1-1.6,0.1-2.6,0.2c-1,0.1-2.2,0.1-3.4,0.2
		c-1.2,0.1-2.4,0.2-3.7,0.4c-1.3,0.2-2.5,0.4-3.7,0.6l-3.2-5.9c1.4,0.3,3.4,0.6,5.9,0.8s4.7,0.3,6.7,0.3c2.5,0,5.2,0,8.3,0
		s6.3,0,9.6-0.1c3.3-0.1,6.7-0.2,10.2-0.4c3.4-0.2,6.7-0.4,9.8-0.6c-0.2,0.6-0.4,1.5-0.6,2.6c-0.2,1.2-0.4,2.4-0.6,3.6l-1.4,9.1
		c0.5-0.1,1-0.1,1.4-0.1s0.8-0.1,1.2-0.1l-0.5,4.5c-3.7-0.2-7.4-0.3-11.2-0.3c-3.8,0-7.5,0-10.9,0.1c-3.5,0.1-6.6,0.2-9.5,0.3
		c-2.8,0.1-5,0.2-6.6,0.3c-0.1,0.5-0.1,1.1-0.1,1.8s0,1.3,0,1.8v6.4c0,1.1,0.2,1.8,0.7,2.1s1.5,0.6,3.2,0.6c2.3,0.1,5.2,0.1,8.6,0
		s6.9-0.2,10.6-0.4s7.3-0.5,10.8-0.8s6.7-0.7,9.4-1.1l-1.6,6.1c-3.5-0.1-7.2-0.2-11.1-0.2s-7.7,0-11.6,0c-3.8,0.1-7.6,0.2-11.2,0.3
		s-6.8,0.3-9.7,0.4c-1.6,0.1-2.8-0.3-3.5-1.2s-1.1-2.1-1.1-3.5v-6.8c0-1.2-0.1-2.2-0.2-3c-0.2-0.8-0.5-1.4-0.9-2
		c-0.5-0.5-1.2-1-2-1.4c-0.9-0.4-2.1-0.8-3.6-1.3l1-2.1c3.4,0.4,7,0.6,10.7,0.8c3.8,0.1,7.5,0.2,11.3,0.1c3.8,0,7.4-0.1,11-0.3
		s6.9-0.3,10-0.5L320.6,157z"/>
	<path class="st0" d="M407.3,157.7c3.7-0.1,7-0.2,10.1-0.3s5.5-0.2,7.3-0.3c4.4-0.2,8.5-0.4,12.4-0.8c3.9-0.3,7.6-0.7,11-1.2
		l-0.9,6.1c-2.5-0.1-5.6-0.2-9.3-0.3c-3.7-0.1-7.7-0.1-12-0.2c-1.8,0-4,0-6.8,0s-5.8,0.1-9,0.1c-3.2,0.1-6.6,0.1-10,0.2
		c-3.4,0.1-6.7,0.2-9.7,0.3c-3.1,0.1-5.9,0.2-8.3,0.3c-2.5,0.1-4.3,0.2-5.6,0.2c-2.5,0.1-4.9,0.3-7.3,0.5s-4.8,0.5-7.1,0.8l-2.5-6.6
		c3,0.3,5.8,0.6,8.4,0.7c2.6,0.2,5.5,0.3,8.4,0.4c1.2,0.1,2.7,0.1,4.5,0.1s3.8,0,6,0s4.5,0,7,0s4.9-0.1,7.4-0.1v-7.8
		c-2.4-0.3-4.6-0.8-6.7-1.6s-3.9-1.9-5.4-3.1c-1.5-1.3-2.7-2.7-3.5-4.3c-0.9-1.6-1.3-3.3-1.3-5.1c0-2.1,0.5-4.1,1.6-5.8
		c1-1.7,2.4-3.2,4.2-4.5c1.8-1.3,3.8-2.2,6.2-2.9c2.4-0.7,4.9-1,7.7-1c2.9,0,5.6,0.4,8,1.2s4.5,1.8,6.3,3.2c1.8,1.3,3.1,2.8,4.1,4.5
		c0.9,1.7,1.4,3.5,1.4,5.4c0,1.8-0.4,3.4-1.2,5c-0.8,1.6-2,3-3.4,4.3c-1.5,1.3-3.2,2.3-5.2,3.2s-4.2,1.4-6.6,1.7v7.7H407.3z
		 M435.1,117.2c-1.7-0.1-3.9-0.1-6.7-0.1c-2.7,0-5.7,0-8.9,0c-3.2,0.1-6.5,0.1-9.9,0.2s-6.6,0.2-9.6,0.3s-5.7,0.2-8.1,0.3
		s-4.2,0.2-5.3,0.2c-0.8,0-1.8,0-3,0.1s-2.4,0.2-3.6,0.3c-1.3,0.1-2.5,0.2-3.7,0.3s-2.2,0.3-3,0.4l-2.6-5.8c0.9,0.2,2,0.3,3.3,0.5
		c1.2,0.1,2.5,0.2,3.7,0.3c1.3,0.1,2.5,0.2,3.8,0.2c1.3,0.1,2.4,0.1,3.3,0.1c1.5,0,3.5,0,6-0.1s5.2-0.1,8.2-0.2
		c3-0.1,6.2-0.2,9.6-0.4s6.7-0.3,10.1-0.6c3.3-0.2,6.6-0.5,9.7-0.7c3.1-0.3,6-0.5,8.6-0.9L435.1,117.2z M435.4,188.6
		c-4-0.2-8.2-0.3-12.7-0.4c-4.5-0.1-8.9-0.1-13.3,0c-4.4,0-8.5,0.1-12.5,0.2c-3.9,0.1-7.3,0.3-10.2,0.5c-1.8,0.1-3-0.2-3.8-1.1
		s-1.1-1.9-1.1-3.2v-6.2c0-1.4-0.1-2.6-0.2-3.5c-0.2-0.9-0.5-1.7-1.1-2.3s-1.4-1.1-2.5-1.5s-2.6-0.9-4.4-1.4l1-2.4
		c0.9,0.1,2,0.3,3.3,0.4c1.2,0.1,2.5,0.3,3.7,0.4c1.3,0.2,2.5,0.3,3.8,0.5s2.4,0.3,3.3,0.4c-0.1,0.8-0.2,1.8-0.3,3.2
		c-0.1,1.4-0.1,2.6-0.1,3.8v5.6c0,1.4,0.3,2.3,0.9,2.7s1.9,0.6,3.7,0.7c2.4,0.1,5.5,0.1,9.3,0s7.8-0.2,12-0.4s8.2-0.4,12.2-0.8
		c4-0.3,7.3-0.7,10.1-1.1L435.4,188.6z M416.7,108c-1.1,0-2.3,0-3.8,0s-2.9,0-4.4,0.1s-2.9,0.1-4.2,0.1c-1.3,0-2.4,0-3.2,0
		c-0.4,0-1.1,0-1.9,0s-1.7,0-2.6,0.1s-1.9,0.1-2.9,0.2c-1,0.1-1.9,0.2-2.7,0.3l-2.7-5.5c1.5,0.3,3.3,0.6,5.5,0.9s4.3,0.4,6.1,0.4
		c0.8,0,1.8,0,3.3-0.1c1.4-0.1,3-0.1,4.7-0.2c1.7-0.1,3.4-0.2,5.2-0.4c1.8-0.2,3.4-0.3,4.9-0.5L416.7,108z M391.4,135.8
		c0,1.4,0.3,2.7,1,4s1.6,2.4,2.7,3.4s2.5,1.7,4,2.3s3.2,0.9,5,0.9s3.4-0.3,4.9-0.8s2.8-1.3,4-2.2s2-2.1,2.7-3.4c0.7-1.3,1-2.7,1-4.1
		c0-1.5-0.3-2.8-0.9-4.2c-0.6-1.3-1.5-2.5-2.6-3.5s-2.4-1.8-4-2.4c-1.5-0.6-3.3-0.9-5.2-0.9c-1.8,0-3.4,0.3-5,0.8
		c-1.5,0.5-2.9,1.2-4,2.2c-1.1,0.9-2,2.1-2.7,3.5C391.8,132.7,391.4,134.2,391.4,135.8z"/>
	<path class="st0" d="M521.5,121.1c-1.5,0-3.2,0-5.3,0s-4.3,0-6.7,0.1s-4.9,0.1-7.4,0.2c-2.5,0.1-5,0.1-7.3,0.2
		c-2.4,0.1-4.6,0.1-6.6,0.2c-2,0.1-3.7,0.1-5,0.2c-0.8,0.1-1.7,0.1-2.8,0.2c-1.1,0.1-2.3,0.2-3.5,0.3s-2.4,0.2-3.5,0.3
		s-2.1,0.3-2.8,0.4l-2.9-5.9c1.8,0.3,3.9,0.6,6.3,0.8s4.5,0.3,6.3,0.3c1.4,0,3.2,0,5.3-0.1c2.1-0.1,4.4-0.1,6.9-0.2
		c2.5-0.1,5.1-0.2,7.8-0.3c2.7-0.1,5.4-0.3,8-0.5c2.6-0.2,5.2-0.4,7.6-0.7c2.4-0.3,4.6-0.5,6.5-0.9L521.5,121.1z M514.6,140.3
		c0,2-0.5,3.9-1.5,5.7s-2.3,3.3-4,4.6s-3.7,2.3-6,3.1s-4.8,1.1-7.4,1.1s-5-0.4-7.3-1.1c-2.3-0.8-4.3-1.8-6-3.1s-3-2.9-4-4.6
		c-1-1.8-1.5-3.6-1.5-5.6c0-2.1,0.5-4.1,1.5-5.9c1-1.8,2.3-3.3,4-4.6s3.7-2.3,6-3s4.7-1.1,7.3-1.1c2.8,0,5.3,0.4,7.7,1.2
		c2.3,0.8,4.3,1.9,6,3.2c1.7,1.4,3,2.9,3.9,4.7C514.2,136.4,514.6,138.3,514.6,140.3z M507.4,111c-2.2-0.1-4.5,0-7,0
		c-2.5,0.1-4.5,0.1-6.2,0.1c-0.4,0-1,0-1.8,0c-0.7,0-1.5,0.1-2.4,0.1s-1.8,0.1-2.7,0.2c-0.9,0.1-1.8,0.2-2.6,0.3l-2.8-5.7
		c1.5,0.4,3.3,0.7,5.2,1c2,0.3,4,0.5,5.9,0.5c1.6,0,3.8-0.1,6.8-0.3c2.9-0.2,5.9-0.6,8.8-1L507.4,111z M483.9,139.8
		c0,1.5,0.3,3,0.9,4.4s1.4,2.6,2.5,3.6s2.3,1.9,3.8,2.5c1.4,0.6,3,0.9,4.7,0.9s3.3-0.3,4.7-0.9c1.5-0.6,2.7-1.4,3.8-2.5
		c1.1-1,1.9-2.3,2.5-3.6c0.6-1.4,0.9-2.9,0.9-4.4s-0.3-2.9-0.9-4.3c-0.6-1.4-1.4-2.6-2.4-3.6s-2.3-1.9-3.8-2.5s-3.1-0.9-4.9-0.9
		c-1.7,0-3.3,0.3-4.7,0.9c-1.5,0.6-2.7,1.3-3.8,2.3c-1.1,1-1.9,2.2-2.5,3.5C484.2,136.6,483.9,138.1,483.9,139.8z M530.6,186.7
		c-4.8-0.2-9.7-0.2-14.8,0s-10.6,0.4-16.5,0.8c-0.1,0.6-0.2,1.2-0.3,1.8c-0.1,0.6-0.2,1.1-0.3,1.6l-3.9,0.7
		c-0.3-1.3-0.4-2.7-0.6-4.3c-0.1-1.6-0.2-3.3-0.2-5.1v-14.1c0-1.1-0.1-2-0.3-2.8c-0.2-0.8-0.6-1.5-1.1-2c-0.6-0.6-1.3-1-2.3-1.4
		s-2.3-0.8-3.8-1.1l0.9-2.4c2.1,0.2,4.4,0.4,6.6,0.8c2.3,0.3,4.6,0.7,7.1,1.2c-0.3,1.1-0.5,2.4-0.7,3.6c-0.2,1.3-0.3,2.6-0.3,3.8
		v0.7c5-0.1,10-0.2,14.9-0.3c4.9-0.2,10-0.5,15.3-1v-2.1c0-1.1-0.1-2-0.4-2.7c-0.3-0.8-0.7-1.4-1.4-2s-1.5-1.1-2.6-1.5
		s-2.5-0.8-4.2-1.3l1-2.4c2.6,0.3,5.2,0.6,7.5,0.9c2.4,0.3,4.8,0.7,7.2,1.2c-0.3,1.2-0.5,2.4-0.7,3.7s-0.3,2.5-0.3,3.8v12
		c0,2.3-0.2,4.6-0.5,7.1s-0.7,4.4-1,6l-4,0.6c-0.1-0.5-0.2-1.1-0.2-1.7C530.8,188.1,530.7,187.4,530.6,186.7z M530.3,180.9v-9.4
		c-5-0.2-9.9-0.2-14.8-0.1c-4.9,0.1-10,0.3-15.4,0.7v6c0,0.9,0,1.9-0.1,2.9s-0.2,2-0.4,3c5.1-0.1,10.2-0.2,15.3-0.4
		c5.1-0.2,10.2-0.5,15.3-0.9L530.3,180.9L530.3,180.9z M537,134c2.6-0.1,5.5-0.4,8.8-0.7s6.6-0.8,10-1.3l-0.9,5.8
		c-1.3-0.1-2.8-0.1-4.4-0.1s-3.2,0-4.8,0s-3.2,0-4.7,0s-2.9,0-4.1,0c0,1.1-0.1,2.4-0.2,3.8c-0.1,1.4-0.3,2.8-0.4,4.3
		c-0.1,1.4-0.3,2.8-0.4,4c-0.2,1.3-0.3,2.3-0.5,3l-4.2,0.6c-0.2-1.4-0.4-3.2-0.5-5.3c-0.2-2.1-0.2-4.1-0.2-5.9v-30.4
		c0-2.1-0.9-3.8-2.8-5.1c-1.9-1.3-4.9-2.4-8.9-3.4l1-2.6c3.2,0.4,6.3,0.9,9.6,1.5c3.2,0.6,6.1,1.2,8.5,1.7c-0.3,1.1-0.5,2.4-0.7,3.9
		s-0.3,2.8-0.3,4.1V134H537z"/>
	<path class="st0" d="M640.3,112c0-2.1-1-3.8-2.9-5.1s-4.9-2.4-8.9-3.4l1.1-2.6c3.2,0.4,6.3,0.9,9.6,1.5c3.2,0.6,6.1,1.2,8.5,1.7
		c-0.3,1.1-0.5,2.4-0.7,3.9s-0.3,2.8-0.3,4.1v53c0,2,0,4.2-0.1,6.7s-0.2,5-0.3,7.6c-0.1,2.5-0.3,4.9-0.5,7.2s-0.5,4.1-0.7,5.6
		l-4,0.5c-0.1-1.1-0.2-2.4-0.3-4s-0.2-3.3-0.2-5.2c-0.1-1.9-0.1-3.8-0.1-5.7c0-2,0-3.8,0-5.7v-20.9c-2.8,1.2-6.1,2.4-9.9,3.6
		c-3.8,1.2-7.8,2.4-11.9,3.5c-4.1,1.1-8.2,2.1-12.2,3s-7.6,1.5-10.6,2c-2.8,0.4-4.9,0-6.1-1.1c-1.2-1.1-1.8-3.1-1.8-6v-28.9
		c0-1.1-0.1-2-0.4-2.7c-0.3-0.8-0.7-1.4-1.4-1.9s-1.7-1-2.9-1.4c-1.3-0.4-2.9-0.8-4.9-1.1l0.9-2.6c3.2,0.1,6.1,0.3,8.6,0.7
		c2.5,0.3,5,0.7,7.5,1.1c-0.3,1.1-0.5,2.4-0.7,3.9s-0.3,2.8-0.3,4.1v27c0,1.3,0.3,2.1,1,2.6s1.6,0.7,2.6,0.6
		c2.5-0.2,5.6-0.6,9.3-1.1c3.7-0.6,7.5-1.3,11.4-2.1c3.9-0.9,7.8-1.8,11.6-2.8s7.1-2.1,10-3.1L640.3,112L640.3,112z"/>
	<path class="st0" d="M742.6,112c0-2.1-1-3.8-2.9-5.1s-4.9-2.4-8.9-3.4l1.1-2.6c3.2,0.4,6.3,0.9,9.6,1.5c3.2,0.6,6.1,1.2,8.5,1.7
		c-0.3,1.1-0.5,2.4-0.7,3.9s-0.3,2.8-0.3,4.1v27.3c2.6-0.1,5.6-0.3,9-0.7c3.4-0.3,6.8-0.8,10.2-1.4l-0.9,6.1
		c-1.3-0.1-2.8-0.1-4.4-0.1c-1.6,0-3.2,0-4.9,0c-1.6,0-3.2,0-4.8,0s-3,0-4.2,0V165c0,2,0,4.2-0.1,6.7s-0.2,5-0.3,7.6
		c-0.1,2.5-0.3,4.9-0.5,7.2s-0.5,4.1-0.7,5.6l-4,0.5c-0.1-1.1-0.2-2.4-0.3-4s-0.2-3.3-0.2-5.2c-0.1-1.9-0.1-3.8-0.1-5.7
		c0-2,0-3.8,0-5.7v-19.2c-2.8,1.1-6.1,2.3-9.9,3.5c-3.8,1.2-7.7,2.4-11.7,3.5s-8,2.1-11.9,3s-7.5,1.5-10.5,2c-2.8,0.4-4.9,0-6.1-1
		c-1.2-1.1-1.8-3.1-1.8-6.1v-27.6c0-1.3-0.1-2.3-0.3-3.2s-0.6-1.6-1.2-2.3c-0.6-0.6-1.5-1.2-2.6-1.7s-2.5-1-4.3-1.5l1.1-2.4
		c3.4,0.5,7,0.8,10.9,1c3.8,0.2,7.7,0.2,11.6,0c3.9-0.2,7.7-0.4,11.5-0.8c3.8-0.4,7.3-0.9,10.5-1.4l-1.2,5.8
		c-6-0.3-11.5-0.3-16.5-0.1s-9.4,0.4-13.2,0.8v31.6c0,1.3,0.3,2.1,1,2.6s1.6,0.6,2.6,0.5c2.5-0.2,5.6-0.6,9.2-1.1
		c3.6-0.6,7.4-1.3,11.3-2.1c3.9-0.9,7.7-1.8,11.4-2.8c3.8-1,7-2,9.9-3.1L742.6,112L742.6,112z"/>
</g>
</svg>
