<?xml version="1.0" encoding="utf-8"?>
<!-- Generator: Adobe Illustrator 26.3.1, SVG Export Plug-In . SVG Version: 6.00 Build 0)  -->
<svg version="1.1" id="Layer_1" xmlns="http://www.w3.org/2000/svg" xmlns:xlink="http://www.w3.org/1999/xlink" x="0px" y="0px"
	 viewBox="0 0 958 271.3" style="enable-background:new 0 0 958 271.3;" xml:space="preserve">
<style type="text/css">
	.st0{fill:#FFFFFF;}
</style>
<g>
	<path class="st0" d="M29.8,68.2c0,10.7-1.6,18.7-4.9,23.9c-3.2,5.3-8.1,7.9-14.5,7.9c-2.6,0-4.9-0.6-7.1-1.7
		c-2-1.1-3.2-2.9-3.3-5.3c0-1.2,0.3-2.1,0.9-2.8c0.6-0.7,1.4-1.1,2.4-1.3c1-0.1,1.9,0.2,2.8,0.9c0.9,0.7,1.3,1.6,1.3,2.7
		c0,1.3,0.4,2.3,1.1,3.2c0.7,0.9,2.2,1.3,4.4,1.3c4,0,6.8-1.8,8.2-5.3c1.4-3.5,2.1-9.1,2.1-16.7V15.3c0-2.1-0.1-3.8-0.4-5.1
		C22.4,9,21.9,8,21.2,7.4c-0.7-0.7-1.7-1.2-3-1.4s-2.9-0.3-4.8-0.4V3c1.3,0.1,3.1,0.2,5.4,0.2c2.4,0,4.9,0,7.5,0s5.1,0,7.5,0
		s4.3-0.1,5.6-0.1v2.6C37.6,5.6,36,5.8,34.8,6s-2.2,0.6-2.9,1.3c-0.8,0.7-1.3,1.6-1.6,2.9c-0.3,1.3-0.4,3-0.4,5.1v52.9H29.8z"/>
	<path class="st0" d="M120.3,5.6c-1.7,0-3.1,0.1-4.2,0.3c-1.1,0.2-1.9,0.7-2.5,1.3c-0.7,0.7-1.1,1.6-1.3,2.9c-0.2,1.3-0.3,3-0.3,5.1
		v38.4c0,3.7-0.6,7.1-1.7,10.2c-1.1,3.1-2.8,5.8-5,8c-2.2,2.3-4.9,4-8.2,5.3c-3.2,1.3-7,1.9-11.2,1.9c-8.2,0-14.6-2.1-19.3-6.4
		c-4.7-4.2-7.2-11-7.3-20.2V15.5c0-2.1-0.1-3.8-0.4-5.1c-0.3-1.3-0.8-2.3-1.6-2.9c-0.7-0.7-1.7-1.2-3-1.4s-2.8-0.4-4.7-0.4V3
		c1.3,0.1,3.1,0.1,5.4,0.1c2.4,0,4.9,0,7.5,0s5.1,0,7.5,0S74.3,3,75.7,3v2.6c-2,0.1-3.6,0.2-4.9,0.4c-1.3,0.2-2.3,0.7-3,1.4
		s-1.2,1.6-1.5,2.9s-0.4,3-0.4,5.1v34.1c0,8.7,1.8,15.1,5.5,19.1s9.5,6.1,17.4,6.1c2.9,0,5.6-0.5,8.1-1.5s4.6-2.4,6.4-4.3
		s3.2-4.1,4.2-6.7c1-2.6,1.5-5.5,1.5-8.7v-38c0-2.2-0.1-3.9-0.3-5.2c-0.2-1.3-0.6-2.3-1.2-2.9c-0.7-0.7-1.6-1.1-2.7-1.3
		c-1.2-0.2-2.7-0.3-4.6-0.4V3c1.1,0.1,2.6,0.1,4.5,0.1c2,0,4,0,6,0s3.9,0,5.8,0s3.2-0.1,4.2-0.1v2.6H120.3z"/>
	<path class="st0" d="M201,78.4h-2.3l-53.3-65.2V64c0,2.5,0.1,4.4,0.4,5.8c0.3,1.4,0.8,2.5,1.6,3.2s1.8,1.2,3.1,1.4
		c1.3,0.2,2.9,0.3,4.8,0.3v2.5c-1.7,0-3.7,0-5.8,0c-2.2,0-4.3,0-6.5,0c-2.3,0-4.4,0-6.6,0c-2.1,0-4,0-5.7,0.1v-2.5
		c2.1,0,3.8-0.1,5.3-0.3c1.5-0.2,2.6-0.7,3.5-1.4c0.9-0.7,1.6-1.8,2-3.2c0.4-1.4,0.6-3.3,0.6-5.7V15.7c0-3.9-1.1-6.6-3.2-8
		c-2.1-1.4-5.4-2.1-9.9-2.1V3.1c0.8,0.1,1.9,0.2,3.3,0.2s2.9,0,4.4,0s3,0,4.3,0c1.4,0,2.4-0.1,3.1-0.1l53.6,64.1V15.6
		c0-2.1-0.1-3.7-0.4-5c-0.3-1.3-0.8-2.3-1.5-3s-1.8-1.2-3.1-1.5s-3-0.4-5.1-0.5V3c1.3,0.1,3,0.1,5.2,0.1s4.4,0,6.7,0s4.5,0,6.7,0
		c2.1,0,3.8-0.1,5-0.1v2.6c-2.2,0-3.9,0.1-5.2,0.3c-1.3,0.2-2.3,0.7-3,1.4s-1.2,1.7-1.4,3s-0.3,3-0.3,5.2v62.9H201z"/>
	<path class="st0" d="M289.9,21.9h-2.6c-1.3-5.9-3.9-10.3-7.6-13.1c-3.7-2.9-8.9-4.3-15.4-4.3c-5.2,0-9.8,1-13.8,3.1
		s-7.4,4.7-10.1,8.1c-2.7,3.3-4.8,7.1-6.2,11.3s-2.1,8.5-2.1,12.9c0,4.6,0.7,9.1,2.1,13.5c1.4,4.3,3.6,8.2,6.4,11.5
		c2.8,3.4,6.2,6.1,10.3,8.1s8.8,3,14.1,3c4.8,0,8.6-0.6,11.2-1.9s4.3-2.2,5.1-2.8V55.5c0-3.4-0.8-5.5-2.4-6.4s-4-1.3-7.3-1.3v-2.6
		c1.7,0.1,3.6,0.1,5.8,0.1c2.1,0,4.2,0,6.4,0c2.2,0,4.3,0,6.3,0s3.8-0.1,5.4-0.1v2.5c-2.3,0-4.1,0.5-5.5,1.4s-2.1,3.1-2.1,6.5V69
		l1.7,1.7v2.5c-4.2,1.8-8.5,3.2-12.8,4.2c-4.4,1-8.7,1.5-13,1.5c-5.8,0-11-1-15.8-3s-8.9-4.8-12.3-8.2c-3.4-3.5-6.1-7.6-8-12.3
		s-2.8-9.7-2.8-15c0-5.6,1-10.7,2.9-15.5c2-4.8,4.7-8.9,8.1-12.3c3.4-3.5,7.4-6.3,11.9-8.3c4.6-2,9.5-3,14.7-3
		c4.5,0,8.8,0.5,12.8,1.4s8.2,2.2,12.7,3.9L289.9,21.9z"/>
	<path class="st0" d="M370,36.3V15c0-2.1-0.2-3.8-0.5-5s-0.9-2.2-1.6-2.8c-0.7-0.7-1.7-1.1-3-1.2c-1.3-0.2-2.9-0.3-4.7-0.3V3
		c1.4,0.1,3.3,0.1,5.8,0.1s5,0,7.6,0c2.7,0,5.1,0,7.5,0c2.3,0,4.1-0.1,5.4-0.1v2.6c-1.9,0.1-3.5,0.2-4.8,0.4c-1.3,0.2-2.3,0.6-3,1.3
		c-0.8,0.7-1.3,1.6-1.6,2.8c-0.3,1.2-0.4,2.9-0.4,4.9v49c0,2.3,0.1,4.1,0.4,5.5s0.8,2.5,1.5,3.3s1.7,1.3,3,1.6
		c1.3,0.3,2.9,0.4,4.9,0.4v2.5c-1.3-0.1-3.1-0.1-5.4-0.1c-2.4,0-4.8,0-7.4,0s-5.1,0-7.6,0s-4.4,0.1-5.8,0.1v-2.5
		c2.1,0,3.7-0.2,5-0.5s2.3-0.9,3-1.7c0.7-0.8,1.2-1.9,1.5-3.2c0.3-1.4,0.4-3.1,0.4-5.3V40.5h-47v23.6c0,2.2,0.1,4,0.3,5.4
		s0.7,2.5,1.4,3.3c0.7,0.8,1.6,1.3,2.9,1.6c1.3,0.3,2.9,0.4,5.1,0.4v2.5c-1.3,0-3.2,0-5.5,0c-2.4,0-4.8,0-7.4,0c-2.7,0-5.2,0-7.6,0
		s-4.2,0-5.6,0.1v-2.5c4,0,6.6-0.7,7.9-2.1s1.9-4.3,1.9-8.6V15.3c0-2.1-0.1-3.8-0.4-5.1C315.5,9,315,8,314.3,7.4
		c-0.7-0.7-1.7-1.2-3-1.4s-2.9-0.3-4.8-0.4V3c1.3,0.1,3.1,0.2,5.4,0.2c2.4,0,4.9,0,7.5,0s5.1,0,7.5,0s4.3-0.1,5.6-0.2v2.6
		c-1.9,0.1-3.5,0.2-4.8,0.4c-1.3,0.2-2.3,0.7-3,1.3c-0.7,0.7-1.2,1.7-1.5,3s-0.4,2.9-0.4,5v21H370z"/>
	<path class="st0" d="M474.1,39.8c0,4.9-0.9,9.7-2.7,14.4c-1.8,4.7-4.3,8.9-7.6,12.5c-3.2,3.7-7,6.7-11.5,8.9
		c-4.5,2.2-9.4,3.3-14.8,3.3c-5,0-9.7-1-14.1-3.1s-8.2-4.8-11.5-8.4c-3.3-3.5-5.9-7.6-7.8-12.2s-2.8-9.5-2.8-14.7
		c0-4.9,0.9-9.7,2.6-14.4c1.8-4.7,4.2-8.9,7.4-12.6c3.2-3.6,7.1-6.6,11.6-8.9s9.4-3.4,14.9-3.4c4.9,0,9.6,1,14,3.1s8.3,4.9,11.6,8.4
		c3.2,3.5,5.9,7.6,7.8,12.2C473.1,29.8,474.1,34.7,474.1,39.8z M466.1,42.8c0-4-0.6-8.3-1.8-12.8c-1.2-4.5-3-8.7-5.5-12.4
		c-2.4-3.8-5.5-6.9-9.2-9.4s-8.1-3.7-13.2-3.7c-4.1,0-7.8,0.8-11.2,2.5c-3.3,1.7-6.3,3.9-8.7,6.9c-2.4,2.9-4.2,6.4-5.6,10.4
		c-1.3,4-2,8.5-2,13.2c0,4.1,0.6,8.4,1.8,12.9c1.2,4.5,3,8.7,5.4,12.4c2.5,3.8,5.5,6.9,9.3,9.3c3.7,2.4,8.1,3.6,13.2,3.6
		c4.4,0,8.3-0.8,11.7-2.4c3.4-1.6,6.3-3.9,8.6-6.8c2.3-2.9,4.1-6.4,5.3-10.4C465.5,52.1,466.1,47.6,466.1,42.8z"/>
	<path class="st0" d="M565.2,39.8c0,4.9-0.9,9.7-2.7,14.4s-4.3,8.9-7.6,12.5c-3.2,3.7-7,6.7-11.5,8.9c-4.5,2.2-9.4,3.3-14.8,3.3
		c-5,0-9.7-1-14.1-3.1c-4.4-2.1-8.2-4.8-11.5-8.4c-3.3-3.5-5.9-7.6-7.8-12.2s-2.8-9.5-2.8-14.7c0-4.9,0.9-9.7,2.6-14.4
		c1.8-4.7,4.2-8.9,7.4-12.6c3.2-3.6,7.1-6.6,11.6-8.9c4.5-2.3,9.4-3.4,14.9-3.4c4.9,0,9.6,1,14,3.1s8.3,4.9,11.6,8.4
		c3.2,3.5,5.9,7.6,7.8,12.2C564.2,29.8,565.2,34.7,565.2,39.8z M557.3,42.8c0-4-0.6-8.3-1.8-12.8s-3-8.7-5.5-12.4
		c-2.4-3.8-5.5-6.9-9.2-9.4s-8.1-3.7-13.2-3.7c-4.1,0-7.8,0.8-11.2,2.5c-3.3,1.7-6.3,3.9-8.7,6.9c-2.4,2.9-4.2,6.4-5.6,10.4
		c-1.3,4-2,8.5-2,13.2c0,4.1,0.6,8.4,1.8,12.9c1.2,4.5,3,8.7,5.4,12.4c2.5,3.8,5.5,6.9,9.3,9.3c3.7,2.4,8.1,3.6,13.2,3.6
		c4.4,0,8.3-0.8,11.7-2.4s6.3-3.9,8.6-6.8s4.1-6.4,5.3-10.4C556.6,52.1,557.3,47.6,557.3,42.8z"/>
	<path class="st0" d="M650.9,78.4h-2.3l-53.3-65.2V64c0,2.5,0.1,4.4,0.4,5.8c0.3,1.4,0.8,2.5,1.6,3.2s1.8,1.2,3.1,1.4
		c1.3,0.2,2.9,0.3,4.8,0.3v2.5c-1.7,0-3.7,0-5.8,0c-2.2,0-4.3,0-6.5,0c-2.3,0-4.4,0-6.6,0c-2.1,0-4,0-5.7,0.1v-2.5
		c2.1,0,3.8-0.1,5.3-0.3c1.5-0.2,2.6-0.7,3.5-1.4c0.9-0.7,1.6-1.8,2-3.2c0.4-1.4,0.6-3.3,0.6-5.7V15.7c0-3.9-1.1-6.6-3.2-8
		c-2.1-1.4-5.4-2.1-9.9-2.1V3.1c0.8,0.1,1.9,0.2,3.3,0.2s2.9,0,4.4,0s3,0,4.3,0c1.4,0,2.4-0.1,3.1-0.1l53.6,64.1V15.6
		c0-2.1-0.1-3.7-0.4-5c-0.3-1.3-0.8-2.3-1.5-3s-1.8-1.2-3.1-1.5s-3-0.4-5.1-0.5V3c1.3,0.1,3,0.1,5.2,0.1s4.4,0,6.7,0s4.5,0,6.7,0
		c2.1,0,3.8-0.1,5-0.1v2.6c-2.2,0-3.9,0.1-5.2,0.3c-1.3,0.2-2.3,0.7-3,1.4s-1.2,1.7-1.4,3s-0.3,3-0.3,5.2v62.9H650.9z"/>
	<path class="st0" d="M770.3,36.3V15c0-2.1-0.2-3.8-0.5-5s-0.9-2.2-1.6-2.8c-0.7-0.7-1.7-1.1-3-1.2c-1.3-0.2-2.9-0.3-4.7-0.3V3
		c1.4,0.1,3.3,0.1,5.8,0.1s5,0,7.6,0c2.7,0,5.1,0,7.5,0c2.3,0,4.1-0.1,5.4-0.1v2.6c-1.9,0.1-3.5,0.2-4.8,0.4c-1.3,0.2-2.3,0.6-3,1.3
		c-0.8,0.7-1.3,1.6-1.6,2.8S777,13,777,15v49c0,2.3,0.1,4.1,0.4,5.5c0.3,1.4,0.8,2.5,1.5,3.3s1.7,1.3,3,1.6c1.3,0.3,2.9,0.4,4.9,0.4
		v2.5c-1.3-0.1-3.1-0.1-5.4-0.1c-2.4,0-4.8,0-7.4,0c-2.6,0-5.1,0-7.6,0s-4.4,0.1-5.8,0.1v-2.5c2.1,0,3.7-0.2,5-0.5s2.3-0.9,3-1.7
		c0.7-0.8,1.2-1.9,1.5-3.2c0.3-1.4,0.4-3.1,0.4-5.3V40.5h-47v23.6c0,2.2,0.1,4,0.3,5.4s0.7,2.5,1.4,3.3s1.6,1.3,2.9,1.6
		s3,0.4,5.1,0.4v2.5c-1.3,0-3.2,0-5.5,0c-2.4,0-4.8,0-7.4,0c-2.7,0-5.2,0-7.6,0c-2.4,0-4.2,0-5.6,0.1v-2.5c4,0,6.6-0.7,7.9-2.1
		c1.3-1.4,1.9-4.3,1.9-8.6V15.3c0-2.1-0.1-3.8-0.4-5.1c-0.3-1.3-0.8-2.2-1.5-2.9s-1.7-1.2-3-1.4s-2.9-0.3-4.8-0.4V3
		c1.3,0.1,3.1,0.2,5.4,0.2c2.4,0,4.9,0,7.5,0s5.1,0,7.5,0s4.3-0.1,5.6-0.2v2.6c-1.9,0.1-3.5,0.2-4.8,0.4c-1.3,0.2-2.3,0.7-3,1.3
		c-0.7,0.7-1.2,1.7-1.5,3s-0.4,2.9-0.4,5v21H770.3z"/>
	<path class="st0" d="M812.1,64.3c-1.3,3.6-1.6,6.3-0.9,8c0.7,1.7,3.3,2.5,7.8,2.5v2.5c-3.3-0.1-7-0.1-10.9-0.1s-7.6,0-10.7,0.1
		v-2.8c1.8,0,3.2-0.2,4.4-0.5c1.1-0.3,2.1-0.9,2.9-1.8c0.8-0.8,1.5-1.9,2.1-3.2c0.6-1.4,1.3-3.1,2-5.1L831.1,0h2l21.8,64.2
		c0.7,2.1,1.4,3.7,2.1,5.1c0.7,1.3,1.5,2.4,2.4,3.1c0.9,0.8,2,1.4,3.1,1.7c1.2,0.4,2.5,0.6,4.1,0.7v2.5c-1.7,0-3.5,0-5.6,0
		s-4.2,0-6.4,0c-2.3,0-4.4,0-6.5,0s-3.9,0-5.5,0v-2.5c2.1,0,3.8-0.1,5-0.4s2-0.8,2.4-1.6c0.4-0.8,0.4-1.9,0.1-3.3s-0.8-3.2-1.4-5.5
		l-5.1-14.7h-26.3L812.1,64.3z M842.4,46l-11.7-35.1L818.5,46H842.4z"/>
	<path class="st0" d="M948,78.4h-2.3l-53.3-65.2V64c0,2.5,0.1,4.4,0.4,5.8c0.3,1.4,0.8,2.5,1.6,3.2s1.8,1.2,3.1,1.4
		c1.3,0.2,2.9,0.3,4.8,0.3v2.5c-1.7,0-3.7,0-5.8,0c-2.2,0-4.3,0-6.5,0c-2.3,0-4.4,0-6.6,0c-2.1,0-4,0-5.7,0.1v-2.5
		c2.1,0,3.8-0.1,5.3-0.3c1.5-0.2,2.6-0.7,3.5-1.4c0.9-0.7,1.6-1.8,2-3.2c0.4-1.4,0.6-3.3,0.6-5.7V15.7c0-3.9-1.1-6.6-3.2-8
		c-2.1-1.4-5.4-2.1-9.9-2.1V3.1c0.8,0.1,1.9,0.2,3.3,0.2s2.9,0,4.4,0s3,0,4.3,0c1.4,0,2.4-0.1,3.1-0.1l53.6,64.1V15.6
		c0-2.1-0.1-3.7-0.4-5c-0.3-1.3-0.8-2.3-1.5-3s-1.8-1.2-3.1-1.5s-3-0.4-5.1-0.5V3c1.3,0.1,3,0.1,5.2,0.1s4.4,0,6.7,0s4.5,0,6.7,0
		c2.1,0,3.8-0.1,5-0.1v2.6c-2.2,0-3.9,0.1-5.2,0.3c-1.3,0.2-2.3,0.7-3,1.4s-1.2,1.7-1.4,3s-0.3,3-0.3,5.2v62.9H948z"/>
</g>
<g>
	<path class="st0" d="M143.1,257.5c0,3.8,0.6,6.4,1.9,7.7c1.3,1.3,3.9,1.9,7.8,1.9v2.5c-1.9-0.1-4-0.1-6.3-0.1s-4.6,0-6.9,0
		c-2.3,0-4.6,0-6.9,0c-2.3,0-4.2,0.1-6,0.1v-2.5c3.8,0,6.3-0.6,7.7-1.8c1.3-1.2,2-3.8,2-7.8v-23.6l-21-29.5c-1.1-1.4-2-2.5-2.8-3.4
		s-1.7-1.5-2.5-1.9c-0.9-0.5-1.8-0.8-2.7-0.9c-0.9-0.1-2-0.2-3.2-0.2v-2.6c1.5,0.1,3.2,0.2,5.3,0.2c2.1,0,4.2,0,6.4,0s4.4,0,6.5-0.1
		c2.2-0.1,4.1-0.1,5.8-0.2v2.6c-2.9,0-4.7,0.5-5.6,1.4c-0.9,1-0.4,2.6,1.3,5l18,25l18.6-25.3c1.7-2.2,2.1-3.8,1.4-4.8
		s-2.9-1.5-6.7-1.4v-2.6c2.8,0.1,5.7,0.2,8.8,0.2c3,0,5.9-0.1,8.5-0.2v2.6c-1.1,0.1-2.1,0.2-2.8,0.5s-1.4,0.7-2.1,1.2
		c-0.6,0.5-1.2,1.2-1.9,2.1c-0.7,0.9-1.4,1.9-2.3,3.1l-20.3,27.6L143.1,257.5L143.1,257.5z"/>
	<path class="st0" d="M201,229h15c2.9,0,5-0.6,6.1-1.9c1.2-1.3,1.7-3.7,1.7-7.3h2.4v23.6h-2.4c0-2.1-0.1-3.8-0.3-5.2
		c-0.2-1.3-0.6-2.4-1.2-3.1c-0.6-0.8-1.4-1.3-2.4-1.6c-1-0.3-2.3-0.4-3.9-0.4h-15v23.5c0,2.1,0.1,3.8,0.4,5.1
		c0.3,1.3,0.9,2.3,1.9,2.9c0.9,0.7,2.2,1.2,3.9,1.4c1.7,0.2,3.9,0.3,6.6,0.3h6.9c2.8,0,5.1-0.2,7-0.6s3.4-1.1,4.7-2.1s2.3-2.3,3.2-4
		s1.7-3.8,2.6-6.4h2.6c-0.5,1.3-0.9,2.7-1.3,4c-0.4,1.4-0.8,2.7-1.2,4c-0.4,1.4-0.8,2.8-1.1,4.1c-0.3,1.4-0.6,2.7-0.9,4
		c-8.7-0.1-17.5-0.2-26.4-0.2s-17.4,0.1-25.6,0.2v-2.5c4.2,0,6.9-0.7,8.2-2.1s1.9-4.2,1.9-8.4v-49.2c0-2.1-0.1-3.7-0.4-5
		c-0.3-1.3-0.8-2.2-1.6-2.9c-0.7-0.6-1.7-1-3-1.2s-2.9-0.3-4.9-0.3v-2.6c8,0.2,16.1,0.3,24.6,0.3c8.4,0,16.4-0.1,23.9-0.3v15.8h-2.1
		c-0.3-2.7-0.6-4.9-1.1-6.6c-0.5-1.7-1.3-3-2.4-3.9c-1.1-0.9-2.5-1.5-4.4-1.8s-4.3-0.5-7.3-0.5H201V229z"/>
	<path class="st0" d="M287.8,271.3h-1.7l-26.6-64.9c-0.7-1.5-1.3-2.7-1.8-3.8s-1.2-2-1.9-2.6c-0.8-0.7-1.8-1.3-2.9-1.6
		c-1.2-0.3-2.7-0.5-4.5-0.5v-2.6c1.1,0.1,2.8,0.2,5,0.2s4.5,0,6.9,0c2.3,0,4.5,0,6.7,0c2.1,0,3.7-0.1,4.8-0.1v2.6
		c-3.1,0-5.1,0.5-5.9,1.6s-0.5,3.4,0.9,7l22,55.2l13-28.1l-11.5-27c-1.4-3.2-2.8-5.4-4.1-6.8c-1.3-1.3-3.7-2-7.1-2v-2.6
		c1.3,0.1,3,0.2,5.1,0.2s4.3,0,6.6,0c2.2,0,4.2,0,6.2,0c1.9,0,3.3-0.1,4.3-0.2v2.6c-2.9,0-4.6,0.5-5.2,1.6s-0.1,3.5,1.5,7.3l7.9,19
		l8.7-18.5c1.6-3.6,2.1-6.1,1.5-7.4c-0.6-1.3-2.8-1.9-6.7-1.9v-2.6c1,0.1,2.3,0.2,4,0.2s3.5,0,5.3,0s3.5,0,5.1,0s2.8-0.1,3.6-0.1
		v2.6c-1.4,0-2.6,0.3-3.5,0.8c-1,0.6-1.8,1.3-2.4,2.1c-0.7,0.9-1.4,1.8-1.9,2.9c-0.5,1.1-1,2.1-1.5,3.1L307,229.7l12.8,31.1l19.8-53
		c1.5-4.2,1.9-6.9,1.1-8.1c-0.8-1.2-2.9-1.8-6.4-1.8v-2.6c1,0.1,2.3,0.2,3.9,0.2s3.2,0,4.9,0c1.7,0,3.3,0,4.7,0
		c1.4,0,2.5-0.1,3.2-0.1v2.6c-1.3,0-2.4,0.2-3.1,0.5c-0.7,0.4-1.4,0.9-1.9,1.7c-0.6,0.7-1.1,1.7-1.5,3s-1,2.8-1.6,4.6l-23.5,63.6
		h-1.7l-14.3-33.7L287.8,271.3z"/>
	<path class="st0" d="M377.4,229h15c2.9,0,5-0.6,6.1-1.9c1.2-1.3,1.7-3.7,1.7-7.3h2.4v23.6h-2.4c0-2.1-0.1-3.8-0.3-5.2
		c-0.2-1.3-0.6-2.4-1.2-3.1c-0.6-0.8-1.4-1.3-2.4-1.6c-1-0.3-2.3-0.4-3.9-0.4h-14.9v23.5c0,2.1,0.1,3.8,0.4,5.1
		c0.3,1.3,0.9,2.3,1.9,2.9c0.9,0.7,2.2,1.2,3.9,1.4c1.7,0.2,3.9,0.3,6.6,0.3h6.9c2.8,0,5.1-0.2,7-0.6s3.4-1.1,4.7-2.1
		c1.3-1,2.3-2.3,3.2-4c0.9-1.7,1.7-3.8,2.6-6.4h2.6c-0.5,1.3-0.9,2.7-1.3,4c-0.4,1.4-0.8,2.7-1.2,4c-0.4,1.4-0.8,2.8-1.1,4.1
		c-0.3,1.4-0.6,2.7-0.9,4c-8.7-0.1-17.5-0.2-26.4-0.2s-17.4,0.1-25.6,0.2v-2.5c4.2,0,6.9-0.7,8.2-2.1c1.3-1.4,1.9-4.2,1.9-8.4v-49.2
		c0-2.1-0.1-3.7-0.4-5s-0.8-2.2-1.6-2.9c-0.7-0.6-1.7-1-3-1.2s-2.9-0.3-4.9-0.3v-2.6c8,0.2,16.1,0.3,24.6,0.3
		c8.4,0,16.4-0.1,23.9-0.3v15.8H407c-0.3-2.7-0.6-4.9-1.1-6.6c-0.5-1.7-1.3-3-2.4-3.9s-2.5-1.5-4.4-1.8s-4.3-0.5-7.3-0.5h-14.4
		L377.4,229L377.4,229z"/>
	<path class="st0" d="M503.7,232.1c0,4.9-0.9,9.7-2.7,14.4c-1.8,4.7-4.3,8.9-7.6,12.5c-3.2,3.7-7,6.7-11.5,8.9
		c-4.5,2.2-9.4,3.3-14.8,3.3c-5,0-9.7-1-14.1-3.1s-8.2-4.8-11.5-8.4c-3.3-3.5-5.9-7.6-7.8-12.2s-2.8-9.5-2.8-14.7
		c0-4.9,0.9-9.7,2.6-14.4c1.8-4.7,4.2-8.9,7.4-12.6c3.2-3.6,7.1-6.6,11.6-8.9c4.5-2.3,9.4-3.4,14.9-3.4c4.9,0,9.6,1,14,3.1
		s8.3,4.9,11.6,8.4c3.2,3.5,5.9,7.6,7.8,12.2C502.7,222.2,503.7,227,503.7,232.1z M495.8,235.1c0-4-0.6-8.3-1.8-12.8
		c-1.2-4.5-3-8.7-5.5-12.4c-2.4-3.8-5.5-6.9-9.2-9.4s-8.1-3.7-13.2-3.7c-4.1,0-7.8,0.8-11.2,2.5c-3.3,1.7-6.3,3.9-8.7,6.9
		c-2.4,2.9-4.2,6.4-5.6,10.4c-1.3,4-2,8.5-2,13.2c0,4.1,0.6,8.4,1.8,12.9c1.2,4.5,3,8.7,5.4,12.4c2.5,3.8,5.5,6.9,9.3,9.3
		c3.7,2.4,8.1,3.6,13.2,3.6c4.4,0,8.3-0.8,11.7-2.4c3.4-1.6,6.3-3.9,8.6-6.8c2.3-2.9,4.1-6.4,5.3-10.4
		C495.1,244.4,495.8,240,495.8,235.1z"/>
	<path class="st0" d="M589.4,270.7h-2.3l-53.3-65.2v50.8c0,2.5,0.1,4.4,0.4,5.8c0.3,1.4,0.8,2.5,1.6,3.2s1.8,1.2,3.1,1.4
		c1.3,0.2,2.9,0.3,4.8,0.3v2.5c-1.7,0-3.7,0-5.8,0c-2.2,0-4.3,0-6.5,0c-2.3,0-4.4,0-6.6,0c-2.1,0-4,0-5.7,0.1v-2.5
		c2.1,0,3.8-0.1,5.3-0.3c1.5-0.2,2.6-0.7,3.5-1.4c0.9-0.7,1.6-1.8,2-3.2c0.4-1.4,0.6-3.3,0.6-5.7v-48.4c0-3.9-1.1-6.6-3.2-8
		c-2.1-1.4-5.4-2.1-9.9-2.1v-2.5c0.8,0.1,1.9,0.2,3.3,0.2s2.9,0,4.4,0s3,0,4.3,0c1.4,0,2.4-0.1,3.1-0.1l53.6,64.1V208
		c0-2.1-0.1-3.7-0.4-5c-0.3-1.3-0.8-2.3-1.5-3s-1.8-1.2-3.1-1.5s-3-0.4-5.1-0.5v-2.6c1.3,0.1,3,0.1,5.2,0.1s4.4,0,6.7,0s4.5,0,6.7,0
		c2.1,0,3.8-0.1,5-0.1v2.6c-2.2,0-3.9,0.1-5.2,0.3s-2.3,0.7-3,1.4s-1.2,1.7-1.4,3s-0.3,3-0.3,5.2v62.8H589.4z"/>
	<path class="st0" d="M702.1,263.4c0.7,1,1.6,1.8,2.7,2.3c1.1,0.5,2.1,0.9,3.2,1.1c1.1,0.3,2.2,0.4,3.1,0.4c1,0,1.7,0,2.3,0v2.4
		c-0.9,0-2.1,0-3.4,0c-1.3,0-2.7,0-4.1,0c-1.4,0-2.8,0-4.1,0s-2.4,0-3.3,0L670,230l-8.4,8.1v18.5c0,4.5,0.6,7.4,1.8,8.7
		c1.2,1.3,3.5,1.9,6.8,1.9v2.5c-1.3,0-3.1,0-5.4,0c-2.3,0-4.6,0-7.1,0s-4.9,0-7.2,0s-4.1,0-5.4,0.1v-2.5c1.9,0,3.5-0.1,4.8-0.4
		s2.3-0.8,3-1.6c0.7-0.7,1.2-1.8,1.5-3.2c0.3-1.4,0.4-3.2,0.4-5.5v-48.7c0-2.1-0.1-3.8-0.4-5.1c-0.3-1.3-0.8-2.3-1.5-3
		s-1.7-1.1-3-1.3s-2.9-0.4-4.8-0.4v-2.6c1.3,0.1,3,0.1,5.3,0.1s4.7,0,7.1,0c2.5,0,4.8,0,7,0s3.9-0.1,5.1-0.1v2.6
		c-1.6,0.1-2.9,0.2-4,0.4s-1.9,0.7-2.5,1.3c-0.7,0.7-1.1,1.7-1.3,3s-0.3,3-0.3,5.1v26.6l28.7-27.9c0.3-0.3,0.7-0.7,1.2-1.2
		s1-1.1,1.5-1.7c0.5-0.5,1-1.1,1.3-1.7c0.4-0.6,0.5-1.1,0.5-1.5c0-1.1-0.6-1.7-1.8-2s-2.6-0.4-4.2-0.4v-2.6c1.2,0.1,2.7,0.1,4.5,0.2
		c1.8,0.1,3.7,0.1,5.7,0.1c1.9,0,3.8,0,5.6,0s3.2-0.1,4.4-0.2v2.5c-1.2,0-2.3,0.1-3.4,0.4c-1.1,0.3-2.3,0.9-3.6,1.7
		s-2.9,1.9-4.6,3.4c-1.8,1.5-3.8,3.4-6.2,5.7L674.2,226L702.1,263.4z"/>
	<path class="st0" d="M734.3,207.6c0-2.1-0.1-3.8-0.4-5.1c-0.3-1.3-0.8-2.2-1.5-2.9s-1.7-1.1-3-1.3s-2.9-0.3-4.8-0.4v-2.6
		c1.3,0.1,3.1,0.2,5.4,0.2c2.4,0,4.9,0,7.5,0s5.1,0,7.5,0s4.3-0.1,5.6-0.1v2.6c-1.9,0.1-3.5,0.2-4.8,0.4s-2.3,0.6-3,1.3
		s-1.2,1.6-1.5,2.9c-0.3,1.3-0.4,3-0.4,5.1v48.8c0,4.4,0.6,7.3,1.9,8.7s3.9,2.1,7.7,2.1v2.5c-1.3,0-3.2,0-5.5,0c-2.4,0-4.8,0-7.4,0
		c-2.7,0-5.2,0-7.6,0c-2.4,0-4.2,0-5.6,0.1v-2.5c3.8,0,6.4-0.7,7.8-2.1c1.3-1.4,2-4.3,2-8.6L734.3,207.6L734.3,207.6z"/>
	<path class="st0" d="M811.1,260.4l29.8-65c0.8,0.1,1.9,0.2,3.3,0.2c1.4,0,2.9,0,4.4,0c1.6,0,3.1,0,4.5-0.1s2.5-0.2,3.3-0.3v2.6
		c-3.6,0-6.1,0.7-7.4,2.2c-1.4,1.5-2,3.7-2,6.9l1.1,49.2c0.1,2.2,0.3,4,0.6,5.4s0.9,2.5,1.8,3.3c0.8,0.8,2,1.4,3.5,1.7
		c1.5,0.3,3.5,0.5,6.1,0.5v2.5c-1.6,0-3.7,0-6.5,0c-2.7,0-5.5,0-8.5,0c-2.9,0-5.7,0-8.4,0s-4.7,0-6.2,0V267c2.2,0,4-0.1,5.4-0.4
		s2.5-0.8,3.3-1.6c0.8-0.8,1.4-1.9,1.7-3.3s0.5-3.3,0.5-5.5l-0.7-52.1l-30.4,66.2h-1.5L779,206l-1,50.5c0,3.8,0.5,6.5,1.6,8.1
		s3.3,2.4,6.7,2.5v2.5c-1.6,0-3.4,0-5.6,0c-2.1,0-4.3,0-6.6,0s-4.4,0-6.6,0c-2.1,0-4,0-5.7,0.1v-2.5c2.2-0.1,4.1-0.2,5.6-0.5
		c1.6-0.3,2.8-0.8,3.8-1.5c1-0.8,1.7-1.9,2.2-3.3s0.8-3.3,0.9-5.7l1.3-49.1c0-3.3-0.8-5.7-2.4-7.1c-1.6-1.4-3.9-2.1-7.1-2.1v-2.6
		c1.1,0.1,2.3,0.2,3.6,0.2c1.4,0,2.7,0,4,0s2.6,0,3.8,0s2.2-0.1,2.9-0.2L811.1,260.4z"/>
</g>
</svg>
